<?xml version="1.0" encoding="utf-8"?>
<!-- Generator: Adobe Illustrator 22.0.1, SVG Export Plug-In . SVG Version: 6.00 Build 0)  -->
<svg version="1.1" id="图层_1" xmlns="http://www.w3.org/2000/svg" xmlns:xlink="http://www.w3.org/1999/xlink" x="0px" y="0px"
	 viewBox="0 0 32 32" style="enable-background:new 0 0 32 32;" xml:space="preserve">
<style type="text/css">
	.st0{fill:#FBEBB6;}
	.st1{fill:none;stroke:#F0C84F;stroke-miterlimit:10;}
</style>
<g>
	<path class="st0" d="M28.4,8.2H15L13,5c-0.2-0.3-0.5-0.5-0.8-0.5H3.7c-0.6,0-1,0.4-1,1v2.6h0v17.7c0,0.6,0.4,1,1,1h24.7
		c0.6,0,1-0.4,1-1V9.2C29.4,8.7,28.9,8.2,28.4,8.2z"/>
	<path class="st1" d="M28.4,26.9H3.7c-0.6,0-1-0.4-1-1V8.2h25.7c0.6,0,1,0.4,1,1v16.7C29.4,26.5,29,26.9,28.4,26.9z"/>
	<path class="st1" d="M15,8.2H2.7V5.6c0-0.6,0.4-1,1-1h8.5c0.3,0,0.7,0.2,0.8,0.5L15,8.2z"/>
</g>
</svg>
