<?xml version="1.0" encoding="utf-8"?>
<!-- Generator: Adobe Illustrator 22.0.1, SVG Export Plug-In . SVG Version: 6.00 Build 0)  -->
<svg version="1.1" id="图层_1" xmlns="http://www.w3.org/2000/svg" xmlns:xlink="http://www.w3.org/1999/xlink" x="0px" y="0px"
	 viewBox="0 0 32 32" style="enable-background:new 0 0 32 32;" xml:space="preserve">
<style type="text/css">
	.st0{fill:#FFFFFF;}
	.st1{fill:#EFFFD7;}
	.st2{fill:#8CC63F;}
	.st3{display:none;fill:#FFFFFF;}
</style>
<path class="st0" d="M18.4,3h0.7l6.5,7.6L25.4,11h-5.6l-1-0.5L18,9.2L18.4,3z"/>
<path class="st1" d="M25.7,10.7c-0.1-0.2-0.2-0.4-0.3-0.5l-5.9-6.9c-0.2-0.2-0.3-0.3-0.6-0.4c-0.2-0.1-0.5-0.2-0.7-0.2H7
	c-0.4,0-0.8,0.2-1.2,0.5C5.5,3.5,5.4,4,5.4,4.4v22.8c0,0.4,0.1,0.8,0.5,1.2s0.7,0.5,1.2,0.5h17.1c0.4,0,0.9-0.1,1.2-0.5
	s0.5-0.7,0.5-1.2V11.3C25.8,11.1,25.8,10.9,25.7,10.7z M25.1,10.4C25.1,10.4,25,10.4,25.1,10.4l-4.9,0c-0.4,0-0.7,0-1-0.3
	c-0.3-0.3-0.4-0.6-0.4-1V3.3c0,0,0.1,0,0.1,0.1c0.2,0.1,0.4,0.2,0.5,0.4l5.4,6.3C24.9,10.1,25,10.4,25.1,10.4L25.1,10.4
	C25.1,10.4,25.1,10.4,25.1,10.4z"/>
<path class="st2" d="M28.3,17.9c-0.3-0.3-0.8-0.5-1.2-0.5h-0.9v-6.1c0,0,0-0.1,0-0.1c0-0.2,0-0.4-0.1-0.6c-0.1-0.2-0.2-0.4-0.3-0.6
	L19.8,3c-0.2-0.2-0.4-0.3-0.7-0.4l-0.1,0c-0.2-0.1-0.5-0.1-0.6-0.1c-0.1,0-0.1,0-0.2,0c0,0-0.1,0-0.1,0H7c-0.7,0-1.2,0.2-1.6,0.6
	C5.1,3.3,4.7,3.8,4.7,4.4v22.8c0,0.5,0.3,1.2,0.7,1.6c0.4,0.4,1.1,0.7,1.6,0.7h17.1c0.7,0,1.2-0.4,1.5-0.7c0.4-0.4,0.6-0.9,0.6-1.6
	v-2.4h0.9c0.4,0,0.9-0.1,1.2-0.5s0.5-0.7,0.5-1.2v-4C28.8,18.7,28.6,18.3,28.3,17.9z M18.8,3.5L18.8,3.5C19,3.5,19,3.6,19.1,3.6
	l5.8,6.8H20c-0.3,0-0.6-0.1-0.8-0.4c-0.2-0.2-0.4-0.6-0.4-0.9V3.5z M25.2,27.2c0,0.3-0.1,0.7-0.3,0.9c-0.3,0.3-0.6,0.4-0.8,0.4H7
	c-0.3,0-0.6-0.2-0.9-0.4c-0.2-0.2-0.4-0.6-0.4-0.9V4.4c0-0.2,0.1-0.5,0.4-0.8C6.4,3.4,6.7,3.4,7,3.4h10.8v5.8c0,0.6,0.2,1.1,0.6,1.6
	c0.4,0.4,1,0.7,1.5,0.7h5.2v6H13.4c-0.4,0-0.8,0.2-1.2,0.5c-0.3,0.3-0.5,0.8-0.5,1.2v4c0,0.4,0.1,0.8,0.5,1.2
	c0.3,0.3,0.7,0.5,1.2,0.5h11.8C25.2,24.8,25.2,27.2,25.2,27.2z"/>
<path class="st3" d="M15.3,20.2v2.4h-0.7v-3.3h0.9l1.3,2.5v-2.5h0.7v3.3h-0.9C16.7,22.6,15.3,20.2,15.3,20.2z M20.7,19.3v0.6h-0.9
	c-0.2,0-0.4,0-0.5,0c-0.1,0-0.2,0.1-0.3,0.2c0,0.1-0.1,0.1-0.1,0.2c0,0.1,0,0.2,0,0.3h1.9v0.6h-1.9c0,0.3,0.1,0.5,0.3,0.6
	c0.1,0.1,0.4,0.2,0.7,0.2h0.9v0.6h-0.9c-0.3,0-0.5,0-0.7,0c-0.3-0.1-0.5-0.2-0.7-0.4C18.2,21.9,18,21.5,18,21c0-0.6,0.2-1,0.5-1.4
	c0.1-0.1,0.3-0.2,0.4-0.2c0.1,0,0.3-0.1,0.6-0.1L20.7,19.3z M21.7,19.3l0.8,2.5l0.7-2.5H24l0.7,2.5l0.8-2.5h0.7l-1.1,3.3h-0.8
	l-0.7-2.4l-0.7,2.4h-0.8L21,19.3H21.7z"/>
<g>
	<path class="st0" d="M17.2,20.2c-0.5,0-0.9,0.4-0.9,0.9s0.4,0.9,0.9,0.9c0.5,0,0.9-0.4,0.9-0.9S17.7,20.2,17.2,20.2z"/>
	<circle class="st0" cx="20.3" cy="21.1" r="0.9"/>
	<circle class="st0" cx="23.4" cy="21.1" r="0.9"/>
</g>
</svg>
