<svg xmlns="http://www.w3.org/2000/svg" width="256" height="64" viewBox="0 0 256 64">
  <metadata><?xpacket begin="﻿" id="W5M0MpCehiHzreSzNTczkc9d"?>
<x:xmpmeta xmlns:x="adobe:ns:meta/" x:xmptk="Adobe XMP Core 5.6-c142 79.160924, 2017/07/13-01:06:39        ">
   <rdf:RDF xmlns:rdf="http://www.w3.org/1999/02/22-rdf-syntax-ns#">
      <rdf:Description rdf:about=""/>
   </rdf:RDF>
</x:xmpmeta>
                                                                                                    
                                                                                                    
                                                                                                    
                                                                                                    
                                                                                                    
                                                                                                    
                                                                                                    
                                                                                                    
                                                                                                    
                                                                                                    
                                                                                                    
                                                                                                    
                                                                                                    
                                                                                                    
                                                                                                    
                                                                                                    
                                                                                                    
                                                                                                    
                                                                                                    
                                                                                                    
                           
<?xpacket end="w"?></metadata>
<defs>
    <style>
      .cls-1 {
        fill: #fff;
        fill-rule: evenodd;
      }
    </style>
  </defs>
  <path id="LOGO" class="cls-1" d="M52.733,50.961c-0.251-.386-0.469-0.726-0.692-1.063q-3.072-4.642-6.146-9.283-1.613-2.439-3.219-4.883a7.011,7.011,0,0,0-7.2-2.909,6.694,6.694,0,0,0-5.151,4.352,12.262,12.262,0,0,0-.455,2.147,0.282,0.282,0,0,0,.322.384,6.946,6.946,0,0,1,5.939,3.545c1.562,2.481,3.144,4.95,4.707,7.43a0.631,0.631,0,0,0,.608.319q5.537-.009,11.073,0A1.918,1.918,0,0,0,52.733,50.961ZM34.169,45.549a7.143,7.143,0,0,1-5.662-7.159,7.281,7.281,0,0,1,5.888-6.61c-0.209-.024-0.3-0.045-0.4-0.045-3.153,0-6.308-.055-9.458.025a6.366,6.366,0,0,0-3.863,1.456,6.847,6.847,0,0,0,2.88,12.167,10.077,10.077,0,0,0,1.718.16c2.836,0.022,5.672.021,8.509,0.026C33.912,45.571,34.041,45.557,34.169,45.549ZM33.392,17.023a7.768,7.768,0,0,1,6.224,7.768c-0.176,3.092-2.306,6.14-6.473,7.172,0.23,0.026.333,0.048,0.437,0.049,3.466,0,6.934.059,10.4-.027a7.052,7.052,0,0,0,4.246-1.58,7.269,7.269,0,0,0,2.77-7.543A7.389,7.389,0,0,0,45.057,17.2a11.221,11.221,0,0,0-1.888-.174C40.051,17,36.933,17.006,33.815,17,33.674,17,33.533,17.015,33.392,17.023ZM47.368,29.764c2.767,0.793,4.19,3.727,4.074,6.248A6.109,6.109,0,0,1,47.2,41.78a2.714,2.714,0,0,0,.286.039c2.269,0,4.538.048,6.806-.022a4.145,4.145,0,0,0,2.779-1.271,6.594,6.594,0,0,0,1.813-6.067A5.433,5.433,0,0,0,55,29.908a6.025,6.025,0,0,0-1.236-.14c-2.041-.019-4.081-0.018-6.122-0.023C47.552,29.745,47.46,29.757,47.368,29.764Z"/>
  <path id="人民日报媒体云" class="cls-1" d="M83.323,23.7L82,29.206h2.379l8.411,16.476-4.5.024L81.132,31.479q-3.7,9.563-10.578,14.344L70.578,40.9a30.78,30.78,0,0,0,8.458-17.2h4.288Zm30.226,0q2.827,0,2.827,3.141l-0.023,6.047h-5.207l0.966,2.766h4.806v3.094h-3.6l3.3,7.078h-4.406l-3.157-7.078H98.613v3.422a0.509,0.509,0,0,0,.589.563h4.476v3.094H97.529q-2.851,0-2.851-2.906V26.792q0-3.094,3.463-3.094h15.407Zm-5.678,11.953-1.13-2.766H98.613v2.766h9.258Zm2.144-8.859h-11.4v2.953h13.829V28.339q0-1.547-2.427-1.547h0Zm30.462,18.961H118.944V27.05q0.024-2.906,3.039-2.906h15.761q2.709,0,2.686,3.047V43.573Zm-6.337-9.375h-11.1v6.141h13.288V38.159q0-1.781-2.191-1.781h0Zm2.191-3.258V29.37q0-1.969-2.191-1.969h-11.1V33.12h13.288Zm12.3,11.93a2.217,2.217,0,0,1-1.7.773h-3.11V43.057h0.943a0.707,0.707,0,0,0,.848-0.7v-4.9l-2.545.68V34.55l2.545-.7V30.823a1.492,1.492,0,0,0-1.555-1.8h-0.895V25.971h2.45V23.7h3.628v2.273h1.508v3.047h-1.508V32.7l1.508-.492v3.586l-1.508.516V43.55a2.614,2.614,0,0,1-.613,1.5h0Zm6.031-20.883h7.021q2.874,0,2.874,2.7v2.367q0,1.43-1.743,1.43h-2.073V28.221a0.78,0.78,0,0,0-.9-0.867h-4.664v4.125h8.387q1.93,0.281,1.507,2.7l-3.156,6.211,3.392,5.438h-4l-1.414-2.133-0.8,1.617a2.579,2.579,0,0,1-1.554.516H151.5V27.261q0.093-3.094,3.156-3.094h0Zm0.519,10.359V35.7h3.109a1.252,1.252,0,0,1,1.084.68l0.377,0.563,1.131-2.414h-5.7Zm1.413,3.8a1.134,1.134,0,0,0-1.413-.609v7.57l2.733-4.992Zm10.649-8.578V26.721H167.9V23.932h3.346v2.789h1.272V23.932h3.393v2.789h0.612v3.023H175.91v8.2l-1.838,2.883,3.2,4.945h-4.052l-1.744-2.461a8.116,8.116,0,0,1-4.287,2.508l0.047-3.562a5.538,5.538,0,0,0,2.4-1.664L167.9,37.948v-8.2H167.24Zm5.277,0h-1.272v6.937l0.612,1.125,0.66-1.125V29.745ZM184.2,31.011H181.14v1.2l3.745-.024V31.6a0.565,0.565,0,0,0-.683-0.586h0Zm0.683-2.344V28.081a0.565,0.565,0,0,0-.683-0.586H181.14v1.172h3.745Zm-4.806,17.039-2.921.023,0.518-6.094h2.9Zm9.212-6.984h-4.406L184.862,45.8l-3.393-.047V40.526a1.552,1.552,0,0,0-1.672-1.8h-2.78v-2.7h4.5q0-1.312-1.956-1.312-1.979,0-1.979-2.508V27.495h-0.754V24.8h0.754V23.6h3.558v1.2h3.745V23.6h3.581v1.2H189.1v2.7h-0.637v4.9q0,2.32-1.908,2.32h-1.743l-0.024,1.313h4.5v2.7Zm-1.743.891a1.349,1.349,0,0,1,1.178.938l0.471,5.109h-2.922l-0.494-6.047h1.767Zm6.714-7.312,2.332,0.023V43.761q0,2.062-2.544,2.063h-1.272V33.636l-1.437.563-0.024-4.477q2.144-1.406,2.992-5.836h3.534q-0.871,5.625-3.581,8.414h0Zm8.458-4.148-1.084,11.016h1.885V28.386h-5.348V25.339h5.348V23.7h3.816v1.641h5.678v3.047h-5.678V39.167h1.955l-1.107-11.109,3.746,0.117,1.626,17.016h-3.652l-0.353-2.977h-2.215v3.633l-3.816-.023v-1.8q0-1.805-1.249-1.8h-0.966l-0.4,3-3.629-.023,1.814-17.039h3.629Zm33.877-4.2V27.19H216.36V23.956H236.6Zm0.825,9.586H226.373l-5.866,9.234h11.261a0.6,0.6,0,0,0,.659-0.891l-2.827-5.6h4.335l3.157,6.609q0.636,2.672-1.838,2.93H219.4q-3.629.047-3.157-3.844l5.466-8.437h-6.267V30.261h21.981v3.281Z"/>
</svg>
