<?xml version="1.0" encoding="utf-8"?>
<!-- Generator: Adobe Illustrator 22.0.1, SVG Export Plug-In . SVG Version: 6.00 Build 0)  -->
<svg version="1.1" id="图层_1" xmlns="http://www.w3.org/2000/svg" xmlns:xlink="http://www.w3.org/1999/xlink" x="0px" y="0px"
	 viewBox="0 0 48 48" style="enable-background:new 0 0 48 48;" xml:space="preserve">
<style type="text/css">
	.st0{filter:url(#Adobe_OpacityMaskFilter);}
	.st1{opacity:0.65;mask:url(#SVGID_1_);fill:url(#SVGID_2_);}
	.st2{fill:#C8DFF9;}
	.st3{fill:#0D7EF2;}
	.st4{opacity:0.75;fill:url(#SVGID_3_);}
	.st5{fill:#FFFFFF;}
</style>
<g>
	<defs>
		<filter id="Adobe_OpacityMaskFilter" filterUnits="userSpaceOnUse" x="2" y="1" width="44" height="33">
			<feFlood  style="flood-color:white;flood-opacity:1" result="back"/>
			<feBlend  in="SourceGraphic" in2="back" mode="normal"/>
		</filter>
	</defs>
	<mask maskUnits="userSpaceOnUse" x="2" y="1" width="44" height="33" id="SVGID_1_">
		<g class="st0">
		</g>
	</mask>
	<linearGradient id="SVGID_2_" gradientUnits="userSpaceOnUse" x1="24" y1="1" x2="24" y2="34">
		<stop  offset="0" style="stop-color:#FFFFFF;stop-opacity:0"/>
		<stop  offset="0.2164" style="stop-color:#C8E2FC;stop-opacity:0.1299"/>
		<stop  offset="0.7611" style="stop-color:#439BF5;stop-opacity:0.4566"/>
		<stop  offset="1" style="stop-color:#0D7EF2;stop-opacity:0.6"/>
	</linearGradient>
	<rect x="2" y="1" class="st1" width="44" height="33"/>
	<g>
		<ellipse class="st2" cx="24" cy="34" rx="22" ry="10"/>
		<path class="st3" d="M24,26c5.6,0,10.8,1,14.7,2.7C42,30.2,44,32.2,44,34s-2,3.8-5.3,5.3C34.8,41,29.6,42,24,42s-10.8-1-14.7-2.7
			C6,37.8,4,35.8,4,34s2-3.8,5.3-5.3C13.2,27,18.4,26,24,26 M24,24C11.8,24,2,28.5,2,34s9.8,10,22,10c12.2,0,22-4.5,22-10
			S36.2,24,24,24L24,24z"/>
	</g>
	<linearGradient id="SVGID_3_" gradientUnits="userSpaceOnUse" x1="24" y1="44" x2="24" y2="24">
		<stop  offset="0.299" style="stop-color:#0D7EF2;stop-opacity:0"/>
		<stop  offset="1" style="stop-color:#0D7EF2"/>
	</linearGradient>
	<ellipse class="st4" cx="24" cy="34" rx="22" ry="10"/>
	<g>
		<ellipse class="st5" cx="24" cy="22" rx="18" ry="8"/>
		<path class="st3" d="M24,16c9.8,0,16,3.6,16,6c0,1.2-1.6,2.7-4.1,3.8C32.8,27.2,28.5,28,24,28c-9.8,0-16-3.6-16-6
			c0-1.2,1.6-2.7,4.1-3.8C15.2,16.8,19.5,16,24,16 M24,14c-9.9,0-18,3.6-18,8s8.1,8,18,8s18-3.6,18-8S33.9,14,24,14L24,14z"/>
	</g>
	<g>
		<ellipse class="st2" cx="24" cy="11" rx="15" ry="7"/>
		<path class="st3" d="M24,6c7.9,0,13,3,13,5s-5.1,5-13,5s-13-3-13-5S16.1,6,24,6 M24,4C15.7,4,9,7.1,9,11s6.7,7,15,7s15-3.1,15-7
			S32.3,4,24,4L24,4z"/>
	</g>
	<g>
		<g>
			<circle class="st5" cx="13" cy="8" r="4"/>
			<path class="st3" d="M13,6c1.1,0,2,0.9,2,2s-0.9,2-2,2s-2-0.9-2-2S11.9,6,13,6 M13,4c-2.2,0-4,1.8-4,4c0,2.2,1.8,4,4,4
				c2.2,0,4-1.8,4-4C17,5.8,15.2,4,13,4L13,4z"/>
		</g>
		<g>
			<circle class="st5" cx="37" cy="26" r="4"/>
			<path class="st3" d="M37,24c1.1,0,2,0.9,2,2s-0.9,2-2,2s-2-0.9-2-2S35.9,24,37,24 M37,22c-2.2,0-4,1.8-4,4c0,2.2,1.8,4,4,4
				s4-1.8,4-4C41,23.8,39.2,22,37,22L37,22z"/>
		</g>
		<g>
			<circle class="st5" cx="9" cy="39" r="4"/>
			<path class="st3" d="M9,37c1.1,0,2,0.9,2,2s-0.9,2-2,2s-2-0.9-2-2S7.9,37,9,37 M9,35c-2.2,0-4,1.8-4,4c0,2.2,1.8,4,4,4s4-1.8,4-4
				C13,36.8,11.2,35,9,35L9,35z"/>
		</g>
	</g>
</g>
</svg>
