<?xml version="1.0" encoding="utf-8"?>
<!-- Generator: Adobe Illustrator 22.0.1, SVG Export Plug-In . SVG Version: 6.00 Build 0)  -->
<svg version="1.1" id="图层_1" xmlns="http://www.w3.org/2000/svg" xmlns:xlink="http://www.w3.org/1999/xlink" x="0px" y="0px"
	 viewBox="0 0 48 48" style="enable-background:new 0 0 48 48;" xml:space="preserve">
<style type="text/css">
	.st0{fill:#C8DFF9;}
	.st1{opacity:0.8;clip-path:url(#SVGID_2_);fill:url(#SVGID_3_);}
	.st2{fill:#0D7EF2;}
	.st3{fill:#FFFFFF;}
</style>
<g>
	<path class="st0" d="M40,44H8c-2.2,0-4-1.8-4-4V8c0-2.2,1.8-4,4-4h32c2.2,0,4,1.8,4,4v32C44,42.2,42.2,44,40,44z"/>
	<g>
		<defs>
			<path id="SVGID_1_" d="M40,44H8c-2.2,0-4-1.8-4-4V8c0-2.2,1.8-4,4-4h32c2.2,0,4,1.8,4,4v32C44,42.2,42.2,44,40,44z"/>
		</defs>
		<clipPath id="SVGID_2_">
			<use xlink:href="#SVGID_1_"  style="overflow:visible;"/>
		</clipPath>
		<linearGradient id="SVGID_3_" gradientUnits="userSpaceOnUse" x1="30.5177" y1="48.9072" x2="22.1295" y2="25.8609">
			<stop  offset="0" style="stop-color:#0D7EF2;stop-opacity:0"/>
			<stop  offset="0.8846" style="stop-color:#0D7EF2;stop-opacity:0.8846"/>
			<stop  offset="1" style="stop-color:#0D7EF2"/>
		</linearGradient>
		<polygon class="st1" points="4,37 19,27 23,31 44,18 44,44 4,44 		"/>
	</g>
	<path class="st2" d="M44,12H4V8c0-2.2,1.8-4,4-4h32c2.2,0,4,1.8,4,4V12z"/>
	<g>
		<circle class="st3" cx="4" cy="37" r="4"/>
		<path class="st2" d="M4,35c1.1,0,2,0.9,2,2s-0.9,2-2,2s-2-0.9-2-2S2.9,35,4,35 M4,33c-2.2,0-4,1.8-4,4s1.8,4,4,4s4-1.8,4-4
			S6.2,33,4,33L4,33z"/>
	</g>
	<g>
		<circle class="st3" cx="44" cy="18" r="4"/>
		<path class="st2" d="M44,16c1.1,0,2,0.9,2,2s-0.9,2-2,2s-2-0.9-2-2S42.9,16,44,16 M44,14c-2.2,0-4,1.8-4,4s1.8,4,4,4s4-1.8,4-4
			S46.2,14,44,14L44,14z"/>
	</g>
	<path class="st2" d="M7,36c-0.3,0-0.6-0.2-0.8-0.4c-0.3-0.5-0.2-1.1,0.3-1.4l12-8c0.4-0.3,0.9-0.2,1.3,0.1l3.4,3.4l17.3-10.6
		c0.5-0.3,1.1-0.1,1.4,0.3c0.3,0.5,0.1,1.1-0.3,1.4l-18,11c-0.4,0.2-0.9,0.2-1.2-0.1l-3.4-3.4L7.6,35.8C7.4,35.9,7.2,36,7,36z"/>
</g>
</svg>
