<?xml version="1.0" encoding="utf-8"?>
<!-- Generator: Adobe Illustrator 22.0.1, SVG Export Plug-In . SVG Version: 6.00 Build 0)  -->
<svg version="1.1" id="图层_1" xmlns="http://www.w3.org/2000/svg" xmlns:xlink="http://www.w3.org/1999/xlink" x="0px" y="0px"
	 viewBox="0 0 48 48" style="enable-background:new 0 0 48 48;" xml:space="preserve">
<style type="text/css">
	.st0{fill:#C8DFF9;}
	.st1{fill:#0D7EF2;}
	.st2{fill:url(#SVGID_1_);}
	.st3{fill:#FFFFFF;}
</style>
<g>
	<path class="st0" d="M27,43.9H5c-2.2,0-4-1.8-4-4v-32c0-2.2,1.8-4,4-4h22c2.2,0,4,1.8,4,4v32C31,42.1,29.2,43.9,27,43.9z"/>
	<g>
		<rect x="5" y="11.9" class="st1" width="14" height="2"/>
		<rect x="5" y="16.9" class="st1" width="14" height="2"/>
		<rect x="5" y="21.9" class="st1" width="8" height="2"/>
	</g>
	<linearGradient id="SVGID_1_" gradientUnits="userSpaceOnUse" x1="12.4834" y1="11.9138" x2="34.9088" y2="34.3392">
		<stop  offset="0.1873" style="stop-color:#0D7EF2;stop-opacity:0"/>
		<stop  offset="0.8918" style="stop-color:#0D7EF2;stop-opacity:0.8668"/>
		<stop  offset="1" style="stop-color:#0D7EF2"/>
	</linearGradient>
	<polygon class="st2" points="27.8,41.4 2.9,21.8 20.4,4 42.9,22.9 	"/>
	<g>
		<circle class="st3" cx="35" cy="31.9" r="12"/>
		<path class="st1" d="M35,21.9c5.5,0,10,4.5,10,10s-4.5,10-10,10s-10-4.5-10-10S29.5,21.9,35,21.9 M35,19.9c-6.6,0-12,5.4-12,12
			s5.4,12,12,12s12-5.4,12-12S41.6,19.9,35,19.9L35,19.9z"/>
	</g>
	<polygon class="st1" points="36,31.9 36,26.9 34,26.9 34,31.9 34,33.9 36,33.9 39,33.9 39,31.9 	"/>
</g>
</svg>
