<?xml version="1.0" encoding="utf-8"?>
<!-- Generator: Adobe Illustrator 22.0.1, SVG Export Plug-In . SVG Version: 6.00 Build 0)  -->
<svg version="1.1" id="图层_1" xmlns="http://www.w3.org/2000/svg" xmlns:xlink="http://www.w3.org/1999/xlink" x="0px" y="0px"
	 viewBox="0 0 48 48" style="enable-background:new 0 0 48 48;" xml:space="preserve">
<style type="text/css">
	.st0{fill:#C8DFF9;}
	.st1{fill:#0D7EF2;}
	.st2{filter:url(#Adobe_OpacityMaskFilter);}
	.st3{opacity:0.75;mask:url(#SVGID_1_);fill:url(#SVGID_2_);}
	.st4{filter:url(#Adobe_OpacityMaskFilter_1_);}
	.st5{opacity:0.3;mask:url(#SVGID_3_);fill:url(#SVGID_4_);}
	.st6{fill:url(#SVGID_5_);}
	.st7{fill:url(#SVGID_6_);}
	.st8{fill:url(#SVGID_7_);}
	.st9{fill:url(#SVGID_8_);}
</style>
<g>
	<g>
		<g>
			<path class="st0" d="M0,12.6v24.8C0,38.8,1.2,40,2.6,40H10V10H2.6C1.2,10,0,11.2,0,12.6z"/>
			<path class="st0" d="M45.4,10H38v30h7.4c1.4,0,2.6-1.2,2.6-2.6V12.6C48,11.2,46.8,10,45.4,10z"/>
		</g>
		<path class="st1" d="M34,6c1.1,0,2,0.9,2,2v32c0,1.1-0.9,2-2,2H14c-1.1,0-2-0.9-2-2V8c0-1.1,0.9-2,2-2H34 M34,4H14
			c-2.2,0-4,1.8-4,4v32c0,2.2,1.8,4,4,4h20c2.2,0,4-1.8,4-4V8C38,5.8,36.2,4,34,4L34,4z"/>
	</g>
	<defs>
		<filter id="Adobe_OpacityMaskFilter" filterUnits="userSpaceOnUse" x="16" y="15" width="16" height="14">
			<feFlood  style="flood-color:white;flood-opacity:1" result="back"/>
			<feBlend  in="SourceGraphic" in2="back" mode="normal"/>
		</filter>
	</defs>
	<mask maskUnits="userSpaceOnUse" x="16" y="15" width="16" height="14" id="SVGID_1_">
		<g class="st2">
		</g>
	</mask>
	<linearGradient id="SVGID_2_" gradientUnits="userSpaceOnUse" x1="24" y1="29" x2="24" y2="15">
		<stop  offset="0.7343" style="stop-color:#FFFFFF;stop-opacity:0"/>
		<stop  offset="0.7918" style="stop-color:#C8E2FC;stop-opacity:0.2164"/>
		<stop  offset="0.9365" style="stop-color:#439BF5;stop-opacity:0.7611"/>
		<stop  offset="1" style="stop-color:#0D7EF2"/>
	</linearGradient>
	<rect x="16" y="15" class="st3" width="16" height="14"/>
	<defs>
		<filter id="Adobe_OpacityMaskFilter_1_" filterUnits="userSpaceOnUse" x="16" y="20" width="16" height="14">
			<feFlood  style="flood-color:white;flood-opacity:1" result="back"/>
			<feBlend  in="SourceGraphic" in2="back" mode="normal"/>
		</filter>
	</defs>
	<mask maskUnits="userSpaceOnUse" x="16" y="20" width="16" height="14" id="SVGID_3_">
		<g class="st4">
		</g>
	</mask>
	<linearGradient id="SVGID_4_" gradientUnits="userSpaceOnUse" x1="24" y1="34" x2="24" y2="20">
		<stop  offset="0.3731" style="stop-color:#FFFFFF;stop-opacity:0"/>
		<stop  offset="0.5088" style="stop-color:#C8E2FC;stop-opacity:0.2164"/>
		<stop  offset="0.8502" style="stop-color:#439BF5;stop-opacity:0.7611"/>
		<stop  offset="1" style="stop-color:#0D7EF2"/>
	</linearGradient>
	<rect x="16" y="20" class="st5" width="16" height="14"/>
	<g>
		<g>
			<rect x="16" y="13" class="st1" width="16" height="2"/>
		</g>
		<g>
			<rect x="16" y="18" class="st1" width="16" height="2"/>
		</g>
	</g>
	<g>
		<circle class="st0" cx="24" cy="33" r="6"/>
		<path class="st1" d="M24,29c2.2,0,4,1.8,4,4s-1.8,4-4,4s-4-1.8-4-4S21.8,29,24,29 M24,27c-3.3,0-6,2.7-6,6s2.7,6,6,6s6-2.7,6-6
			S27.3,27,24,27L24,27z"/>
	</g>
	<g>
		<g>
			<linearGradient id="SVGID_5_" gradientUnits="userSpaceOnUse" x1="44" y1="18" x2="38" y2="18">
				<stop  offset="0" style="stop-color:#0D7EF2;stop-opacity:0"/>
				<stop  offset="1" style="stop-color:#0D7EF2;stop-opacity:0.8"/>
			</linearGradient>
			<rect x="38" y="17" class="st6" width="6" height="2"/>
		</g>
		<g>
			<linearGradient id="SVGID_6_" gradientUnits="userSpaceOnUse" x1="44" y1="22" x2="38" y2="22">
				<stop  offset="0" style="stop-color:#0D7EF2;stop-opacity:0"/>
				<stop  offset="1" style="stop-color:#0D7EF2;stop-opacity:0.8"/>
			</linearGradient>
			<rect x="38" y="21" class="st7" width="6" height="2"/>
		</g>
	</g>
	<g>
		<g>
			
				<linearGradient id="SVGID_7_" gradientUnits="userSpaceOnUse" x1="100" y1="18" x2="94" y2="18" gradientTransform="matrix(-1 0 0 1 104 0)">
				<stop  offset="0" style="stop-color:#0D7EF2;stop-opacity:0"/>
				<stop  offset="1" style="stop-color:#0D7EF2;stop-opacity:0.8"/>
			</linearGradient>
			<rect x="4" y="17" class="st8" width="6" height="2"/>
		</g>
		<g>
			
				<linearGradient id="SVGID_8_" gradientUnits="userSpaceOnUse" x1="100" y1="22" x2="94" y2="22" gradientTransform="matrix(-1 0 0 1 104 0)">
				<stop  offset="0" style="stop-color:#0D7EF2;stop-opacity:0"/>
				<stop  offset="1" style="stop-color:#0D7EF2;stop-opacity:0.8"/>
			</linearGradient>
			<rect x="4" y="21" class="st9" width="6" height="2"/>
		</g>
	</g>
</g>
</svg>
