<svg xmlns="http://www.w3.org/2000/svg" width="16" height="16" viewBox="0 0 16 16">
  <metadata><?xpacket begin="﻿" id="W5M0MpCehiHzreSzNTczkc9d"?>
<x:xmpmeta xmlns:x="adobe:ns:meta/" x:xmptk="Adobe XMP Core 5.6-c140 79.160451, 2017/05/06-01:08:21        ">
   <rdf:RDF xmlns:rdf="http://www.w3.org/1999/02/22-rdf-syntax-ns#">
      <rdf:Description rdf:about=""/>
   </rdf:RDF>
</x:xmpmeta>
                                                                                                    
                                                                                                    
                                                                                                    
                                                                                                    
                                                                                                    
                                                                                                    
                                                                                                    
                                                                                                    
                                                                                                    
                                                                                                    
                                                                                                    
                                                                                                    
                                                                                                    
                                                                                                    
                                                                                                    
                                                                                                    
                                                                                                    
                                                                                                    
                                                                                                    
                                                                                                    
                           
<?xpacket end="w"?></metadata>
<defs>
    <style>
      .cls-1 {
        fill: #666;
        fill-rule: evenodd;
      }
    </style>
  </defs>
  <path id="形状_1367" data-name="形状 1367" class="cls-1" d="M5.761,4.822h4.474V5.529H5.761V4.822Zm0,1.413h4.474V6.942H5.761V6.235Zm1.531,4.239A0.706,0.706,0,1,0,8,9.767a0.706,0.706,0,0,0-.707.707h0ZM8-.005A8.015,8.015,0,0,0-.008,8,8.092,8.092,0,0,0,8,16.008,8.092,8.092,0,0,0,16.005,8,8.015,8.015,0,0,0,8-.005ZM11.06,12.829h-6V3.88a0.76,0.76,0,0,1,.706-0.706h4.592a0.76,0.76,0,0,1,.706.706v8.948Z"/>
</svg>
