<?xml version="1.0" encoding="utf-8"?>
<!-- Generator: Adobe Illustrator 22.0.1, SVG Export Plug-In . SVG Version: 6.00 Build 0)  -->
<svg version="1.1" id="图层_1" xmlns="http://www.w3.org/2000/svg" xmlns:xlink="http://www.w3.org/1999/xlink" x="0px" y="0px"
	 viewBox="0 0 48 48" style="enable-background:new 0 0 48 48;" xml:space="preserve">
<style type="text/css">
	.st0{fill:#C8DFF9;}
	.st1{opacity:0.7;}
	.st2{clip-path:url(#SVGID_2_);fill:url(#SVGID_3_);}
	.st3{fill:#0D7EF2;}
	.st4{fill:#FFFFFF;}
</style>
<g>
	<path class="st0" d="M21,44l-0.5-0.3C3.5,37.2,2.1,23.7,2,23.1V4.3L21,4l19,0.3v18.8c0,0.5-1.5,14.1-18.4,20.6
		C21.6,43.8,21,44,21,44z"/>
	<g class="st1">
		<defs>
			<path id="SVGID_1_" class="st1" d="M21,44l-0.5-0.3C3.5,37.2,2.1,23.7,2,23.1V4.3L21,4l19,0.3v18.8c0,0.5-1.5,14.1-18.4,20.6
				C21.6,43.8,21,44,21,44z"/>
		</defs>
		<clipPath id="SVGID_2_">
			<use xlink:href="#SVGID_1_"  style="overflow:visible;"/>
		</clipPath>
		<linearGradient id="SVGID_3_" gradientUnits="userSpaceOnUse" x1="26.5" y1="44" x2="26.5" y2="14">
			<stop  offset="0.5082" style="stop-color:#0D7EF2;stop-opacity:0"/>
			<stop  offset="1" style="stop-color:#0D7EF2"/>
		</linearGradient>
		<path class="st2" d="M40,44H13V21c0-3.9,3.1-7,7-7h20V44z"/>
	</g>
	<path class="st3" d="M22,43h-8c-2.2,0-4-1.8-4-4v0c0-2.2,1.8-4,4-4h8c2.2,0,4,1.8,4,4v0C26,41.2,24.2,43,22,43z"/>
	<g>
		<path class="st4" d="M42,19h-8c-2.2,0-4-1.8-4-4v0c0-2.2,1.8-4,4-4h8c2.2,0,4,1.8,4,4v0C46,17.2,44.2,19,42,19z"/>
		<path class="st3" d="M42,13c1.1,0,2,0.9,2,2s-0.9,2-2,2h-8c-1.1,0-2-0.9-2-2s0.9-2,2-2H42 M42,11h-8c-2.2,0-4,1.8-4,4s1.8,4,4,4h8
			c2.2,0,4-1.8,4-4S44.2,11,42,11L42,11z"/>
	</g>
	<path class="st3" d="M31,28H20c-3.9,0-7-3.1-7-7s3.1-7,7-7h11v2H20c-2.8,0-5,2.2-5,5s2.2,5,5,5h11V28z"/>
	<path class="st3" d="M36,40H25v-2h11c2.8,0,5-2.2,5-5s-2.2-5-5-5H26v-2h10c3.9,0,7,3.1,7,7S39.9,40,36,40z"/>
</g>
</svg>
