<?xml version="1.0" encoding="utf-8"?>
<!-- Generator: Adobe Illustrator 22.0.1, SVG Export Plug-In . SVG Version: 6.00 Build 0)  -->
<svg version="1.1" id="图层_1" xmlns="http://www.w3.org/2000/svg" xmlns:xlink="http://www.w3.org/1999/xlink" x="0px" y="0px"
	 viewBox="0 0 48 48" style="enable-background:new 0 0 48 48;" xml:space="preserve">
<style type="text/css">
	.st0{fill:url(#SVGID_1_);}
	.st1{fill:url(#SVGID_2_);}
	.st2{fill:#0D7EF2;}
	.st3{fill:url(#SVGID_3_);}
	.st4{fill:url(#SVGID_4_);}
	.st5{fill:#FFFFFF;}
</style>
<g>
	<g>
		<linearGradient id="SVGID_1_" gradientUnits="userSpaceOnUse" x1="4.9443" y1="35.0018" x2="43.0557" y2="12.9982">
			<stop  offset="0" style="stop-color:#C8DFF9"/>
			<stop  offset="1" style="stop-color:#C8DFF9;stop-opacity:0.1"/>
		</linearGradient>
		<circle class="st0" cx="24" cy="24" r="22"/>
	</g>
	<g>
		<linearGradient id="SVGID_2_" gradientUnits="userSpaceOnUse" x1="24" y1="24" x2="24" y2="46">
			<stop  offset="0" style="stop-color:#0D7EF2"/>
			<stop  offset="1" style="stop-color:#C8DFF9;stop-opacity:0.1"/>
		</linearGradient>
		<path class="st1" d="M24,32c-12.2,0-22-3.6-22-8c0,12.2,9.8,22,22,22s22-9.8,22-22C46,28.4,36.2,32,24,32z"/>
	</g>
	<path class="st2" d="M24,46C11.9,46,2,36.1,2,24S11.9,2,24,2c0.6,0,1,0.4,1,1s-0.4,1-1,1C13,4,4,13,4,24c0,11,9,20,20,20
		s20-9,20-20c0-0.6,0.4-1,1-1s1,0.4,1,1C46,36.1,36.1,46,24,46z"/>
	<path class="st2" d="M44,18.6c-0.4,0-0.8-0.2-0.9-0.6l0-0.1c-0.1-0.3-0.2-0.5-0.3-0.8c-0.2-0.5,0.1-1.1,0.6-1.3
		c0.5-0.2,1.1,0.1,1.3,0.6c0.1,0.3,0.2,0.6,0.3,0.9c0.2,0.5-0.1,1.1-0.6,1.3C44.2,18.6,44.1,18.6,44,18.6z"/>
	<path class="st2" d="M42,14.2c-0.3,0-0.7-0.2-0.9-0.5c-0.1-0.2-0.2-0.3-0.3-0.5c-0.3-0.5-0.2-1.1,0.3-1.4s1.1-0.2,1.4,0.3
		c0.1,0.2,0.2,0.4,0.3,0.6c0.3,0.5,0.1,1.1-0.3,1.4C42.3,14.1,42.2,14.2,42,14.2z"/>
	<linearGradient id="SVGID_3_" gradientUnits="userSpaceOnUse" x1="32" y1="24" x2="16" y2="24">
		<stop  offset="0" style="stop-color:#0D7EF2;stop-opacity:0.1"/>
		<stop  offset="0.1375" style="stop-color:#0D7EF2;stop-opacity:0.2238"/>
		<stop  offset="1" style="stop-color:#0D7EF2"/>
	</linearGradient>
	<path class="st3" d="M24,4c1,0,2.5,1.6,3.8,5.1C29.2,13.1,30,18.4,30,24c0,12-3.6,20-6,20c-1,0-2.5-1.6-3.8-5.1
		C18.8,34.9,18,29.6,18,24C18,12,21.6,4,24,4 M24,2c-4.4,0-8,9.8-8,22s3.6,22,8,22c4.4,0,8-9.8,8-22S28.4,2,24,2L24,2z"/>
	<linearGradient id="SVGID_4_" gradientUnits="userSpaceOnUse" x1="24" y1="16" x2="24" y2="32">
		<stop  offset="0" style="stop-color:#0D7EF2;stop-opacity:0.1"/>
		<stop  offset="0.1375" style="stop-color:#0D7EF2;stop-opacity:0.2238"/>
		<stop  offset="1" style="stop-color:#0D7EF2"/>
	</linearGradient>
	<path class="st4" d="M24,18c12,0,20,3.6,20,6c0,1-1.6,2.5-5.1,3.8C34.9,29.2,29.6,30,24,30c-12,0-20-3.6-20-6c0-1,1.6-2.5,5.1-3.8
		C13.1,18.8,18.4,18,24,18 M24,16c-12.2,0-22,3.6-22,8s9.8,8,22,8c12.2,0,22-3.6,22-8S36.2,16,24,16L24,16z"/>
	<g>
		<circle class="st5" cx="31" cy="30" r="4"/>
		<path class="st2" d="M31,28c1.1,0,2,0.9,2,2s-0.9,2-2,2s-2-0.9-2-2S29.9,28,31,28 M31,26c-2.2,0-4,1.8-4,4s1.8,4,4,4s4-1.8,4-4
			S33.2,26,31,26L31,26z"/>
	</g>
</g>
</svg>
