<svg xmlns="http://www.w3.org/2000/svg" width="40" height="40" viewBox="0 0 40 40">
  <metadata><?xpacket begin="﻿" id="W5M0MpCehiHzreSzNTczkc9d"?>
<x:xmpmeta xmlns:x="adobe:ns:meta/" x:xmptk="Adobe XMP Core 5.6-c140 79.160451, 2017/05/06-01:08:21        ">
   <rdf:RDF xmlns:rdf="http://www.w3.org/1999/02/22-rdf-syntax-ns#">
      <rdf:Description rdf:about=""/>
   </rdf:RDF>
</x:xmpmeta>
                                                                                                    
                                                                                                    
                                                                                                    
                                                                                                    
                                                                                                    
                                                                                                    
                                                                                                    
                                                                                                    
                                                                                                    
                                                                                                    
                                                                                                    
                                                                                                    
                                                                                                    
                                                                                                    
                                                                                                    
                                                                                                    
                                                                                                    
                                                                                                    
                                                                                                    
                                                                                                    
                           
<?xpacket end="w"?></metadata>
<defs>
    <style>
      .cls-1 {
        fill: #4b7de1;
      }

      .cls-2 {
        fill: #fff;
        fill-rule: evenodd;
      }
    </style>
  </defs>
  <circle id="椭圆_1030" data-name="椭圆 1030" class="cls-1" cx="20" cy="20" r="20"/>
  <path id="矩形_975_拷贝" data-name="矩形 975 拷贝" class="cls-2" d="M24.74,27.965V28H15.26V27.964a5.829,5.829,0,0,1-1-11.416,5.888,5.888,0,0,1,11.472.024A5.815,5.815,0,0,1,24.74,27.965ZM24.1,18.342c-0.1,0-.2.013-0.3,0.021a3.7,3.7,0,0,0,.052-0.508,3.861,3.861,0,0,0-7.388-1.511A5.873,5.873,0,0,1,21.7,21.158h1.629a1,1,0,1,1,0,2H20.781v0l-0.013,0a1.015,1.015,0,0,1-1.029-1h0s0-.009,0-0.013a3.841,3.841,0,1,0-4.479,3.737V25.869h1.45a5.777,5.777,0,0,1-1.346-3.711c0-.067.018-0.13,0.02-0.2v0.1a1.036,1.036,0,0,1,2.063.1h0a3.813,3.813,0,0,0,3.061,3.71H24.74v0.015A3.794,3.794,0,0,0,24.1,18.342Zm3.078,3.894V22.08c0,0.027.008,0.052,0.008,0.078S27.18,22.21,27.18,22.236Zm-5.9-5.921,0.016,0H21.26Z"/>
</svg>
