<?xml version="1.0" encoding="utf-8"?>
<!-- Generator: Adobe Illustrator 22.0.1, SVG Export Plug-In . SVG Version: 6.00 Build 0)  -->
<svg version="1.1" id="图层_1" xmlns="http://www.w3.org/2000/svg" xmlns:xlink="http://www.w3.org/1999/xlink" x="0px" y="0px"
	 viewBox="0 0 48 48" style="enable-background:new 0 0 48 48;" xml:space="preserve">
<style type="text/css">
	.st0{fill:#E4ECFB;}
	.st1{fill:#4B7DE1;}
</style>
<g>
	<polygon class="st0" points="45,4 3,4 0,12 0,13 48,13 48,12 	"/>
</g>
<path class="st1" d="M45,4H3l-3,8v1v31h48V13v-1L45,4z M47,43H1V13h46V43z M1,12l2.7-7h40.6l2.7,7H1z"/>
<g>
	<g>
		<path class="st1" d="M8,9h8V8H8V9z M27,9h1V8h-1V9z M31,9h1V8h-1V9z M35,9h1V8h-1V9z M39,8v1h1V8H39z"/>
	</g>
</g>
<path class="st0" d="M34.1,19.3c-0.4-0.4-1-0.6-1.6-0.6c-0.1,0-0.1,0-0.2,0c0,0-0.3,0-0.6,0c-0.6,0-1.8,0-2.9-0.3
	c-1-0.2-2.2-1.1-3-1.7c-0.3-0.2-0.5-0.3-0.6-0.4l0,0C24.9,16.1,24.4,16,24,16c-0.5,0-0.9,0.1-1.3,0.4c-0.1,0-0.1,0.1-0.2,0.2
	c-1.6,1.4-2.8,1.9-3.3,2c-1.2,0.3-2.4,0.3-2.9,0.3c-0.4,0-0.6,0-0.6,0c-0.1,0-0.1,0-0.2,0c-0.6,0-1.2,0.2-1.6,0.6
	c-0.5,0.4-0.8,1-0.8,1.7v3.5c0,3.1,0.5,5.8,1.5,8.1c0.8,1.9,2,3.5,3.5,4.7c2.6,2.2,5.1,2.6,5.4,2.7c0.1,0,0.3,0,0.4,0s0.3,0,0.4,0
	c0.3,0,2.9-0.5,5.5-2.7c1.5-1.3,2.7-2.8,3.5-4.7c1-2.3,1.6-5,1.6-8.1V21C34.9,20.4,34.6,19.7,34.1,19.3z"/>
<g>
	<path class="st1" d="M24,17c0.3,0,0.5,0.1,0.8,0.2l0,0c0.1,0.1,0.3,0.2,0.5,0.4c0.8,0.6,2.1,1.6,3.3,1.9c1.2,0.3,2.5,0.3,3.1,0.3
		c0.4,0,0.6,0,0.7,0h0.1c0.4,0,0.7,0.1,0.9,0.3c0.3,0.2,0.4,0.6,0.4,0.9v3.5c0,2.9-0.5,5.5-1.5,7.7c-0.8,1.7-1.9,3.2-3.2,4.4
		c-2.4,2-4.9,2.4-5,2.5c-0.1,0-0.2,0-0.2,0c-0.1,0-0.2,0-0.2,0c-0.1,0-2.6-0.4-4.9-2.5c-1.4-1.2-2.4-2.6-3.2-4.4
		c-1-2.2-1.5-4.7-1.5-7.7V21c0-0.3,0.2-0.7,0.4-0.9c0.3-0.2,0.6-0.3,0.9-0.3l0,0l0,0c0.1,0,0.4,0,0.7,0c0.5,0,1.9,0,3.2-0.3
		c0.8-0.2,2-0.7,3.7-2.2c0,0,0,0,0.1-0.1C23.4,17.1,23.7,17,24,17 M24,16c-0.5,0-0.9,0.1-1.3,0.4c-0.1,0-0.1,0.1-0.2,0.2
		c-1.6,1.4-2.8,1.9-3.3,2c-1.2,0.3-2.4,0.3-2.9,0.3c-0.4,0-0.6,0-0.6,0c-0.1,0-0.1,0-0.2,0c-0.6,0-1.2,0.2-1.6,0.6
		c-0.5,0.4-0.8,1-0.8,1.7v3.5c0,3.1,0.5,5.8,1.5,8.1c0.8,1.9,2,3.5,3.5,4.7c2.6,2.2,5.1,2.6,5.4,2.7c0.1,0,0.3,0,0.4,0s0.3,0,0.4,0
		c0.3,0,2.9-0.5,5.5-2.7c1.5-1.3,2.7-2.8,3.5-4.7c1-2.3,1.6-5,1.6-8.1V21c0-0.6-0.3-1.3-0.8-1.7c-0.4-0.4-1-0.6-1.6-0.6
		c-0.1,0-0.1,0-0.2,0c0,0-0.3,0-0.6,0c-0.6,0-1.8,0-2.9-0.3c-1-0.2-2.2-1.1-3-1.7c-0.3-0.2-0.5-0.3-0.6-0.4l0,0
		C24.9,16.1,24.4,16,24,16L24,16z"/>
</g>
<polygon class="st1" points="28.2,27.5 24.5,27.5 24.5,23.8 23.5,23.8 23.5,27.5 19.8,27.5 19.8,28.5 23.5,28.5 23.5,32.2 
	24.5,32.2 24.5,28.5 28.2,28.5 "/>
</svg>
