<?xml version="1.0" encoding="utf-8"?>
<!-- Generator: Adobe Illustrator 22.0.1, SVG Export Plug-In . SVG Version: 6.00 Build 0)  -->
<svg version="1.1" id="icon" xmlns="http://www.w3.org/2000/svg" xmlns:xlink="http://www.w3.org/1999/xlink" x="0px" y="0px"
	 viewBox="0 0 48 48" style="enable-background:new 0 0 48 48;" xml:space="preserve">
<style type="text/css">
	.st0{fill:#E4ECFB;}
	.st1{fill:#4B7DE1;}
</style>
<path class="st0" d="M36,20.1c0,2.8-2.2,5-5,5H17c-2.8,0-5-2.2-5-5s2.2-5,5-5c0-2.2,1.8-4,4-4c0.4,0,0.8,0.1,1.1,0.2
	c1-1.3,2.6-2.2,4.4-2.2c3,0,5.5,2.5,5.5,5.5c0,0.2,0,0.4-0.1,0.6C34.3,15.6,36,17.6,36,20.1z"/>
<g>
	<rect x="9" y="36" class="st1" width="6" height="1"/>
	<rect x="17" y="36" class="st1" width="2" height="1"/>
	<path class="st1" d="M44,36.5c0,0-0.1-0.9-0.2-1.3L38,4H10L4.2,35.2C4.1,35.6,4,36.5,4,36.5c0,0.2,0,0.3,0,0.5c0,3.9,3.1,7,7,7h26
		c3.9,0,7-3.1,7-7C44,36.8,44,36.7,44,36.5z M10.8,5h26.3l5,27.3c-1.2-1.4-3-2.3-5.1-2.3H11c-2.1,0-3.9,0.9-5.2,2.3L10.8,5z M37,43
		H11c-3.3,0-6-2.7-6-6s2.7-6,6-6h26c3.3,0,6,2.7,6,6S40.3,43,37,43z"/>
	<path class="st1" d="M17,25.1h14c2.8,0,5-2.2,5-5c0-2.4-1.7-4.5-4.1-4.9c0-0.2,0.1-0.4,0.1-0.6c0-3-2.5-5.5-5.5-5.5
		c-1.8,0-3.4,0.9-4.4,2.2c-0.4-0.1-0.7-0.2-1.1-0.2c-2.2,0-4,1.8-4,4c-2.8,0-5,2.2-5,5C12,22.8,14.2,25.1,17,25.1z M17,16.1h1v-1
		c0-1.7,1.3-3,3-3c0.3,0,0.5,0,0.9,0.1l0.7,0.2l0.4-0.6c0.9-1.1,2.2-1.8,3.6-1.8c2.5,0,4.5,2,4.5,4.5c0,0.1,0,0.2,0,0.3s0,0.1,0,0.2
		l-0.3,1l0.9,0.2c1.9,0.4,3.2,2,3.2,3.9c0,2.2-1.8,4-4,4H17c-2.2,0-4-1.8-4-4S14.8,16.1,17,16.1z"/>
</g>
</svg>
