<?xml version="1.0" encoding="utf-8"?>
<!-- Generator: Adobe Illustrator 22.0.1, SVG Export Plug-In . SVG Version: 6.00 Build 0)  -->
<svg version="1.1" id="icon" xmlns="http://www.w3.org/2000/svg" xmlns:xlink="http://www.w3.org/1999/xlink" x="0px" y="0px"
	 viewBox="0 0 48 48" style="enable-background:new 0 0 48 48;" xml:space="preserve">
<style type="text/css">
	.st0{fill:#E4ECFB;}
	.st1{fill:#4B7DE1;}
	.st2{fill:#FFFFFF;}
	.st3{fill:none;stroke:#4B7DE1;stroke-miterlimit:10;}
</style>
<path class="st0" d="M48,33c0-4.2-2.6-7.7-6.2-9.2c0.1-0.6,0.2-1.2,0.2-1.9C42,15.3,36.7,10,30.1,10c-5.5,0-10.1,3.8-11.5,8.9
	c-1.4-2.2-3.9-3.7-6.7-3.7c-4.3,0-7.9,3.5-7.9,7.9c0,0.1,0,0.2,0,0.4C1.6,25.4,0,28.5,0,32c0,5.9,4.7,10.8,10.6,11v0h27.6v0
	C43.6,42.9,48,38.5,48,33z"/>
<g>
	<path class="st1" d="M30.1,11c6,0,10.9,4.9,10.9,10.9c0,0.5,0,1.1-0.2,1.7l-0.1,0.8l0.7,0.3c3.4,1.4,5.6,4.7,5.6,8.3
		c0,4.9-4,8.9-8.8,9l-0.3,0H11.2l-0.5,0C5.2,41.8,1,37.4,1,32c0-3.1,1.4-5.9,3.8-7.8l0.4-0.3l0-0.5l0-0.2c0-0.1,0-0.1,0-0.2
		c0-3.8,3.1-6.9,6.9-6.9c2.4,0,4.6,1.2,5.8,3.3l1.2,2l0.6-2.3C20.9,14.3,25.2,11,30.1,11 M30.1,10c-5.5,0-10.1,3.8-11.5,8.9
		c-1.4-2.2-3.9-3.7-6.7-3.7c-4.3,0-7.9,3.5-7.9,7.9c0,0.1,0,0.2,0,0.4C1.6,25.4,0,28.5,0,32c0,5.9,4.7,10.8,10.6,11v0h27.6v0
		c5.4-0.1,9.8-4.5,9.8-10c0-4.2-2.6-7.7-6.2-9.2c0.1-0.6,0.2-1.2,0.2-1.9C42,15.3,36.7,10,30.1,10L30.1,10z"/>
</g>
<g>
	<g>
		<polygon class="st2" points="10,5 10,33 38,33 38,11.4 31.6,5 		"/>
	</g>
	<g>
		<path class="st1" d="M31.2,6l5.9,5.9V32H11V6H31.2 M31.6,5H10v28h28V11.4L31.6,5L31.6,5z"/>
	</g>
	<g>
		<path class="st1" d="M32.9,22.1V32H15.1v-9.9H32.9 M33.9,21.1H14.1V33h19.8V21.1L33.9,21.1z"/>
	</g>
	<rect x="18.1" y="5" class="st0" width="11.9" height="7.9"/>
	<g>
		<path class="st1" d="M29,6v5.9h-9.9V6H29 M30,5H18.1v7.9H30V5L30,5z"/>
	</g>
	<line class="st3" x1="25.6" y1="5" x2="25.6" y2="12.9"/>
</g>
</svg>
