<?xml version="1.0" standalone="no"?><!DOCTYPE svg PUBLIC "-//W3C//DTD SVG 1.1//EN" "http://www.w3.org/Graphics/SVG/1.1/DTD/svg11.dtd"><svg t="1536046539853" class="icon" style="" viewBox="0 0 1024 1024" version="1.1" xmlns="http://www.w3.org/2000/svg" p-id="2874" xmlns:xlink="http://www.w3.org/1999/xlink" width="200" height="200"><defs><style type="text/css"></style></defs><path d="M509.866667 509.866667m-313.6 0a313.6 313.6 0 1 0 627.2 0 313.6 313.6 0 1 0-627.2 0Z" fill="#E4ECFB" p-id="2875"></path><path d="M578.133333 64C571.733333 34.133333 544 10.666667 512 10.666667c-36.266667 0-66.133333 29.866667-66.133333 66.133333 0 36.266667 29.866667 66.133333 66.133333 66.133333 34.133333 0 61.866667-25.6 66.133333-59.733333 206.933333 32 366.933333 211.2 366.933334 426.666667 0 123.733333-51.2 234.666667-134.4 313.6l12.8 17.066666c87.466667-83.2 142.933333-200.533333 142.933333-330.666666 0-226.133333-170.666667-413.866667-388.266667-445.866667zM512 123.733333c-25.6 0-44.8-21.333333-44.8-44.8s21.333333-44.8 44.8-44.8c25.6 0 44.8 21.333333 44.8 44.8s-19.2 44.8-44.8 44.8zM512 878.933333c-34.133333 0-61.866667 25.6-66.133333 59.733334-206.933333-32-366.933333-211.2-366.933334-426.666667 0-117.333333 46.933333-226.133333 125.866667-302.933333L192 189.866667C108.8 273.066667 57.6 386.133333 57.6 512c0 228.266667 168.533333 416 388.266667 448 6.4 29.866667 34.133333 53.333333 66.133333 53.333333 36.266667 0 66.133333-29.866667 66.133333-66.133333 0-38.4-29.866667-68.266667-66.133333-68.266667z m0 113.066667c-25.6 0-44.8-21.333333-44.8-44.8 0-25.6 21.333333-44.8 44.8-44.8 25.6 0 44.8 21.333333 44.8 44.8s-19.2 44.8-44.8 44.8z" fill="#4B7DE1" p-id="2876"></path><path d="M736 296.533333l-14.933333-14.933333c-55.466667 40.533333-130.133333 66.133333-211.2 66.133333-81.066667 0-155.733333-25.6-211.2-66.133333l-14.933334 14.933333c59.733333 44.8 138.666667 72.533333 226.133334 72.533334 87.466667 2.133333 166.4-27.733333 226.133333-72.533334zM509.866667 650.666667c-89.6 0-168.533333 27.733333-228.266667 74.666666l14.933333 14.933334c55.466667-42.666667 130.133333-68.266667 213.333334-68.266667 83.2 0 157.866667 25.6 213.333333 68.266667l14.933333-14.933334c-59.733333-46.933333-140.8-74.666667-228.266666-74.666666zM204.8 499.2h608v21.333333H204.8z" fill="#4B7DE1" p-id="2877"></path><path d="M494.933333 200.533333c66.133333 70.4 108.8 183.466667 108.8 309.333334 0 130.133333-44.8 243.2-110.933333 313.6h27.733333c64-74.666667 104.533333-187.733333 104.533334-313.6 0-123.733333-38.4-234.666667-100.266667-309.333334h-14.933333c-4.266667-2.133333-8.533333 0-14.933334 0z" fill="#4B7DE1" p-id="2878"></path><path d="M420.266667 509.866667c0-128 42.666667-238.933333 106.666666-309.333334h-27.733333c-61.866667 74.666667-100.266667 185.6-100.266667 311.466667s40.533333 238.933333 104.533334 313.6h6.4c6.4 0 14.933333 0 21.333333-2.133333-66.133333-70.4-110.933333-183.466667-110.933333-313.6z" fill="#4B7DE1" p-id="2879"></path></svg>