<svg xmlns="http://www.w3.org/2000/svg" width="18" height="18" viewBox="0 0 18 18">
  <metadata><?xpacket begin="﻿" id="W5M0MpCehiHzreSzNTczkc9d"?>
<x:xmpmeta xmlns:x="adobe:ns:meta/" x:xmptk="Adobe XMP Core 5.6-c140 79.160451, 2017/05/06-01:08:21        ">
   <rdf:RDF xmlns:rdf="http://www.w3.org/1999/02/22-rdf-syntax-ns#">
      <rdf:Description rdf:about=""/>
   </rdf:RDF>
</x:xmpmeta>
                                                                                                    
                                                                                                    
                                                                                                    
                                                                                                    
                                                                                                    
                                                                                                    
                                                                                                    
                                                                                                    
                                                                                                    
                                                                                                    
                                                                                                    
                                                                                                    
                                                                                                    
                                                                                                    
                                                                                                    
                                                                                                    
                                                                                                    
                                                                                                    
                                                                                                    
                                                                                                    
                           
<?xpacket end="w"?></metadata>
<defs>
    <style>
      .cls-1 {
        fill: red;
        fill-rule: evenodd;
      }
    </style>
  </defs>
  <path id="形状_1012_拷贝" data-name="形状 1012 拷贝" class="cls-1" d="M0,18V0H18V18H0Zm13.824-6-3.6-6.287a1.385,1.385,0,0,0-.573-0.543,1.478,1.478,0,0,0-.672-0.162,1.43,1.43,0,0,0-1.25.712L4.174,12a1.307,1.307,0,0,0-.17.641A1.389,1.389,0,0,0,5.424,14h7.154a1.478,1.478,0,0,0,.68-0.166A1.322,1.322,0,0,0,13.824,12Zm-1.245,1.046H5.424a0.408,0.408,0,0,1-.417-0.4,0.383,0.383,0,0,1,.05-0.188L8.608,6.17a0.42,0.42,0,0,1,.368-0.209,0.427,0.427,0,0,1,.2.048,0.407,0.407,0,0,1,.168.159l3.6,6.287a0.388,0.388,0,0,1-.166.539A0.434,0.434,0,0,1,12.578,13.043ZM9.5,8h-1v2h1V8Zm0,3h-1v1h1V11Z"/>
</svg>
