<?xml version="1.0" encoding="utf-8"?>
<!-- Generator: Adobe Illustrator 22.0.1, SVG Export Plug-In . SVG Version: 6.00 Build 0)  -->
<svg version="1.1" id="icon" xmlns="http://www.w3.org/2000/svg" xmlns:xlink="http://www.w3.org/1999/xlink" x="0px" y="0px"
	 viewBox="0 0 48 48" style="enable-background:new 0 0 48 48;" xml:space="preserve">
<style type="text/css">
	.st0{fill:#4267B2;}
	.st1{fill:#E3E8F4;}
</style>
<g>
	<path class="st0" d="M40,16.1L40,16.1L40,16.1c0-0.4,0-0.7,0-1.1c0-6.6-5.4-12-12-12c-4.6,0-8.6,2.6-10.6,6.5C16.6,9.2,15.8,9,15,9
		c-1.1,0-2.2,0.4-3.1,1.1C9,12.5,8.8,14.3,9.1,16H9c-3.9,0-7.4,2.4-8.5,6.1C-1.5,28.3,3.1,34,9,34h4v-1l-3.7,0c-4.3,0-8-3.2-8.3-7.5
		C0.7,20.9,4.4,17,9,17h0.1h1.2l-0.2-1.2c-0.2-0.9-0.1-1.6,0.2-2.4c0.8-2.1,2.7-3.5,4.9-3.4c0.6,0,1.2,0.2,1.7,0.4l0.9,0.4l0.4-0.8
		C20.1,6.3,23.9,4,28,4c6.1,0,11,4.9,11,11c0,0.3,0,0.6,0,0.9L38.9,17h0.6l0.2,0c4,0.4,7.2,3.6,7.4,7.6c0.2,4.3-2.9,7.9-7.1,8.3
		L39.4,33H37v1h2h0.6c0.3,0,0.5,0,0.8-0.1c4.3-0.7,7.6-4.5,7.6-8.9C48,20.4,44.5,16.6,40,16.1z"/>
	<g>
		<path class="st1" d="M25.5,41c-4.2,0-7.8-0.7-9.5-1.7V41c0,1.7,4.5,3,10,3s10-1.3,10-3v-3C36,39.7,31.3,41,25.5,41z"/>
		<path class="st1" d="M25.5,35c-4.2,0-7.8-0.7-9.5-1.7V35c0,1.7,4.5,3,10,3s10-1.3,10-3v-3C36,33.7,31.3,35,25.5,35z"/>
		<path class="st1" d="M25.5,28c-4.2,0-7.8-0.7-9.5-1.7V29c0,1.7,4.5,3,10,3s10-1.3,10-3v-4C36,26.7,31.3,28,25.5,28z"/>
		<ellipse class="st1" cx="26" cy="22" rx="10" ry="3"/>
	</g>
	<path class="st0" d="M25,16c-6.6,0-12,2.2-12,5v19c0,2.8,5.4,5,12,5s12-2.2,12-5V21C37,18.2,31.6,16,25,16z M25,17
		c6.3,0,11,2.1,11,4s-4.7,4-11,4s-11-2.1-11-4S18.7,17,25,17z M25,44c-6.3,0-11-2.1-11-4v-4c1.8,1.8,6.1,3,11,3s9.2-1.2,11-3v4
		C36,41.9,31.3,44,25,44z M25,38c-6.3,0-11-2.1-11-4v-4c1.8,1.8,6.1,3,11,3s9.2-1.2,11-3v4C36,35.9,31.3,38,25,38z M25,32
		c-6.3,0-11-2.1-11-4v-5c1.8,1.8,6.1,3,11,3s9.2-1.2,11-3v5C36,29.9,31.3,32,25,32z"/>
</g>
</svg>
