<svg xmlns="http://www.w3.org/2000/svg" width="18" height="18" viewBox="0 0 18 18">
  <metadata><?xpacket begin="﻿" id="W5M0MpCehiHzreSzNTczkc9d"?>
<x:xmpmeta xmlns:x="adobe:ns:meta/" x:xmptk="Adobe XMP Core 5.6-c140 79.160451, 2017/05/06-01:08:21        ">
   <rdf:RDF xmlns:rdf="http://www.w3.org/1999/02/22-rdf-syntax-ns#">
      <rdf:Description rdf:about=""/>
   </rdf:RDF>
</x:xmpmeta>
                                                                                                    
                                                                                                    
                                                                                                    
                                                                                                    
                                                                                                    
                                                                                                    
                                                                                                    
                                                                                                    
                                                                                                    
                                                                                                    
                                                                                                    
                                                                                                    
                                                                                                    
                                                                                                    
                                                                                                    
                                                                                                    
                                                                                                    
                                                                                                    
                                                                                                    
                                                                                                    
                           
<?xpacket end="w"?></metadata>
<defs>
    <style>
      .cls-1 {
        fill: #f09d4a;
        fill-rule: evenodd;
      }
    </style>
  </defs>
  <path id="矩形_1047" data-name="矩形 1047" class="cls-1" d="M0,18V0H18V18H0ZM7.965,6.578a1.982,1.982,0,0,1,1.184-.311,1.749,1.749,0,0,1,1.1.29,1.473,1.473,0,0,1,.478.952l1.734-.076A2.5,2.5,0,0,0,11.6,5.541a3.626,3.626,0,0,0-2.435-.709,4.3,4.3,0,0,0-1.69.3A2.329,2.329,0,0,0,6.4,6a2.208,2.208,0,0,0-.372,1.228,2.235,2.235,0,0,0,.791,1.729,4.71,4.71,0,0,0,1.957.85q1.084,0.27,1.389.375a1.43,1.43,0,0,1,.624.372,0.783,0.783,0,0,1,.179.519,1.055,1.055,0,0,1-.425.829,1.931,1.931,0,0,1-1.263.354,1.869,1.869,0,0,1-1.257-.4,2.058,2.058,0,0,1-.618-1.248l-1.687.164a3.275,3.275,0,0,0,1.043,2.194,3.721,3.721,0,0,0,2.5.753,4.867,4.867,0,0,0,1.869-.314,2.457,2.457,0,0,0,1.16-.958A2.7,2.7,0,0,0,12.362,9.7a2.413,2.413,0,0,0-.949-0.873,8.412,8.412,0,0,0-1.872-.618,4.558,4.558,0,0,1-1.594-.574,0.659,0.659,0,0,1-.258-0.521A0.626,0.626,0,0,1,7.965,6.578Z"/>
</svg>
