<svg id="单机_拷贝" data-name="单机 拷贝" xmlns="http://www.w3.org/2000/svg" width="18" height="18" viewBox="0 0 18 18">
  <metadata><?xpacket begin="﻿" id="W5M0MpCehiHzreSzNTczkc9d"?>
<x:xmpmeta xmlns:x="adobe:ns:meta/" x:xmptk="Adobe XMP Core 5.6-c142 79.160924, 2017/07/13-01:06:39        ">
   <rdf:RDF xmlns:rdf="http://www.w3.org/1999/02/22-rdf-syntax-ns#">
      <rdf:Description rdf:about=""/>
   </rdf:RDF>
</x:xmpmeta>
                                                                                                    
                                                                                                    
                                                                                                    
                                                                                                    
                                                                                                    
                                                                                                    
                                                                                                    
                                                                                                    
                                                                                                    
                                                                                                    
                                                                                                    
                                                                                                    
                                                                                                    
                                                                                                    
                                                                                                    
                                                                                                    
                                                                                                    
                                                                                                    
                                                                                                    
                                                                                                    
                           
<?xpacket end="w"?></metadata>
<defs>
    <style>
      .cls-1 {
        fill: #6f7b91;
        fill-rule: evenodd;
      }
    </style>
  </defs>
  <path id="形状_1" data-name="形状 1" class="cls-1" d="M0,0H18V18H0V0ZM13.452,12.75h-2.71v1.5h0.774a0.375,0.375,0,1,1,0,.75H6.871a0.375,0.375,0,1,1,0-.75H7.645v-1.5h-3.1A1.525,1.525,0,0,1,3,11.25V4.5A1.525,1.525,0,0,1,4.548,3h8.9A1.525,1.525,0,0,1,15,4.5v6.75A1.525,1.525,0,0,1,13.452,12.75Zm-3.484,1.5v-1.5H8.419v1.5H9.968ZM14.226,4.5a0.762,0.762,0,0,0-.774-0.75h-8.9a0.762,0.762,0,0,0-.774.75V9.75H14.226V4.5Zm0,6H3.774v0.75a0.762,0.762,0,0,0,.774.75h8.9a0.762,0.762,0,0,0,.774-0.75V10.5Z"/>
</svg>
