<?xml version="1.0" encoding="utf-8"?>
<!-- Generator: Adobe Illustrator 22.0.1, SVG Export Plug-In . SVG Version: 6.00 Build 0)  -->
<svg version="1.1" id="图层_1" xmlns="http://www.w3.org/2000/svg" xmlns:xlink="http://www.w3.org/1999/xlink" x="0px" y="0px"
	 viewBox="0 0 128 128" style="enable-background:new 0 0 128 128;" xml:space="preserve">
<style type="text/css">
	.st0{display:none;}
	.st1{display:inline;fill:url(#SVGID_1_);}
	.st2{display:inline;}
	.st3{clip-path:url(#SVGID_3_);}
	.st4{fill:#5267C1;}
	.st5{fill:url(#SVGID_4_);}
	.st6{fill:url(#SVGID_5_);}
	.st7{fill:#4C5AA9;}
	.st8{fill:#7485CD;}
	.st9{fill:#F5AFAE;}
	.st10{fill:#F3A0A0;}
	.st11{fill:#6A3A52;}
	.st12{fill:#FFD8CA;}
	.st13{fill:#FFC5BA;}
	.st14{fill:#804F67;}
	.st15{fill:#592C42;}
	.st16{fill:#EF9FA0;}
	.st17{fill:none;stroke:#E3597B;stroke-width:1.2;stroke-linecap:round;stroke-miterlimit:10;}
	.st18{fill:url(#SVGID_6_);}
	.st19{fill:url(#SVGID_7_);}
	.st20{fill:url(#SVGID_8_);}
	.st21{fill:#A1B1E5;}
</style>
<image style="display:none;overflow:visible;" width="4000" height="4000" xlink:href="../Downloads/cc.png"  transform="matrix(0.1303 0 0 0.1303 -293 -285)">
</image>
<g class="st0">
	<linearGradient id="SVGID_1_" gradientUnits="userSpaceOnUse" x1="5.4276" y1="71.5745" x2="122.646" y2="71.5745">
		<stop  offset="0" style="stop-color:#78B7F0"/>
		<stop  offset="1" style="stop-color:#B4F2E2"/>
	</linearGradient>
	<path class="st1" d="M106.6,94.7l-27.1,22.8C60.4,133.5,32,131,16,111.9l0,0C0,92.9,2.5,64.5,21.5,48.5l27.1-22.8
		c19.1-16,47.5-13.5,63.4,5.6l0,0C128.1,50.3,125.6,78.7,106.6,94.7z"/>
	<g class="st2">
		<defs>
			<path id="SVGID_2_" d="M106.6,94.7l-27.1,22.8C60.4,133.5,32,131,16,111.9l0,0C0,92.9,2.5,64.5,21.5,48.5l27.1-22.8
				c19.1-16,47.5-13.5,63.4,5.6l0,0C128.1,50.3,125.6,78.7,106.6,94.7z"/>
		</defs>
		<clipPath id="SVGID_3_">
			<use xlink:href="#SVGID_2_"  style="overflow:visible;"/>
		</clipPath>
		<g class="st3">
			<path class="st4" d="M97.2,149.5H31v-49.2C31,82,45.8,67.2,64.1,67.2h0c18.3,0,33.1,14.8,33.1,33.1V149.5z"/>
			<linearGradient id="SVGID_4_" gradientUnits="userSpaceOnUse" x1="37.1059" y1="149.4996" x2="37.1059" y2="102.342">
				<stop  offset="0.2967" style="stop-color:#4C5AA9"/>
				<stop  offset="1" style="stop-color:#4C5AA9;stop-opacity:0"/>
			</linearGradient>
			<rect x="31.1" y="102.3" class="st5" width="12" height="47.2"/>
			<linearGradient id="SVGID_5_" gradientUnits="userSpaceOnUse" x1="91.1273" y1="149.4996" x2="91.1273" y2="102.342">
				<stop  offset="0.2967" style="stop-color:#4C5AA9"/>
				<stop  offset="1" style="stop-color:#4C5AA9;stop-opacity:0"/>
			</linearGradient>
			<rect x="85.1" y="102.3" class="st6" width="12" height="47.2"/>
			<path class="st7" d="M64,67.2L64,67.2c-10.3,0-19.5,4.7-25.5,12c6.1,7.4,15.3,12,25.5,12h0c10.3,0,19.5-4.7,25.5-12
				C83.5,71.9,74.3,67.2,64,67.2z"/>
			<g>
				<path class="st8" d="M82.6,96.8c0-0.7-0.4-1.3-1-1.6l0,0c-0.3-0.1-0.5,0.2-0.3,0.4c0.3,0.2,0.4,0.6,0.4,1c0,0.4-0.2,0.8-0.5,1.1
					c-0.1,0-0.2,0.1-0.2,0.1c-0.6,0.3-1.6,0.4-2.1,0.5c1.2-0.5,2.1-1.6,2.1-2.9c0-1.7-1.3-3.1-3-3.1c-1.4,0-2.6,1-3,2.3
					c-1,0.1-1.8,1-1.8,2c0,1.1,0.9,2,2,2c0.1,0,0.3,0,0.4,0c0,0,0.1,0,0.1-0.1c0,0,0-0.1-0.1-0.1c0,0,0,0,0,0
					c-0.9,0-1.6-0.7-1.6-1.6c0-0.9,0.7-1.6,1.6-1.6c0.5,0,0.9,0.2,1.2,0.6c0,0,0.1,0.1,0.2,0c0.1-0.1,0-0.1,0-0.1
					c-0.3-0.7-1-1.1-1.8-1.1c0,0,0.1,0,0.1,0c0.4-0.8,1.3-1.4,2.3-1.4c1.4,0,2.5,1.2,2.5,2.6c0,1.4-1.4,2.6-2.8,2.6v0
					c-0.1,0-0.1,0-0.1,0.1s0,0.1,0.1,0.1c0,0,0.2,0,0.5,0h1.4c1.8,0,2.2-0.2,2.3-0.2C82.2,98.1,82.6,97.5,82.6,96.8z"/>
				<path class="st8" d="M81.6,95.3L81.6,95.3c-0.3-0.1-0.5,0.2-0.3,0.4c0.3,0.2,0.4,0.6,0.4,1c0,0.4-0.2,0.8-0.5,1.1
					c-0.1,0-0.2,0.1-0.2,0.1c-0.6,0.3-1.6,0.4-2.1,0.5c0,0-0.5,0-0.7,0l-0.8,0v0c-0.1,0-0.1,0-0.1,0.1s0,0.1,0.1,0.1
					c0,0,0.2,0,0.5,0h1.4c1.8,0,2.2-0.2,2.3-0.2l0,0l0,0l0,0c0.7-0.2,1.1-0.8,1.1-1.5C82.6,96.1,82.2,95.5,81.6,95.3z"/>
			</g>
		</g>
	</g>
	<g class="st2">
		<path class="st8" d="M73.1,68.5v4.8c0,5-4,9-9,9h0c-5,0-9-4-9-9v-4.8c-1,0.3-2,0.6-3,1v3.8c0,6.6,5.4,12,12,12s12-5.4,12-12v-3.8
			C75.1,69.1,74.1,68.8,73.1,68.5z"/>
		<path class="st9" d="M64.1,82.3L64.1,82.3c-5,0-9-4-9-9v-9h18.1v9C73.1,78.2,69.1,82.3,64.1,82.3z"/>
		<g>
			<path class="st10" d="M64.1,73.4L64.1,73.4c-5.5,0-10-4.5-10-10V53h20.1v10.4C74.1,68.9,69.6,73.4,64.1,73.4z"/>
		</g>
		<path class="st11" d="M64.2,65.2L64.2,65.2c-14.4,0-26.1-11.7-26.1-26.1v-9C38.1,15.7,49.8,4,64.2,4h0c14.4,0,26.1,11.7,26.1,26.1
			v9C90.3,53.5,78.6,65.2,64.2,65.2z"/>
		<circle class="st9" cx="43.1" cy="41.1" r="8"/>
		<circle class="st9" cx="84.3" cy="41.1" r="8"/>
		<path class="st12" d="M63.7,70.2L63.7,70.2c-12.2,0-22.1-9.9-22.1-22.1V32.1c0-10,8.1-18.1,18.1-18.1h8c10,0,18.1,8.1,18.1,18.1
			v16.1C85.8,60.4,75.9,70.2,63.7,70.2z"/>
		<path class="st13" d="M84.8,49.2c-3.6,0-6.5,2.9-6.5,6.5c0,2.4,1.3,4.5,3.2,5.6c2.5-3.4,4.1-7.5,4.3-12
			C85.4,49.2,85.1,49.2,84.8,49.2z"/>
		<path class="st13" d="M42.6,49.2c-0.3,0-0.7,0-1,0.1c0.2,4.5,1.8,8.6,4.3,12c1.9-1.1,3.2-3.2,3.2-5.6
			C49.1,52.1,46.2,49.2,42.6,49.2z"/>
		<path class="st14" d="M83.6,28.9l-21.9-4.7c-6.6-1.4-11.1-7.7-10.5-14.5l0.5-5.8c0.2-2.7,2.9-4.5,5.4-3.6l23.3,7.9
			c5.3,1.8,8.8,6.8,8.8,12.5v3.5C89.3,27.3,86.5,29.6,83.6,28.9z"/>
		<g>
			<path class="st15" d="M57.2,38.1h-7c-0.6,0-1-0.4-1-1l0,0c0-0.6,0.4-1,1-1h7c0.6,0,1,0.4,1,1l0,0C58.2,37.7,57.7,38.1,57.2,38.1z
				"/>
			<path class="st15" d="M77.2,38.1h-7c-0.6,0-1-0.4-1-1l0,0c0-0.6,0.4-1,1-1h7c0.6,0,1,0.4,1,1l0,0C78.2,37.7,77.8,38.1,77.2,38.1z
				"/>
			<circle class="st15" cx="54.2" cy="44.1" r="2"/>
			<circle class="st15" cx="73.2" cy="44.1" r="2"/>
			<path class="st16" d="M64.5,51.2h-1.7c-1,0-1.8-0.7-2.1-1.6l-0.3-1.1c-0.2-0.6,0.3-1.2,1-1.2h4.5c0.7,0,1.1,0.6,1,1.2l-0.3,1.1
				C66.4,50.5,65.5,51.2,64.5,51.2z"/>
			<path class="st17" d="M59.2,56.7L59.2,56.7c2.7,1.8,6.3,1.8,9,0h0"/>
		</g>
	</g>
</g>
<image style="display:none;overflow:visible;" width="4000" height="4000" xlink:href="../Downloads/aa.png"  transform="matrix(1 0 0 1 -1871 -1949)">
</image>
<g>
	<linearGradient id="SVGID_6_" gradientUnits="userSpaceOnUse" x1="5.4276" y1="71.5745" x2="122.646" y2="71.5745">
		<stop  offset="0" style="stop-color:#78B7F0"/>
		<stop  offset="1" style="stop-color:#B4F2E2"/>
	</linearGradient>
	<path class="st18" d="M106.6,94.7l-27.1,22.8C60.4,133.5,32,131,16,111.9l0,0C0,92.9,2.5,64.5,21.5,48.5l27.1-22.8
		c19.1-16,47.5-13.5,63.4,5.6l0,0C128.1,50.3,125.6,78.7,106.6,94.7z"/>
	<g>
		<path class="st4" d="M64.1,67.2L64.1,67.2C45.8,67.2,31,82,31,100.3v23.2c15.5,7.4,34.5,5.6,48.4-6.1l17.8-14.9v-2.2
			C97.2,82,82.4,67.2,64.1,67.2z"/>
		<linearGradient id="SVGID_7_" gradientUnits="userSpaceOnUse" x1="37.1059" y1="127.3851" x2="37.1059" y2="102.342">
			<stop  offset="0.2967" style="stop-color:#4C5AA9"/>
			<stop  offset="1" style="stop-color:#4C5AA9;stop-opacity:0"/>
		</linearGradient>
		<path class="st19" d="M43.1,127.4v-25h-12v21.3C34.9,125.4,39,126.7,43.1,127.4z"/>
		<linearGradient id="SVGID_8_" gradientUnits="userSpaceOnUse" x1="91.1273" y1="112.6854" x2="91.1273" y2="102.342">
			<stop  offset="0.2967" style="stop-color:#4C5AA9"/>
			<stop  offset="1" style="stop-color:#4C5AA9;stop-opacity:0"/>
		</linearGradient>
		<polygon class="st20" points="85.1,112.7 97.1,102.6 97.1,102.3 85.1,102.3 		"/>
		<path class="st7" d="M64,67.2L64,67.2c-10.3,0-19.5,4.7-25.5,12c6.1,7.4,15.3,12,25.5,12h0c10.3,0,19.5-4.7,25.5-12
			C83.5,71.9,74.3,67.2,64,67.2z"/>
		<path class="st21" d="M82.3,95.9c-0.2-0.3-0.4-0.5-0.7-0.6l0,0c-0.1,0-0.3,0-0.3,0.1c0,0,0,0.1,0,0.2s0,0.1,0.1,0.2
			c0.1,0.1,0.2,0.3,0.3,0.4c0.1,0.2,0.1,0.4,0.1,0.6c0,0.4-0.2,0.8-0.5,1.1c-0.1,0-0.2,0.1-0.2,0.1c-0.6,0.3-1.6,0.4-2.1,0.5
			c1.2-0.5,2.1-1.6,2.1-2.9c0-1.7-1.3-3.1-3-3.1c-1.4,0-2.6,1-3,2.3c-1,0.1-1.8,1-1.8,2c0,1.1,0.9,2,2,2c0.1,0,0.3,0,0.4,0
			c0,0,0.1,0,0.1-0.1c0,0,0-0.1-0.1-0.1c0,0,0,0,0,0c-0.9,0-1.6-0.7-1.6-1.6s0.7-1.6,1.6-1.6c0.5,0,0.9,0.2,1.2,0.6
			c0,0,0.1,0.1,0.2,0c0.1-0.1,0-0.1,0-0.1c-0.3-0.7-1-1.1-1.8-1.1c0,0,0.1,0,0.1,0c0.4-0.8,1.3-1.4,2.3-1.4c1.4,0,2.5,1.2,2.5,2.6
			c0,1.4-1.4,2.6-2.8,2.6v0c-0.1,0-0.1,0-0.1,0.1s0,0.1,0.1,0.1c0,0,0.2,0,0.5,0h1.4c1.8,0,2.2-0.2,2.3-0.2c0.7-0.2,1.1-0.8,1.1-1.5
			C82.6,96.5,82.5,96.1,82.3,95.9z"/>
	</g>
	<g>
		<path class="st8" d="M73.1,68.5v4.8c0,5-4,9-9,9h0c-5,0-9-4-9-9v-4.8c-1,0.3-2,0.6-3,1v3.8c0,6.6,5.4,12,12,12s12-5.4,12-12v-3.8
			C75.1,69.1,74.1,68.8,73.1,68.5z"/>
		<path class="st9" d="M64.1,82.3L64.1,82.3c-5,0-9-4-9-9v-9h18.1v9C73.1,78.2,69.1,82.3,64.1,82.3z"/>
		<g>
			<path class="st10" d="M64.1,73.4L64.1,73.4c-5.5,0-10-4.5-10-10V53h20.1v10.4C74.1,68.9,69.6,73.4,64.1,73.4z"/>
		</g>
		<path class="st11" d="M64.2,65.2L64.2,65.2c-14.4,0-26.1-11.7-26.1-26.1v-9C38.1,15.7,49.8,4,64.2,4h0c14.4,0,26.1,11.7,26.1,26.1
			v9C90.3,53.5,78.6,65.2,64.2,65.2z"/>
		<circle class="st9" cx="43.1" cy="41.1" r="8"/>
		<circle class="st9" cx="84.3" cy="41.1" r="8"/>
		<path class="st12" d="M63.7,70.2L63.7,70.2c-12.2,0-22.1-9.9-22.1-22.1V36c0-12.2,9.8-22,22-22h4.1c10,0,18.1,8.1,18.1,18.1v16.1
			C85.8,60.4,75.9,70.2,63.7,70.2z"/>
		<path class="st13" d="M84.8,49.2c-3.6,0-6.5,2.9-6.5,6.5c0,2.4,1.3,4.5,3.2,5.6c2.5-3.4,4.1-7.5,4.3-12
			C85.4,49.2,85.1,49.2,84.8,49.2z"/>
		<path class="st13" d="M42.6,49.2c-0.3,0-0.7,0-1,0.1c0.2,4.5,1.8,8.6,4.3,12c1.9-1.1,3.2-3.2,3.2-5.6
			C49.1,52.1,46.2,49.2,42.6,49.2z"/>
		<path class="st14" d="M83.6,28.9l-21.9-4.7c-6.6-1.4-11.1-7.7-10.5-14.5l0.5-5.8c0.2-2.7,2.9-4.5,5.4-3.6l23.3,7.9
			c5.3,1.8,8.8,6.8,8.8,12.5v3.5C89.3,27.3,86.5,29.6,83.6,28.9z"/>
		<g>
			<path class="st15" d="M57.2,38.1h-7c-0.6,0-1-0.4-1-1l0,0c0-0.6,0.4-1,1-1h7c0.6,0,1,0.4,1,1l0,0C58.2,37.7,57.7,38.1,57.2,38.1z
				"/>
			<path class="st15" d="M77.2,38.1h-7c-0.6,0-1-0.4-1-1l0,0c0-0.6,0.4-1,1-1h7c0.6,0,1,0.4,1,1l0,0C78.2,37.7,77.8,38.1,77.2,38.1z
				"/>
			<circle class="st15" cx="54.2" cy="44.1" r="2"/>
			<circle class="st15" cx="73.2" cy="44.1" r="2"/>
			<path class="st16" d="M64.5,51.2h-1.7c-1,0-1.8-0.7-2.1-1.6l-0.3-1.1c-0.2-0.6,0.3-1.2,1-1.2h4.5c0.7,0,1.1,0.6,1,1.2l-0.3,1.1
				C66.4,50.5,65.5,51.2,64.5,51.2z"/>
			<path class="st17" d="M59.2,56.7L59.2,56.7c2.7,1.8,6.3,1.8,9,0h0"/>
		</g>
	</g>
</g>
</svg>
