<svg xmlns="http://www.w3.org/2000/svg" width="48" height="48" viewBox="0 0 48 48">
  <metadata><?xpacket begin="﻿" id="W5M0MpCehiHzreSzNTczkc9d"?>
<x:xmpmeta xmlns:x="adobe:ns:meta/" x:xmptk="Adobe XMP Core 5.6-c140 79.160451, 2017/05/06-01:08:21        ">
   <rdf:RDF xmlns:rdf="http://www.w3.org/1999/02/22-rdf-syntax-ns#">
      <rdf:Description rdf:about=""/>
   </rdf:RDF>
</x:xmpmeta>
                                                                                                    
                                                                                                    
                                                                                                    
                                                                                                    
                                                                                                    
                                                                                                    
                                                                                                    
                                                                                                    
                                                                                                    
                                                                                                    
                                                                                                    
                                                                                                    
                                                                                                    
                                                                                                    
                                                                                                    
                                                                                                    
                                                                                                    
                                                                                                    
                                                                                                    
                                                                                                    
                           
<?xpacket end="w"?></metadata>
<defs>
    <style>
      .cls-1 {
        fill: #fff;
        fill-rule: evenodd;
      }
    </style>
  </defs>
  <path id="形状_1" data-name="形状 1" class="cls-1" d="M48,31.056a8.782,8.782,0,0,0-4.979-8.011L42.9,23.007a1.253,1.253,0,0,0-1.406,2.051A6.724,6.724,0,0,1,43.8,30.129,6.469,6.469,0,0,1,40.988,35.6a11.275,11.275,0,0,1-1.212.7c-3.151,1.546-8.051,2.21-10.966,2.483,6.2-2.381,11.03-8.107,11.03-14.8C39.84,15.157,33.361,8,24.48,8A16.069,16.069,0,0,0,9.037,19.532,10.25,10.25,0,0,0,10.32,39.961a7.223,7.223,0,0,0,2.28-.239,0.5,0.5,0,0,0,.36-0.358,0.34,0.34,0,0,0-.36-0.358H12.36a7.99,7.99,0,1,1,6.2-13.064,0.656,0.656,0,0,0,.857.116,0.556,0.556,0,0,0,.226-0.738,10.322,10.322,0,0,0-9.327-5.871c0.191,0,.381.006,0.57,0.016A13.462,13.462,0,0,1,22.814,12.3c7.43,0,12.706,5.98,12.706,13.356,0,7.356-7.23,13.322-14.64,13.354v0a0.477,0.477,0,1,0,0,.954c0.079,0,1.024.019,2.477,0.035h7.132c9.185,0,11.088-.936,11.749-1.154A7.909,7.909,0,0,0,48,31.056Z"/>
</svg>
