<?xml version="1.0" standalone="no"?><!DOCTYPE svg PUBLIC "-//W3C//DTD SVG 1.1//EN" "http://www.w3.org/Graphics/SVG/1.1/DTD/svg11.dtd"><svg t="1534209631870" class="icon" style="" viewBox="0 0 1024 1024" version="1.1" xmlns="http://www.w3.org/2000/svg" p-id="8378" xmlns:xlink="http://www.w3.org/1999/xlink" width="200" height="200"><defs><style type="text/css"></style></defs><path d="M512 512m-497.777778 0a497.777778 497.777778 0 1 0 995.555556 0 497.777778 497.777778 0 1 0-995.555556 0Z" fill="#0D7EF2" p-id="8379"></path><path d="M860.017778 637.582222a76.8 76.8 0 0 1-52.067556 24.448c-42.467556 1.336889-84.992 0.440889-127.488 0.412445a49.464889 49.464889 0 0 1-5.361778-0.753778 117.290667 117.290667 0 0 0 79.374223-110.933333 124.103111 124.103111 0 0 0-56.362667-111.502223c-1.422222 1.180444-2.503111 2.460444-3.925333 3.612445a130.033778 130.033778 0 0 1-79.544889 30.392889c-64.170667 1.635556-128.398222 0.568889-192.611556 0.526222a134.328889 134.328889 0 0 0 8.903111 260.437333c-2.403556 0.142222-4.807111 0.412444-7.224889 0.412445-53.134222-0.113778-106.268444-0.085333-159.388444-0.512a183.708444 183.708444 0 0 1-32.213333-3.100445 128.270222 128.270222 0 0 1-101.162667-100.337778 131.669333 131.669333 0 0 1 47.203556-133.774222 117.418667 117.418667 0 0 1 72.362666-28.017778c58.055111-1.507556 116.152889-0.540444 174.250667-0.497777a149.546667 149.546667 0 0 0 108.174222-133.688889 148.792889 148.792889 0 0 0-116.622222-149.461334c2.659556-0.071111 5.304889-0.355556 7.950222-0.355555 58.410667 0.113778 116.821333 0.085333 175.217778 0.554667a204.8 204.8 0 0 1 35.370667 3.342222 140.131556 140.131556 0 0 1 111.203555 108.871111 140.885333 140.885333 0 0 1-38.243555 132.551111c30.065778 0 60.145778 0 90.211555 0.341333a110.051556 110.051556 0 0 1 23.153778 2.688c35.939556 8.149333 66.062222 43.761778 72.789333 87.566223a129.123556 129.123556 0 0 1-33.948444 116.778666zM350.449778 614.4a241.521778 241.521778 0 0 1 8.533333-41.244444 126.378667 126.378667 0 0 1 96.497778-83.740445 129.777778 129.777778 0 0 1 134.741333 55.893333l60.302222 93.952q57.528889 89.344 115.2 178.631112c4.181333 6.485333 8.248889 13.027556 12.956445 20.465777a35.285333 35.285333 0 0 1-3.911111 0.654223q-103.722667 0-207.445334 0.099555a11.733333 11.733333 0 0 1-11.377777-6.144c-29.283556-47.729778-58.922667-95.288889-88.177778-142.976a129.649778 129.649778 0 0 0-111.246222-68.266667 5.390222 5.390222 0 0 1-6.072889-7.324444z" fill="#FFFFFF" p-id="8380"></path></svg>