<?xml version="1.0" standalone="no"?>
<!DOCTYPE svg PUBLIC "-//W3C//DTD SVG 1.1//EN" "http://www.w3.org/Graphics/SVG/1.1/DTD/svg11.dtd" >
<svg xmlns="http://www.w3.org/2000/svg">
<metadata>Generated by IcoMoon</metadata>
<defs>
<font id="icomoon" horiz-adv-x="1024">
<font-face units-per-em="1024" ascent="960" descent="-64" />
<missing-glyph horiz-adv-x="1024" />
<glyph unicode="&#x20;" horiz-adv-x="512" d="" />
<glyph unicode="&#xe900;" glyph-name="CPU" d="M960-64v0c35.346 0 64 28.654 64 64v256h-64v-224c0-17.673-14.327-32-32-32h-224v-64h256zM960 384v-64h64v64h-64zM960 512v-64h64v64h-64zM960 640v-64h64v64h-64zM960 864v-160h64v192c0 35.346-28.654 64-64 64h-256v-64h224c17.673 0 32-14.327 32-32zM576 960v-64h64v64h-64zM864 480v320h-320v-320h320zM448 0v-64h64v64h-64zM448 960v-64h64v64h-64zM320 960v-64h64v64h-64zM64 864v0c0 17.673 14.327 32 32 32h160v64h-192c-35.346 0-64-28.654-64-64v-192h64v160zM64 576v64h-64v-64h64zM64 448v64h-64v-64h64zM64 320v64h-64v-64h64zM64 32v224h-64v-256c0-35.346 28.654-64 64-64h192v64h-160c-17.673 0-32 14.327-32 32zM160 800v-320h320v320h-320zM480 96v320h-320v-320h320zM384-64v64h-64v-64h64zM864 96v320h-320v-320h320zM640-64v64h-64v-64h64z" />
<glyph unicode="&#xe901;" glyph-name="health" d="M293.408 468.512h-0.017c0.112-0.002 0.225-0.003 0.337-0.003 11.243 0 20.363 9.087 20.416 20.323v128l0.001 0.037c0.402 11.169 9.583 20.1 20.85 20.1 6.348 0 12.034-2.835 15.885-7.337l223.456-261.056 28.847 79.918c2.953 7.809 10.499 13.363 19.343 13.363 0.068 0 0.136 0 0.194-0.001h354.496l-0.613-0.96c29.594 43.68 46.881 96.378 46.881 153.113 0 5.068-0.138 10.104-0.38 14.407l-0.056 0.945c-10.954 148.651-135.029 265.85-286.478 265.85-1.731 0-3.458-0.015-4.922-0.042l-0.1-0.001c-87.704-0.572-166.204-39.916-219.548-102.143l-0.326 0.389c-53.564 62.362-132.993 101.864-221.649 101.864-9.298 0-18.495-0.434-26.409-1.196l-1.020-0.067c-133.495-10.868-241.075-113.356-259.94-246.013l0.144 1.366c-1.489-11.552-2.257-23.33-2.257-35.287 0-53.974 15.643-104.293 41.985-145.567h250.88zM573.376 274.4l0.022-0.027c3.838-4.437 9.509-7.245 15.836-7.245 8.953 0 16.593 5.622 19.63 13.672l38.448 106.862c2.971 7.794 10.515 13.331 19.353 13.331 0.065 0 0.129 0 0.184-0.001h256l-410.848-400-413.024 402.016c-1.792 1.344-3.296 2.976-4.992 4.544h262.001c0.102-0.001 0.204-0.002 0.306-0.002 11.199 0 20.299 8.989 20.478 20.162v76.32l196.704-229.632z" />
<glyph unicode="&#xe902;" glyph-name="hosts" d="M960 160h-320v-96h128v-64h-512v64h128v96h-320c-35.346 0-64 28.654-64 64v0 608c0 35.346 28.654 64 64 64v0h896c35.346 0 64-28.654 64-64v0-608c0-35.346-28.654-64-64-64v0zM960 768c0 35.346-28.654 64-64 64v0h-768c-35.346 0-64-28.654-64-64v0-480c0-35.346 28.654-64 64-64v0h768c35.346 0 64 28.654 64 64v0 480z" />
<glyph unicode="&#xe903;" glyph-name="iops" d="M1012.192 634.24q-34.624 35.616-69.472 71.296c-45.664 46.72-91.040 93.536-136.64 140.256q-47.68 49.184-95.456 98.208c-1.536 1.6-3.2 3.2-4.832 4.864-6.881 6.86-16.376 11.101-26.861 11.101-3.605 0-7.094-0.501-10.399-1.438l0.268 0.065c-16.234-4.675-27.923-19.362-28-36.791v-100.969h-364.928c-21.066 0-38.144-17.078-38.144-38.144s17.078-38.144 38.144-38.144h403.2c20.972 0.162 37.932 17.11 38.112 38.063v45.521l4.48-4.608q68.064-70.080 136.448-140.288c24.352-24.896 48.48-49.792 72.768-74.72l-51.2-47.616c-47.712-44.256-95.2-88.736-142.944-132.992-1.216-1.152-2.368-2.24-3.584-3.2v53.376c-0.108 21.025-17.095 38.046-38.097 38.208h-320.655v96.928c-0.021 21.068-17.105 38.139-38.176 38.139-10.517 0-20.041-4.253-26.945-11.132l0.001 0.001c-24.48-24.192-48.832-48.224-73.152-72.32l-139.552-137.6q-42.176-41.824-84.832-83.776c-0.294-0.263-0.531-0.583-0.697-0.942l-0.007-0.018c-6.915-6.778-11.201-16.215-11.201-26.653 0-0.080 0-0.16 0.001-0.239v0.012c0.182-10.519 4.419-20.014 11.21-27.018l-0.010 0.010c20.96-25.184 41.856-50.144 62.784-75.296l125.312-149.952q46.368-55.328 92.8-110.88l7.36-8.768c6.796-6.973 16.281-11.298 26.775-11.298 3.662 0 7.201 0.527 10.545 1.508l-0.264-0.067c16.224 4.672 27.908 19.343 28 36.757v115.211h288.864c21.084 0 38.176 17.092 38.176 38.176s-17.092 38.176-38.176 38.176h-326.816c0 0 0 0-0.001 0-21.129 0-38.272-17.065-38.399-38.164v-48.364l-123.040 147.2c-25.056 30.080-50.144 60.096-75.36 90.176q24.288 24.064 48.576 48 69.76 68.832 139.456 137.6c6.784 6.72 13.632 13.504 20.48 20.256v-43.936c0.144-21.030 17.172-38.036 38.198-38.144h320.49v-103.136c0.081-13.977 7.617-26.176 18.831-32.831l0.177-0.097c5.484-3.163 12.062-5.030 19.076-5.030 10.557 0 20.126 4.228 27.106 11.083l-0.006-0.006 78.624 73.056q71.616 66.688 142.848 133.28l68.704 64c6.82 6.96 11.028 16.5 11.028 27.024s-4.209 20.064-11.035 27.030l0.006-0.006z" />
<glyph unicode="&#xe904;" glyph-name="monitors" d="M1024 447.648c-1.449-14.11-6.023-26.907-13.015-38.030l0.215 0.366c-53.412-87.423-127.037-157.675-214.629-205.584l-2.971-1.488c-80.107-47.353-176.535-75.332-279.497-75.332-0.74 0-1.479 0.001-2.218 0.004h0.114c-0.671-0.003-1.465-0.004-2.259-0.004-105.058 0-203.587 27.952-288.556 76.825l2.815-1.493c-88.513 49.519-160.111 119.805-209.79 204.503l-1.41 2.601c-6.768 10.749-11.34 23.533-12.768 37.252l-0.032 0.38c1.455 14.11 6.028 26.906 13.015 38.031l-0.215-0.367c51.090 87.298 122.688 157.584 208.416 205.669l2.784 1.435c82.894 47.383 182.184 75.322 288 75.322s205.105-27.939 290.895-76.842l-2.895 1.52c88.517-49.514 160.116-119.801 209.79-204.502l1.41-2.602c6.777-10.757 11.351-23.554 12.768-37.287l0.032-0.377zM953.6 447.648c-53.443 85.515-127.125 153.822-214.549 199.385l-3.051 1.447c20.28-32.41 32.306-71.786 32.306-113.97 0-4.057-0.111-8.088-0.331-12.091l0.024 0.557c0.004-0.535 0.007-1.167 0.007-1.8 0-68.811-29.538-130.723-76.625-173.748l-0.182-0.164c-42.229-50.094-105.016-81.699-175.185-81.699-1.412 0-2.82 0.013-4.226 0.038l0.211-0.003c-0.799-0.009-1.742-0.015-2.686-0.015-69.338 0-131.935 28.862-176.434 75.227l-0.080 0.084c-47.27 43.194-76.808 105.111-76.808 173.927 0 0.661 0.003 1.322 0.008 1.982l-0.001-0.101c0.821 46.012 12.565 89.1 32.738 127.023l-0.738-1.519c-90.452-44.456-164.232-110.844-216.324-192.423l-1.276-2.137c49.83-74.684 114.129-135.784 189.31-180.502l2.69-1.482c71.411-42.857 157.457-68.431 249.433-69.023l0.167-0.001c92.136 0.57 178.184 26.123 251.863 70.215l-2.263-1.255c77.876 46.217 142.176 107.338 190.663 179.921l1.337 2.127zM531.2 642.208c4.065 4.104 6.577 9.752 6.577 15.987 0 0.997-0.064 1.979-0.189 2.942l0.012-0.114c0.111 0.846 0.175 1.824 0.175 2.817 0 6.239-2.511 11.891-6.577 16.001l0.002-0.002c-4.68 6.174-11.313 10.652-18.968 12.528l-0.232 0.048c-47.377-0.481-90.21-19.547-121.634-50.241l0.034 0.033c-31.214-32.599-50.614-76.731-51.199-125.389l-0.001-0.115c-0.11-0.842-0.173-1.817-0.173-2.806 0-6.242 2.51-11.897 6.576-16.013l-0.002 0.002c4.263-4.063 10.047-6.563 16.415-6.563 0.981 0 1.949 0.059 2.899 0.175l-0.114-0.011c0.836-0.104 1.804-0.163 2.785-0.163 6.368 0 12.152 2.5 16.424 6.573l-0.010-0.009c4.064 4.108 6.575 9.76 6.575 15.999 0 0.993-0.064 1.971-0.187 2.931l0.012-0.114c1.033 31.377 12.975 59.781 32.132 81.722l-0.132-0.154c23.503 22.084 54.776 36.139 89.306 37.654l0.294 0.010c0.879-0.115 1.895-0.181 2.927-0.181 6.304 0 12.033 2.456 16.285 6.464l-0.012-0.011z" />
<glyph unicode="&#xe905;" glyph-name="osd" d="M1024 64c0-35.346-28.654-64-64-64v0h-896c-35.346 0-64 28.654-64 64v0 256c0.079 5.724 0.903 11.222 2.38 16.447l-0.108-0.447c-1.369 4.778-2.193 10.276-2.272 15.955v0.045l192 480c0 35.346 28.654 64 64 64v0h512c35.346 0 64-28.654 64-64v0l192-480c-0.079-5.724-0.904-11.223-2.38-16.447l0.108 0.447c1.368-4.777 2.193-10.276 2.272-15.955v-256.045zM64 128c0-35.346 28.654-64 64-64v0h768c35.346 0 64 28.654 64 64v0 96c0 35.346-28.654 64-64 64v0h-768c-35.346 0-64-28.654-64-64v0-96zM656 224v0c-26.51 0-48-21.49-48-48v0c0-26.51 21.49-48 48-48s48 21.49 48 48c0 26.51-21.49 48-48 48zM816 224v0c-26.51 0-48-21.49-48-48v0c0-26.51 21.49-48 48-48s48 21.49 48 48c0 26.51-21.49 48-48 48z" />
<glyph unicode="&#xe906;" glyph-name="PGS" d="M1002.688 32.288l0.029 0.001c11.811 0.317 21.289 9.992 21.289 21.88 0 0.183-0.002 0.365-0.006 0.519v179.2l-0.001-0.027c0.004 0.182 0.007 0.364 0.007 0.546 0 11.888-9.477 21.563-21.318 21.881l-213.404-0.001c-11.81-0.3-21.291-9.967-21.291-21.849 0-0.194 0.003-0.387 0.007-0.551v-179.2l0.001 0.027c-0.004-0.182-0.007-0.364-0.007-0.546 0-11.888 9.477-21.563 21.318-21.881h213.376zM864 416v-96h64v160h-384v96h-64v-96h-384v-160h64v96h320v-96h64v96h320zM682.688 640.48l0.029 0.001c11.811 0.317 21.289 9.992 21.289 21.88 0 0.183-0.002 0.365-0.006 0.519v179.2l-0.001-0.027c0.004 0.182 0.007 0.364 0.007 0.546 0 11.888-9.477 21.563-21.318 21.881l-341.405-0.001c-11.811-0.317-21.289-9.992-21.289-21.88 0-0.183 0.002-0.365 0.006-0.519v-179.2l0.001 0.027c-0.004-0.181-0.007-0.363-0.007-0.545 0-11.899 9.495-21.581 21.35-21.881h341.344zM256 234.912v0.002c-0.018 11.768-9.545 21.306-21.312 21.342h-213.378c-11.772-0.018-21.31-9.567-21.31-21.344 0 0 0 0 0 0v-181.051c0-0.034 0-0.068 0-0.102 0-11.814 9.541-21.399 21.344-21.472h213.319c11.797 0.072 21.337 9.658 21.337 21.472 0 0.034 0 0.068 0 0.096v181.056zM405.344 256.288l-0.028-0.001c-11.81-0.3-21.291-9.967-21.291-21.849 0-0.194 0.003-0.387 0.007-0.551v-179.2l0.001 0.027c-0.004-0.182-0.007-0.364-0.007-0.546 0-11.888 9.477-21.563 21.318-21.881l213.373 0.001c11.811 0.317 21.289 9.992 21.289 21.88 0 0.183-0.002 0.365-0.006 0.519v179.2l-0.001-0.027c0.004 0.182 0.007 0.364 0.007 0.546 0 11.888-9.477 21.563-21.318 21.881h-213.376z" />
<glyph unicode="&#xe907;" glyph-name="pools" d="M834.592 529.888l-4.384 8.864c-9.297 15.030-19.383 28.077-30.663 39.982l0.103-0.11-288 381.088-292.48-381.088c-3.424-6.885-7.818-12.752-13.087-17.698l-0.033-0.030-21.824-31.040c-35.586-58.152-56.681-128.527-56.736-203.824v-0.016c0-212.13 171.966-384.096 384.096-384.096s384.096 171.966 384.096 384.096v0c0.007 0.832 0.011 1.815 0.011 2.799 0 74.971-22.828 144.61-61.911 202.345l0.813-1.273zM245.344 512.16l13.088 17.728c-0.003 0.057-0.004 0.125-0.004 0.193 0 2.386 1.934 4.32 4.32 4.32 0.024 0 0.048 0 0.072-0.001h-0.004l248.8 323.392 248.768-327.904 13.12-17.728c15.577-22.954 28.874-49.324 38.581-77.37l0.715-2.374c-26.176 31.008-65.472 39.872-122.208 39.872-144 0-270.592-296.864-484.48-62.048 0.001 0.039 0.002 0.086 0.002 0.132 0 2.386-1.934 4.32-4.32 4.32-0.068 0-0.136-0.002-0.204-0.005h0.010c11.032 37.094 25.939 69.432 44.723 99.071l-0.947-1.599z" />
<glyph unicode="&#xe908;" glyph-name="usage" d="M738.176 671.008c-47.937 96.022-145.48 160.814-258.155 160.814-151.554 0-275.73-117.219-286.811-265.939l-0.057-0.955c-110.347-29.528-190.699-127.514-193.147-244.655l-0.005-0.273c4.122-139.695 116.304-251.877 255.614-255.991l0.386-0.009h480c160.079 4.581 288.103 135.443 288.103 296.206 0 2.741-0.037 5.473-0.111 8.195l0.009-0.401c-0.064 161.38-126.012 293.323-284.976 302.967l-0.848 0.041z" />
<glyph unicode="&#xe909;" glyph-name="磁盘容量" d="M960-64h-896c-35.346 0-64 28.654-64 64v0 896c0 35.346 28.654 64 64 64v0h896c35.346 0 64-28.654 64-64v0-896c0-35.346-28.654-64-64-64v0zM960 864c0 17.673-14.327 32-32 32v0h-832c-17.673 0-32-14.327-32-32v0-416c73.547 39.474 160.764 63.047 253.4 63.998l0.296 0.002c121.6 0 266.912-128 388.512-128 92.965 0.949 180.215 24.522 256.783 65.46l-2.991-1.46v416z" />
<glyph unicode="&#xe90a;" glyph-name="内存" d="M1024 320v-320c0-35.346-28.654-64-64-64v0h-896c-35.346 0-64 28.654-64 64v0 896c0 35.346 28.654 64 64 64v0h704l256-256v-192h-128v-192h128zM256 832h-64v-256h64v256zM448 832h-64v-256h64v256zM640 832h-64v-256h64v256zM832 224c0 17.673-14.327 32-32 32v0h-576c-17.673 0-32-14.327-32-32v0-128c0-17.673 14.327-32 32-32v0h576c17.673 0 32 14.327 32 32v0 128z" />
<glyph unicode="&#xe90b;" glyph-name="虚拟硬盘" d="M1016.192 160.512l-124.448 686.528c-6.75 44.607-43.924 78.682-89.411 80.57l-0.189 0.006h-580.064c-46.411-1.969-84.048-37.084-89.933-82.179l-0.051-0.477-124.256-684.512c-4.963-14.025-7.831-30.2-7.831-47.044 0-80.201 65.015-145.216 145.216-145.216 0.38 0 0.759 0.001 1.138 0.004h731.366c0.335-0.003 0.731-0.004 1.127-0.004 80.165 0 145.152 64.987 145.152 145.152 0 16.892-2.886 33.111-8.191 48.189l0.312-1.017zM396.128 594.336c2.779 60.757 52.712 108.964 113.904 108.964s111.125-48.206 113.895-108.714l0.009-0.249c1.987 0.192 4.296 0.301 6.63 0.301 40.383 0 73.12-32.737 73.12-73.12 0-39.8-31.799-72.173-71.376-73.1l-0.086-0.002c-1.238-0.075-2.686-0.117-4.144-0.117s-2.906 0.043-4.342 0.126l0.198-0.009h-227.744c-0.912-0.041-1.982-0.064-3.057-0.064-40.33 0-73.024 32.694-73.024 73.024s32.694 73.024 73.024 73.024c1.075 0 2.145-0.023 3.208-0.069l-0.152 0.005zM885.312 31.616h-746.432c-44.183 0-80 35.817-80 80s35.817 80 80 80v0h746.496c44.183 0 80-35.817 80-80s-35.817-80-80-80v0 0zM849.024 159.648v0c26.289 0 47.6-21.311 47.6-47.6s-21.311-47.6-47.6-47.6l0.14 0.007c-1.025-0.065-2.059-0.098-3.1-0.098s-2.075 0.033-2.96 0.091l-0.164 0.010c-24.584 1.908-43.938 22.462-43.938 47.535 0 26.333 21.347 47.68 47.68 47.68 0.824 0 1.642-0.021 2.342-0.058z" />
<glyph unicode="&#xe90c;" glyph-name="off" d="M1024 448c0-0.174 0-0.379 0-0.584 0-282.452-228.972-511.424-511.424-511.424-118.951 0-228.417 40.61-315.29 108.721l1.113-0.841-3.2-3.2-90.496 90.528 3.2 3.2c-67.257 85.755-107.858 195.21-107.858 314.148 0 282.452 228.972 511.424 511.424 511.424 118.93 0 228.379-40.595 315.244-108.686l-1.115 0.842 3.2 3.2 90.496-90.528-3.2-3.2c67.278-85.502 107.904-194.731 107.904-313.448 0-0.053 0-0.107 0-0.16v0.008zM512 64c0.113 0 0.247 0 0.381 0 211.865 0 383.616 171.751 383.616 383.616 0 83.521-26.692 160.808-72.010 223.797l0.781-1.141-535.040-535.040c61.653-44.535 138.752-71.232 222.086-71.232 0.065 0 0.131 0 0.196 0h-0.010zM512 832c-0.132 0-0.288 0-0.443 0-211.848 0-383.584-171.736-383.584-383.584 0-83.536 26.703-160.836 72.040-223.828l-0.78 1.139 535.040 535.040c-61.653 44.535-138.752 71.232-222.086 71.232-0.065 0-0.131 0-0.196 0h0.010z" />
<glyph unicode="&#xe90d;" glyph-name="on" d="M512-64c-282.77 0-512 229.23-512 512s229.23 512 512 512c282.77 0 512-229.23 512-512v0c0-282.77-229.23-512-512-512v0zM512 832c-212.077 0-384-171.923-384-384s171.923-384 384-384c212.077 0 384 171.923 384 384v0c0 212.077-171.923 384-384 384v0zM534.624 324.448l226.272 226.272-90.496 90.496-226.304-226.112-90.496 90.496-90.496-90.656 181.024-180.992z" />
<glyph unicode="&#xe90e;" glyph-name="big" d="M0 960h448v-448h-448v448zM576 960h448v-448h-448v448zM0 384h448v-448h-448v448zM576 384h448v-448h-448v448z" />
<glyph unicode="&#xe90f;" glyph-name="more" d="M896 576v0c-70.692 0-128-57.308-128-128v0c0-70.692 57.308-128 128-128s128 57.308 128 128c0 70.692-57.308 128-128 128zM512 576v0c-70.692 0-128-57.308-128-128v0c0-70.692 57.308-128 128-128s128 57.308 128 128c0 70.692-57.308 128-128 128zM128 576v0c-70.692 0-128-57.308-128-128v0c0-70.692 57.308-128 128-128s128 57.308 128 128c0 70.692-57.308 128-128 128z" />
<glyph unicode="&#xe910;" glyph-name="small" d="M0 960h256v-256h-256v256zM384 960h256v-256h-256v256zM768 960h256v-256h-256v256zM0 576h256v-256h-256v256zM384 576h256v-256h-256v256zM768 576h256v-256h-256v256zM0 192h256v-256h-256v256zM384 192h256v-256h-256v256zM768 192h256v-256h-256v256z" />
<glyph unicode="&#xe911;" glyph-name="close" d="M1023.232 35.008l-98.176-98.176-413.056 413.024-413.056-413.024-98.176 98.176 413.056 412.992-413.056 413.12 98.176 98.176 413.056-413.056 413.056 413.056 98.176-98.176-413.056-413.12z" />
<glyph unicode="&#xe912;" glyph-name="down" d="M1023.552 612.992l-511.552-516.544-511.552 516.544 89.6 90.496 421.952-426.016 421.92 426.048z" />
<glyph unicode="&#xe913;" glyph-name="edit" d="M896-64h-896v1024h640v-128h-512v-768h768v512h128v-640h-128zM884.192 735.104l-543.072-543.104-90.496 90.528 670.976 671.072 90.496-90.464-128-128z" />
<glyph unicode="&#xe914;" glyph-name="left" d="M799.52 26.080l-90.496-89.6-516.576 511.52 516.544 511.552 90.496-89.6-426.016-421.952z" />
<glyph unicode="&#xe915;" glyph-name="Q" d="M512-64c-282.77 0-512 229.23-512 512s229.23 512 512 512c282.77 0 512-229.23 512-512v0c0-282.77-229.23-512-512-512v0zM512 896c-247.424 0-448-200.576-448-448s200.576-448 448-448c247.424 0 448 200.576 448 448v0c0 247.424-200.576 448-448 448v0zM596.864 438.4l0.471 0.38c22.739 18.883 42.514 41.212 59.209 67.332l-0.325-0.641c9.896 17.883 15.53 38.454 15.53 60.34 0 0.387-0.002 0.774-0.005 1.101l-0.001-0.068c0.005 0.447 0.007 0.894 0.007 1.342 0 38.136-16.677 72.376-43.27 95.942l0.186-0.16c-28.794 25.254-66.527 40.562-107.836 40.562-2.915 0-5.811-0.076-8.286-0.21l0.373-0.015c-2.653 0.132-5.323 0.198-8.008 0.198-39.268 0-75.213-14.229-102.733-37.623l-0.049-0.047c-28.536-27.531-47.193-65.235-50.159-107.793l62.528-7.552 0.038 0.511c2.695 29.541 15.182 56.252 34.106 76.769l-0.041-0.038c16.226 15.38 38.144 24.814 62.266 24.814 0.939 0 1.875-0.014 2.671-0.039l-0.107-0.002c0.716 0.016 1.433 0.024 2.152 0.024 25.736 0 49.034-10.441 65.89-27.318l0.055-0.051c16.999-15.769 27.642-38.295 27.657-63.309v0.021c0.001-0.137 0.001-0.273 0.001-0.41 0-13.366-3.563-25.899-9.601-36.347l-0.468-0.731c-11.254-16.581-24.83-31.459-40.62-44.453l-0.584-0.493c-15.164-13.107-29.46-27.191-43.192-42.611l0.17 0.205c-9.929-11.682-18.021-24.975-24.17-40.397l0.389 1.22c-6.843-18.76-10.577-39.015-10.577-60.143 0-1.38 0.016-2.757 0.044-3.925 0-4.128-0.8-6.528-0.576-14.784h64l0.061-1.010c-0.565 7.576-0.853 15.229-0.853 22.95 0 9.784 0.462 19.46 1.273 27.788l0.138 0.618c2.765 10.501 7.408 20.24 13.366 28.566l0.417 0.521c11.507 13.969 24.238 26.892 38.463 38.967zM544.448 192.224v63.456h-64.256v-63.68h64.256z" />
<glyph unicode="&#xe916;" glyph-name="right" d="M384-4.544v0l-64-64-90.496 90.496 426.016 426.048-426.016 426.048 90.496 90.496 516.544-516.544z" />
<glyph unicode="&#xe917;" glyph-name="exit" d="M512-64h-0.017c0.107 0 0.214 0 0.321 0 282.593 0 511.68 229.087 511.68 511.68 0 201.194-116.12 375.266-287.985 460.192v-148.416l1.116-0.77c96.269-69.776 158.884-183.139 158.884-311.127 0-212.077-171.923-384-384-384s-384 171.923-384 384c0 127.988 62.616 241.351 160 311.897v148.416l-2.988-1.338c-168.877-83.588-284.996-257.661-284.996-458.854 0-282.593 229.087-511.68 511.68-511.68 0.107 0 0.214 0 0.305 0zM448 960v-512h128v512h-128z" />
<glyph unicode="&#xe918;" glyph-name="password" d="M64-64v640h160v96c0 159.058 128.942 288 288 288s288-128.942 288-288v0-96h160v-640h-896zM512 832c-88.366 0-160-71.634-160-160v0-96h320v96c0 88.366-71.634 160-160 160v0zM832 448h-640v-384h640v384zM576 160v192h-128v-192h128z" />
<glyph unicode="&#xe919;" glyph-name="sel" d="M1019.168 689.152l-652.288-652.32-362.048 362.016 135.776 135.776 226.272-226.272 516.544 516.544z" />
<glyph unicode="&#xe91a;" glyph-name="search" d="M1023.52 25.6l-89.12-89.056-217.6 217.6c-74.232-56.302-168.159-90.19-270.002-90.19-248.113 0-449.248 201.135-449.248 449.248s201.135 449.248 449.248 449.248c248.113 0 449.248-201.135 449.248-449.248 0-101.843-33.888-195.77-91.003-271.122l0.813 1.12zM448 832c-176.731 0-320-143.269-320-320s143.269-320 320-320c176.731 0 320 143.269 320 320v0c0 176.731-143.269 320-320 320v0z" />
<glyph unicode="&#xe91b;" glyph-name="star" d="M1009.984 572.8l-319.072-184.224 208.288-360.544-166.4-96-223.584 387.2-221.216-383.232-166.4 96 203.84 353.056-325.44 187.936 96 166.208 61.856-35.648 2.144 3.648 256-147.808v400.608h192v-392.576l241.984 139.776 2.144-3.712 61.856 35.712z" />
<glyph unicode="&#xe91c;" glyph-name="succeed" d="M512-64c-282.77 0-512 229.23-512 512s229.23 512 512 512c282.77 0 512-229.23 512-512v0c0-282.77-229.23-512-512-512v0zM512 896c-247.424 0-448-200.576-448-448s200.576-448 448-448c247.424 0 448 200.576 448 448v0c0 247.424-200.576 448-448 448v0zM512 344.224l180.992 181.056-45.248 45.248-181.024-181.024-90.496 90.496-45.216-45.28 135.744-135.744z" />
<glyph unicode="&#xe91d;" glyph-name="up" d="M933.92 160.48l-421.92 426.048-421.92-426.048-89.6 90.496 511.52 516.576 511.552-516.544z" />
<glyph unicode="&#xe91e;" glyph-name="wrong" d="M512-64c-282.77 0-512 229.23-512 512s229.23 512 512 512c282.77 0 512-229.23 512-512v0c0-282.77-229.23-512-512-512v0zM512 896c-247.424 0-448-200.576-448-448s200.576-448 448-448c247.424 0 448 200.576 448 448v0c0 247.424-200.576 448-448 448v0zM693.024 312.224l-135.776 135.776 135.776 135.776-45.248 45.248-135.776-135.776-135.776 135.776-45.248-45.248 135.776-135.776-135.776-135.776 45.248-45.248 135.776 135.776 135.776-135.776z" />
<glyph unicode="" glyph-name="wrong" d="M512-64c-282.77 0-512 229.23-512 512s229.23 512 512 512c282.77 0 512-229.23 512-512v0c0-282.77-229.23-512-512-512v0zM512 896c-247.424 0-448-200.576-448-448s200.576-448 448-448c247.424 0 448 200.576 448 448v0c0 247.424-200.576 448-448 448v0zM693.024 312.224l-135.776 135.776 135.776 135.776-45.248 45.248-135.776-135.776-135.776 135.776-45.248-45.248 135.776-135.776-135.776-135.776 45.248-45.248 135.776 135.776 135.776-135.776z" />
<glyph unicode="12" glyph-name="虚拟硬盘" d="M1016.192 160.512l-124.448 686.528c-6.75 44.607-43.924 78.682-89.411 80.57l-0.189 0.006h-580.064c-46.411-1.969-84.048-37.084-89.933-82.179l-0.051-0.477-124.256-684.512c-4.963-14.025-7.831-30.2-7.831-47.044 0-80.201 65.015-145.216 145.216-145.216 0.38 0 0.759 0.001 1.138 0.004h731.366c0.335-0.003 0.731-0.004 1.127-0.004 80.165 0 145.152 64.987 145.152 145.152 0 16.892-2.886 33.111-8.191 48.189l0.312-1.017zM396.128 594.336c2.779 60.757 52.712 108.964 113.904 108.964s111.125-48.206 113.895-108.714l0.009-0.249c1.987 0.192 4.296 0.301 6.63 0.301 40.383 0 73.12-32.737 73.12-73.12 0-39.8-31.799-72.173-71.376-73.1l-0.086-0.002c-1.238-0.075-2.686-0.117-4.144-0.117s-2.906 0.043-4.342 0.126l0.198-0.009h-227.744c-0.912-0.041-1.982-0.064-3.057-0.064-40.33 0-73.024 32.694-73.024 73.024s32.694 73.024 73.024 73.024c1.075 0 2.145-0.023 3.208-0.069l-0.152 0.005zM885.312 31.616h-746.432c-44.183 0-80 35.817-80 80s35.817 80 80 80v0h746.496c44.183 0 80-35.817 80-80s-35.817-80-80-80v0 0zM849.024 159.648v0c26.289 0 47.6-21.311 47.6-47.6s-21.311-47.6-47.6-47.6l0.14 0.007c-1.025-0.065-2.059-0.098-3.1-0.098s-2.075 0.033-2.96 0.091l-0.164 0.010c-24.584 1.908-43.938 22.462-43.938 47.535 0 26.333 21.347 47.68 47.68 47.68 0.824 0 1.642-0.021 2.342-0.058z" />
<glyph unicode="11" glyph-name="内存" d="M1024 320v-320c0-35.346-28.654-64-64-64v0h-896c-35.346 0-64 28.654-64 64v0 896c0 35.346 28.654 64 64 64v0h704l256-256v-192h-128v-192h128zM256 832h-64v-256h64v256zM448 832h-64v-256h64v256zM640 832h-64v-256h64v256zM832 224c0 17.673-14.327 32-32 32v0h-576c-17.673 0-32-14.327-32-32v0-128c0-17.673 14.327-32 32-32v0h576c17.673 0 32 14.327 32 32v0 128z" />
<glyph unicode="10" glyph-name="磁盘容量" d="M960-64h-896c-35.346 0-64 28.654-64 64v0 896c0 35.346 28.654 64 64 64v0h896c35.346 0 64-28.654 64-64v0-896c0-35.346-28.654-64-64-64v0zM960 864c0 17.673-14.327 32-32 32v0h-832c-17.673 0-32-14.327-32-32v0-416c73.547 39.474 160.764 63.047 253.4 63.998l0.296 0.002c121.6 0 266.912-128 388.512-128 92.965 0.949 180.215 24.522 256.783 65.46l-2.991-1.46v416z" />
<glyph unicode="09" glyph-name="usage" d="M738.176 671.008c-47.937 96.022-145.48 160.814-258.155 160.814-151.554 0-275.73-117.219-286.811-265.939l-0.057-0.955c-110.347-29.528-190.699-127.514-193.147-244.655l-0.005-0.273c4.122-139.695 116.304-251.877 255.614-255.991l0.386-0.009h480c160.079 4.581 288.103 135.443 288.103 296.206 0 2.741-0.037 5.473-0.111 8.195l0.009-0.401c-0.064 161.38-126.012 293.323-284.976 302.967l-0.848 0.041z" />
<glyph unicode="08" glyph-name="pools" d="M834.592 529.888l-4.384 8.864c-9.297 15.030-19.383 28.077-30.663 39.982l0.103-0.11-288 381.088-292.48-381.088c-3.424-6.885-7.818-12.752-13.087-17.698l-0.033-0.030-21.824-31.040c-35.586-58.152-56.681-128.527-56.736-203.824v-0.016c0-212.13 171.966-384.096 384.096-384.096s384.096 171.966 384.096 384.096v0c0.007 0.832 0.011 1.815 0.011 2.799 0 74.971-22.828 144.61-61.911 202.345l0.813-1.273zM245.344 512.16l13.088 17.728c-0.003 0.057-0.004 0.125-0.004 0.193 0 2.386 1.934 4.32 4.32 4.32 0.024 0 0.048 0 0.072-0.001h-0.004l248.8 323.392 248.768-327.904 13.12-17.728c15.577-22.954 28.874-49.324 38.581-77.37l0.715-2.374c-26.176 31.008-65.472 39.872-122.208 39.872-144 0-270.592-296.864-484.48-62.048 0.001 0.039 0.002 0.086 0.002 0.132 0 2.386-1.934 4.32-4.32 4.32-0.068 0-0.136-0.002-0.204-0.005h0.010c11.032 37.094 25.939 69.432 44.723 99.071l-0.947-1.599z" />
<glyph unicode="07" glyph-name="PGS" d="M1002.688 32.288l0.029 0.001c11.811 0.317 21.289 9.992 21.289 21.88 0 0.183-0.002 0.365-0.006 0.519v179.2l-0.001-0.027c0.004 0.182 0.007 0.364 0.007 0.546 0 11.888-9.477 21.563-21.318 21.881l-213.404-0.001c-11.81-0.3-21.291-9.967-21.291-21.849 0-0.194 0.003-0.387 0.007-0.551v-179.2l0.001 0.027c-0.004-0.182-0.007-0.364-0.007-0.546 0-11.888 9.477-21.563 21.318-21.881h213.376zM864 416v-96h64v160h-384v96h-64v-96h-384v-160h64v96h320v-96h64v96h320zM682.688 640.48l0.029 0.001c11.811 0.317 21.289 9.992 21.289 21.88 0 0.183-0.002 0.365-0.006 0.519v179.2l-0.001-0.027c0.004 0.182 0.007 0.364 0.007 0.546 0 11.888-9.477 21.563-21.318 21.881l-341.405-0.001c-11.811-0.317-21.289-9.992-21.289-21.88 0-0.183 0.002-0.365 0.006-0.519v-179.2l0.001 0.027c-0.004-0.181-0.007-0.363-0.007-0.545 0-11.899 9.495-21.581 21.35-21.881h341.344zM256 234.912v0.002c-0.018 11.768-9.545 21.306-21.312 21.342h-213.378c-11.772-0.018-21.31-9.567-21.31-21.344 0 0 0 0 0 0v-181.051c0-0.034 0-0.068 0-0.102 0-11.814 9.541-21.399 21.344-21.472h213.319c11.797 0.072 21.337 9.658 21.337 21.472 0 0.034 0 0.068 0 0.096v181.056zM405.344 256.288l-0.028-0.001c-11.81-0.3-21.291-9.967-21.291-21.849 0-0.194 0.003-0.387 0.007-0.551v-179.2l0.001 0.027c-0.004-0.182-0.007-0.364-0.007-0.546 0-11.888 9.477-21.563 21.318-21.881l213.373 0.001c11.811 0.317 21.289 9.992 21.289 21.88 0 0.183-0.002 0.365-0.006 0.519v179.2l-0.001-0.027c0.004 0.182 0.007 0.364 0.007 0.546 0 11.888-9.477 21.563-21.318 21.881h-213.376z" />
<glyph unicode="06" glyph-name="osd" d="M1024 64c0-35.346-28.654-64-64-64v0h-896c-35.346 0-64 28.654-64 64v0 256c0.079 5.724 0.903 11.222 2.38 16.447l-0.108-0.447c-1.369 4.778-2.193 10.276-2.272 15.955v0.045l192 480c0 35.346 28.654 64 64 64v0h512c35.346 0 64-28.654 64-64v0l192-480c-0.079-5.724-0.904-11.223-2.38-16.447l0.108 0.447c1.368-4.777 2.193-10.276 2.272-15.955v-256.045zM64 128c0-35.346 28.654-64 64-64v0h768c35.346 0 64 28.654 64 64v0 96c0 35.346-28.654 64-64 64v0h-768c-35.346 0-64-28.654-64-64v0-96zM656 224v0c-26.51 0-48-21.49-48-48v0c0-26.51 21.49-48 48-48s48 21.49 48 48c0 26.51-21.49 48-48 48zM816 224v0c-26.51 0-48-21.49-48-48v0c0-26.51 21.49-48 48-48s48 21.49 48 48c0 26.51-21.49 48-48 48z" />
<glyph unicode="05" glyph-name="monitors" d="M1024 447.648c-1.449-14.11-6.023-26.907-13.015-38.030l0.215 0.366c-53.412-87.423-127.037-157.675-214.629-205.584l-2.971-1.488c-80.107-47.353-176.535-75.332-279.497-75.332-0.74 0-1.479 0.001-2.218 0.004h0.114c-0.671-0.003-1.465-0.004-2.259-0.004-105.058 0-203.587 27.952-288.556 76.825l2.815-1.493c-88.513 49.519-160.111 119.805-209.79 204.503l-1.41 2.601c-6.768 10.749-11.34 23.533-12.768 37.252l-0.032 0.38c1.455 14.11 6.028 26.906 13.015 38.031l-0.215-0.367c51.090 87.298 122.688 157.584 208.416 205.669l2.784 1.435c82.894 47.383 182.184 75.322 288 75.322s205.105-27.939 290.895-76.842l-2.895 1.52c88.517-49.514 160.116-119.801 209.79-204.502l1.41-2.602c6.777-10.757 11.351-23.554 12.768-37.287l0.032-0.377zM953.6 447.648c-53.443 85.515-127.125 153.822-214.549 199.385l-3.051 1.447c20.28-32.41 32.306-71.786 32.306-113.97 0-4.057-0.111-8.088-0.331-12.091l0.024 0.557c0.004-0.535 0.007-1.167 0.007-1.8 0-68.811-29.538-130.723-76.625-173.748l-0.182-0.164c-42.229-50.094-105.016-81.699-175.185-81.699-1.412 0-2.82 0.013-4.226 0.038l0.211-0.003c-0.799-0.009-1.742-0.015-2.686-0.015-69.338 0-131.935 28.862-176.434 75.227l-0.080 0.084c-47.27 43.194-76.808 105.111-76.808 173.927 0 0.661 0.003 1.322 0.008 1.982l-0.001-0.101c0.821 46.012 12.565 89.1 32.738 127.023l-0.738-1.519c-90.452-44.456-164.232-110.844-216.324-192.423l-1.276-2.137c49.83-74.684 114.129-135.784 189.31-180.502l2.69-1.482c71.411-42.857 157.457-68.431 249.433-69.023l0.167-0.001c92.136 0.57 178.184 26.123 251.863 70.215l-2.263-1.255c77.876 46.217 142.176 107.338 190.663 179.921l1.337 2.127zM531.2 642.208c4.065 4.104 6.577 9.752 6.577 15.987 0 0.997-0.064 1.979-0.189 2.942l0.012-0.114c0.111 0.846 0.175 1.824 0.175 2.817 0 6.239-2.511 11.891-6.577 16.001l0.002-0.002c-4.68 6.174-11.313 10.652-18.968 12.528l-0.232 0.048c-47.377-0.481-90.21-19.547-121.634-50.241l0.034 0.033c-31.214-32.599-50.614-76.731-51.199-125.389l-0.001-0.115c-0.11-0.842-0.173-1.817-0.173-2.806 0-6.242 2.51-11.897 6.576-16.013l-0.002 0.002c4.263-4.063 10.047-6.563 16.415-6.563 0.981 0 1.949 0.059 2.899 0.175l-0.114-0.011c0.836-0.104 1.804-0.163 2.785-0.163 6.368 0 12.152 2.5 16.424 6.573l-0.010-0.009c4.064 4.108 6.575 9.76 6.575 15.999 0 0.993-0.064 1.971-0.187 2.931l0.012-0.114c1.033 31.377 12.975 59.781 32.132 81.722l-0.132-0.154c23.503 22.084 54.776 36.139 89.306 37.654l0.294 0.010c0.879-0.115 1.895-0.181 2.927-0.181 6.304 0 12.033 2.456 16.285 6.464l-0.012-0.011z" />
<glyph unicode="04" glyph-name="iops" d="M1012.192 634.24q-34.624 35.616-69.472 71.296c-45.664 46.72-91.040 93.536-136.64 140.256q-47.68 49.184-95.456 98.208c-1.536 1.6-3.2 3.2-4.832 4.864-6.881 6.86-16.376 11.101-26.861 11.101-3.605 0-7.094-0.501-10.399-1.438l0.268 0.065c-16.234-4.675-27.923-19.362-28-36.791v-100.969h-364.928c-21.066 0-38.144-17.078-38.144-38.144s17.078-38.144 38.144-38.144h403.2c20.972 0.162 37.932 17.11 38.112 38.063v45.521l4.48-4.608q68.064-70.080 136.448-140.288c24.352-24.896 48.48-49.792 72.768-74.72l-51.2-47.616c-47.712-44.256-95.2-88.736-142.944-132.992-1.216-1.152-2.368-2.24-3.584-3.2v53.376c-0.108 21.025-17.095 38.046-38.097 38.208h-320.655v96.928c-0.021 21.068-17.105 38.139-38.176 38.139-10.517 0-20.041-4.253-26.945-11.132l0.001 0.001c-24.48-24.192-48.832-48.224-73.152-72.32l-139.552-137.6q-42.176-41.824-84.832-83.776c-0.294-0.263-0.531-0.583-0.697-0.942l-0.007-0.018c-6.915-6.778-11.201-16.215-11.201-26.653 0-0.080 0-0.16 0.001-0.239v0.012c0.182-10.519 4.419-20.014 11.21-27.018l-0.010 0.010c20.96-25.184 41.856-50.144 62.784-75.296l125.312-149.952q46.368-55.328 92.8-110.88l7.36-8.768c6.796-6.973 16.281-11.298 26.775-11.298 3.662 0 7.201 0.527 10.545 1.508l-0.264-0.067c16.224 4.672 27.908 19.343 28 36.757v115.211h288.864c21.084 0 38.176 17.092 38.176 38.176s-17.092 38.176-38.176 38.176h-326.816c0 0 0 0-0.001 0-21.129 0-38.272-17.065-38.399-38.164v-48.364l-123.040 147.2c-25.056 30.080-50.144 60.096-75.36 90.176q24.288 24.064 48.576 48 69.76 68.832 139.456 137.6c6.784 6.72 13.632 13.504 20.48 20.256v-43.936c0.144-21.030 17.172-38.036 38.198-38.144h320.49v-103.136c0.081-13.977 7.617-26.176 18.831-32.831l0.177-0.097c5.484-3.163 12.062-5.030 19.076-5.030 10.557 0 20.126 4.228 27.106 11.083l-0.006-0.006 78.624 73.056q71.616 66.688 142.848 133.28l68.704 64c6.82 6.96 11.028 16.5 11.028 27.024s-4.209 20.064-11.035 27.030l0.006-0.006z" />
<glyph unicode="03" glyph-name="hosts" d="M960 160h-320v-96h128v-64h-512v64h128v96h-320c-35.346 0-64 28.654-64 64v0 608c0 35.346 28.654 64 64 64v0h896c35.346 0 64-28.654 64-64v0-608c0-35.346-28.654-64-64-64v0zM960 768c0 35.346-28.654 64-64 64v0h-768c-35.346 0-64-28.654-64-64v0-480c0-35.346 28.654-64 64-64v0h768c35.346 0 64 28.654 64 64v0 480z" />
<glyph unicode="02" glyph-name="health" d="M293.408 468.512h-0.017c0.112-0.002 0.225-0.003 0.337-0.003 11.243 0 20.363 9.087 20.416 20.323v128l0.001 0.037c0.402 11.169 9.583 20.1 20.85 20.1 6.348 0 12.034-2.835 15.885-7.337l223.456-261.056 28.847 79.918c2.953 7.809 10.499 13.363 19.343 13.363 0.068 0 0.136 0 0.194-0.001h354.496l-0.613-0.96c29.594 43.68 46.881 96.378 46.881 153.113 0 5.068-0.138 10.104-0.38 14.407l-0.056 0.945c-10.954 148.651-135.029 265.85-286.478 265.85-1.731 0-3.458-0.015-4.922-0.042l-0.1-0.001c-87.704-0.572-166.204-39.916-219.548-102.143l-0.326 0.389c-53.564 62.362-132.993 101.864-221.649 101.864-9.298 0-18.495-0.434-26.409-1.196l-1.020-0.067c-133.495-10.868-241.075-113.356-259.94-246.013l0.144 1.366c-1.489-11.552-2.257-23.33-2.257-35.287 0-53.974 15.643-104.293 41.985-145.567h250.88zM573.376 274.4l0.022-0.027c3.838-4.437 9.509-7.245 15.836-7.245 8.953 0 16.593 5.622 19.63 13.672l38.448 106.862c2.971 7.794 10.515 13.331 19.353 13.331 0.065 0 0.129 0 0.184-0.001h256l-410.848-400-413.024 402.016c-1.792 1.344-3.296 2.976-4.992 4.544h262.001c0.102-0.001 0.204-0.002 0.306-0.002 11.199 0 20.299 8.989 20.478 20.162v76.32l196.704-229.632z" />
<glyph unicode="01" glyph-name="CPU" d="M960-64v0c35.346 0 64 28.654 64 64v256h-64v-224c0-17.673-14.327-32-32-32h-224v-64h256zM960 384v-64h64v64h-64zM960 512v-64h64v64h-64zM960 640v-64h64v64h-64zM960 864v-160h64v192c0 35.346-28.654 64-64 64h-256v-64h224c17.673 0 32-14.327 32-32zM576 960v-64h64v64h-64zM864 480v320h-320v-320h320zM448 0v-64h64v64h-64zM448 960v-64h64v64h-64zM320 960v-64h64v64h-64zM64 864v0c0 17.673 14.327 32 32 32h160v64h-192c-35.346 0-64-28.654-64-64v-192h64v160zM64 576v64h-64v-64h64zM64 448v64h-64v-64h64zM64 320v64h-64v-64h64zM64 32v224h-64v-256c0-35.346 28.654-64 64-64h192v64h-160c-17.673 0-32 14.327-32 32zM160 800v-320h320v320h-320zM480 96v320h-320v-320h320zM384-64v64h-64v-64h64zM864 96v320h-320v-320h320zM640-64v64h-64v-64h64z" />
</font>
</defs>
</svg>
