<?xml version="1.0" encoding="utf-8"?>
<!-- Generator: Adobe Illustrator 22.0.1, SVG Export Plug-In . SVG Version: 6.00 Build 0)  -->
<svg version="1.1" id="图层_1" xmlns="http://www.w3.org/2000/svg" xmlns:xlink="http://www.w3.org/1999/xlink" x="0px" y="0px"
	 viewBox="0 0 16 16" style="enable-background:new 0 0 16 16;" xml:space="preserve">
<style type="text/css">
	.st0{fill:#ADD43B;}
	.st1{fill:#A73A8A;}
	.st2{fill:#F5B52E;}
	.st3{fill:#34378B;}
</style>
<path class="st0" d="M3.1,3h2.3l-1,1l3.1,3v0.3H7.2l-3.1-3l-1,1L3.1,3z"/>
<path class="st1" d="M10.7,3h2.2v2.2l-1-1L8.8,7.3H8.6V7.1L11.6,4L10.7,3z"/>
<path class="st2" d="M8.7,8.6h0.3l3,3.1l1-1v2.2h-2.2l0.9-0.9l-3-3.1V8.6z"/>
<path class="st3" d="M7.2,8.6h0.3v0.3l-3.1,3.1l0.9,1H3.1v-2.2l1,1L7.2,8.6z"/>
<path class="st0" d="M3.1,6l1-1.1l2.5,2.5H3.1V6z"/>
<path class="st3" d="M6.6,8.6l-2.5,2.5l-1-1V8.6H6.6z"/>
<path class="st1" d="M1,8.1l1.6-1.7v1.4H7L7.2,8L7,8.2H2.6v1.4L1,8.1z M9.5,7.4L12,4.9l1,1v1.5H9.5z"/>
<path class="st2" d="M12.9,10l-1,1.1L9.5,8.6h3.5V10z"/>
<path class="st3" d="M8.9,8L9,7.8h4.4V6.4L15,8l-1.6,1.6V8.2H9L8.9,8z"/>
<path class="st2" d="M8.7,9.4l2.4,2.5l-1,0.9H8.7V9.4z"/>
<path class="st0" d="M7.8,9L8,8.8L8.2,9v4.3h1.4L8,14.9l-1.7-1.7h1.5C7.8,13.2,7.8,9,7.8,9z"/>
<path class="st3" d="M4.9,11.9l2.5-2.5v3.5H5.9L4.9,11.9z"/>
<path class="st1" d="M8.7,6.6l2.4-2.5l-1-0.9H8.7V6.6z"/>
<path class="st2" d="M7.8,7L8,7.2L8.2,7V2.7h1.4L8,1L6.3,2.7h1.5C7.8,2.7,7.8,7,7.8,7z"/>
<path class="st0" d="M4.9,4.1l2.5,2.5V3.1H5.9C5.9,3.1,4.9,4.1,4.9,4.1z"/>
</svg>
