<?xml version="1.0" encoding="utf-8"?>
<!-- Generator: Adobe Illustrator 22.0.1, SVG Export Plug-In . SVG Version: 6.00 Build 0)  -->
<svg version="1.1" id="图层_1" xmlns="http://www.w3.org/2000/svg" xmlns:xlink="http://www.w3.org/1999/xlink" x="0px" y="0px"
	 viewBox="0 0 48 48" style="enable-background:new 0 0 48 48;" xml:space="preserve">
<style type="text/css">
	.st0{fill:#4B7DE1;}
	.st1{fill:#E4ECFB;}
</style>
<g>
	<path class="st0" d="M39.2,3.8c2.8,0,5,2.2,5,5v30.5c0,2.8-2.2,5-5,5H8.8c-2.8,0-5-2.2-5-5V8.8c0-2.8,2.2-5,5-5H39.2 M39.2,2.8H8.8
		c-3.3,0-6,2.7-6,6v30.5c0,3.3,2.7,6,6,6h30.5c3.3,0,6-2.7,6-6V8.8C45.2,5.4,42.6,2.8,39.2,2.8L39.2,2.8z"/>
</g>
<g>
	<g>
		<path class="st0" d="M24,28.4l3.9,5h-7.8L24,28.4 M24,26.8l-6,7.6H30L24,26.8L24,26.8z"/>
	</g>
	<g>
		<polygon class="st0" points="24.5,33.5 23.5,33.5 23.5,41.1 24.5,41.1 24.5,33.5 		"/>
	</g>
	<g>
		<path class="st0" d="M27.9,14.6l-3.9,5l-3.9-5H27.9 M30,13.6H18l6,7.6L30,13.6L30,13.6z"/>
	</g>
	<g>
		<polygon class="st0" points="24.5,6.9 23.5,6.9 23.5,14.5 24.5,14.5 24.5,6.9 		"/>
	</g>
	<polygon class="st1" points="26.8,24.1 34.4,30.1 34.4,18.1 	"/>
	<g>
		<path class="st0" d="M33.4,20.2V28l-5-3.9L33.4,20.2 M34.4,18.1l-7.6,6l7.6,6V18.1L34.4,18.1z"/>
	</g>
	<g>
		<polygon class="st0" points="41.1,23.6 33.5,23.6 33.5,24.6 41.1,24.6 41.1,23.6 		"/>
	</g>
	<polygon class="st1" points="21.2,24.1 13.6,30.1 13.6,18.1 	"/>
	<g>
		<path class="st0" d="M14.6,20.2l5,3.9l-5,3.9V20.2 M13.6,18.1v11.9l7.6-6L13.6,18.1L13.6,18.1z"/>
	</g>
	<g>
		<polygon class="st0" points="14.5,23.6 6.9,23.6 6.9,24.6 14.5,24.6 14.5,23.6 		"/>
	</g>
</g>
</svg>
