<?xml version="1.0" encoding="utf-8"?>
<!-- Generator: Adobe Illustrator 22.0.1, SVG Export Plug-In . SVG Version: 6.00 Build 0)  -->
<svg version="1.1" id="图层_1" xmlns="http://www.w3.org/2000/svg" xmlns:xlink="http://www.w3.org/1999/xlink" x="0px" y="0px"
	 viewBox="0 0 16 16" style="enable-background:new 0 0 16 16;" xml:space="preserve">
<style type="text/css">
	.st0{fill:#52A3D9;}
	.st1{fill:#F15E6E;}
</style>
<path class="st0" d="M8,1C4.1,1,1,4.1,1,8c0,3.9,3.1,7,7,7s7-3.1,7-7C15,4.1,11.9,1,8,1z M11.2,8.2c-0.1,0.1-0.1,0.2-0.3,0.3
	c-0.2,0.1-0.6,0.2-1.3,0.4C9.2,9,8.5,9,8.2,9C8,9,7,8.9,7,8.9s-0.1-0.1,0-1.5c0.1-1.4,0.5-1.9,0.7-2.1C7.8,5,8,4.9,8,4.9l0.4,0
	c1.5,0.2,2.7,1.5,2.7,3C11.2,8.1,11.2,8.1,11.2,8.2z"/>
<path class="st1" d="M8.7,1.7l-0.9,0c0,0-0.4,0.1-0.8,0.6C6.6,2.8,5.8,3.7,5.5,6.7c-0.2,3,0,3.2,0,3.2s2.2,0.2,2.6,0.1
	c0.5,0,2,0,2.9-0.3c1.4-0.3,2.2-0.6,2.6-0.8c0.3-0.2,0.4-0.4,0.6-0.6c0-0.1,0-0.2,0-0.3C14.3,4.7,11.9,2.1,8.7,1.7z M11.2,8.2
	c-0.1,0.1-0.1,0.2-0.3,0.3c-0.2,0.1-0.6,0.2-1.3,0.4C9.2,9,8.5,9,8.2,9C8,9,7,8.9,7,8.9s-0.1-0.1,0-1.5c0.1-1.4,0.5-1.9,0.7-2.1
	C7.8,5,8,4.9,8,4.9l0.4,0c1.5,0.2,2.7,1.5,2.7,3C11.2,8.1,11.2,8.1,11.2,8.2z"/>
</svg>
