<svg xmlns="http://www.w3.org/2000/svg" width="12" height="12" viewBox="0 0 12 12">
  <metadata><?xpacket begin="﻿" id="W5M0MpCehiHzreSzNTczkc9d"?>
<x:xmpmeta xmlns:x="adobe:ns:meta/" x:xmptk="Adobe XMP Core 5.6-c140 79.160451, 2017/05/06-01:08:21        ">
   <rdf:RDF xmlns:rdf="http://www.w3.org/1999/02/22-rdf-syntax-ns#">
      <rdf:Description rdf:about=""/>
   </rdf:RDF>
</x:xmpmeta>
                                                                                                    
                                                                                                    
                                                                                                    
                                                                                                    
                                                                                                    
                                                                                                    
                                                                                                    
                                                                                                    
                                                                                                    
                                                                                                    
                                                                                                    
                                                                                                    
                                                                                                    
                                                                                                    
                                                                                                    
                                                                                                    
                                                                                                    
                                                                                                    
                                                                                                    
                                                                                                    
                           
<?xpacket end="w"?></metadata>
<defs>
    <style>
      .cls-1 {
        fill-rule: evenodd;
      }
    </style>
  </defs>
  <path id="形状_2" data-name="形状 2" class="cls-1" d="M6,0a6,6,0,1,0,6,6A6,6,0,0,0,6,0Zm4.886,6.793A8.048,8.048,0,0,1,8.652,7.5a17.694,17.694,0,0,1-2.482.217C5.752,7.753,3.906,7.6,3.906,7.6s-0.233-.171-0.031-2.73,0.9-3.35,1.241-3.784a1.28,1.28,0,0,1,.713-0.5L6.58,0.618A5.413,5.413,0,0,1,11.413,6q0,0.141-.007.281A1.874,1.874,0,0,1,10.886,6.791ZM6.4,3.394L6.04,3.379a0.62,0.62,0,0,0-.346.239,2.852,2.852,0,0,0-.6,1.825A2.681,2.681,0,0,0,5.109,6.76S6,6.835,6.206,6.82a8.6,8.6,0,0,0,1.2-.1,4.222,4.222,0,0,0,1.1-.329,0.878,0.878,0,0,0,.237-0.261q0-.067,0-0.136A2.615,2.615,0,0,0,6.4,3.394Z"/>
</svg>
