<?xml version="1.0" encoding="utf-8"?>
<!-- Generator: Adobe Illustrator 22.0.1, SVG Export Plug-In . SVG Version: 6.00 Build 0)  -->
<svg version="1.1" id="图层_1" xmlns="http://www.w3.org/2000/svg" xmlns:xlink="http://www.w3.org/1999/xlink" x="0px" y="0px"
	 viewBox="0 0 16 16" style="enable-background:new 0 0 16 16;" xml:space="preserve">
<style type="text/css">
	.st0{fill:#EC004E;}
</style>
<path class="st0" d="M12.2,7c0,0.4-0.1,0.6-0.2,0.9L11.8,8c-0.2,0.3,0,0.2-0.1,0.5c-0.3,0.2-0.8,0.7-0.9,0.8c-0.1,0,0.1-0.1,0.1-0.2
	c-0.3,0.2-0.3,0.4-0.8,0.5l0,0c-1.3,0.6-3-0.6-3-2.2C7,7.4,7,7.3,7,7.4c-0.1-0.8,0.4-1.7,1.1-2C8.9,5,9.7,5.1,10.3,5.6
	C10,5.2,9.4,4.8,8.7,4.9C8,4.9,7.4,5.3,7.2,5.8C6.9,6,6.8,6.6,6.7,6.7C6.5,8.3,7,8.9,8,9.7c0.2,0.1,0,0.1,0.1,0.2
	C7.8,9.7,7.5,9.5,7.2,9.2c0.1,0.2,0.3,0.4,0.5,0.5C7.4,9.6,7,9,6.8,8.9c0.5,1,2.2,1.7,3,1.3c-0.4,0-0.9,0-1.3-0.2
	C8.3,10,8.1,9.8,8.1,9.8c1.2,0.4,2.4,0.3,3.4-0.5c0.3-0.2,0.5-0.5,0.6-0.6C12,8.9,12.1,8.8,12,9c0.3-0.4-0.1-0.2,0.3-0.7l0.1,0.2
	c-0.1-0.3,0.4-0.8,0.4-1.3c0.1-0.2,0.1,0.2,0,0.6c0.2-0.4,0-0.5,0.1-0.9C12.9,7,13,7.1,13,7.2c-0.1-0.4,0.1-0.7,0.2-0.9
	C13.1,6.3,13,6.5,13,6c0-0.2,0.1-0.1,0.1-0.2c0,0-0.1-0.2-0.2-0.5c0-0.1,0.1,0.2,0.2,0.2c0-0.2-0.1-0.4-0.1-0.6
	c-0.2-0.4-0.1,0.1-0.2-0.2c-0.2-0.6,0.2-0.1,0.2-0.4c0.3,0.4,0.5,1.1,0.6,1.4c-0.1-0.4-0.2-0.7-0.3-1c0.1,0-0.1-0.7,0.1-0.2
	c-0.3-1.1-1.2-2.1-2.1-2.6c0.1,0.1,0.2,0.2,0.2,0.2C11,1.9,11.1,1.9,11,1.8c-0.4-0.1-0.4,0-0.6,0C9.7,1.4,9.6,1.5,9,1.2l0,0.1
	c-0.4-0.1-0.5,0.1-1,0c0,0,0.2-0.1,0.3-0.1c-0.4,0.1-0.4-0.1-0.8,0c0.1-0.1,0.2-0.1,0.3-0.2c-0.3,0-0.8,0.2-0.7,0
	C6.6,1.4,5.6,1.8,5,2.3l0-0.1C4.7,2.5,3.9,3.1,3.8,3.5l-0.1,0C3.6,3.8,3.5,4,3.4,4.3C3.2,4.6,3.2,4.4,3.2,4.4
	C2.8,5.1,2.7,5.7,2.5,6.2c0.1,0.2,0,1,0,1.6c-0.2,3.2,2.2,6.3,4.8,7C7.7,15,8.3,15,8.8,15c-0.6-0.2-0.6-0.1-1.2-0.3
	c-0.4-0.2-0.5-0.4-0.8-0.7l0.1,0.2C6.4,14,6.6,14,6.2,13.8l0.1-0.2c-0.2,0-0.5-0.3-0.6-0.5l-0.2,0c-0.2-0.3-0.4-0.5-0.4-0.7
	l-0.1,0.1c-0.1-0.1-0.9-1.1-0.5-0.9c-0.1-0.1-0.2-0.1-0.3-0.3l0.1-0.1c-0.2-0.3-0.4-0.6-0.4-0.7c0.1,0.1,0.2,0.2,0.3,0.2
	c-0.5-1.3-0.5-0.1-0.9-1.3l0.1,0C3.5,9.5,3.4,9.4,3.4,9.3l0-0.4C3,8.5,3.3,7.1,3.4,6.4c0-0.3,0.3-0.6,0.5-1.1l-0.1,0
	C4,4.8,5.1,3.5,5.6,3.6c0.2-0.3-0.1,0-0.1-0.1C6,2.9,6.2,3.1,6.6,3C7,2.7,6.2,3.1,6.4,2.9c0.7-0.2,0.5-0.4,1.4-0.5
	c0.1,0.1-0.2,0.1-0.3,0.2c0.6-0.3,1.8-0.2,2.6,0.2c0.9,0.4,2,1.8,2,3l0,0c0,0.5,0.1,1.1-0.1,1.6C12.1,7.3,12.2,7,12.2,7z"/>
</svg>
