<svg xmlns="http://www.w3.org/2000/svg" width="12" height="12" viewBox="0 0 12 12">
  <metadata><?xpacket begin="﻿" id="W5M0MpCehiHzreSzNTczkc9d"?>
<x:xmpmeta xmlns:x="adobe:ns:meta/" x:xmptk="Adobe XMP Core 5.6-c140 79.160451, 2017/05/06-01:08:21        ">
   <rdf:RDF xmlns:rdf="http://www.w3.org/1999/02/22-rdf-syntax-ns#">
      <rdf:Description rdf:about=""/>
   </rdf:RDF>
</x:xmpmeta>
                                                                                                    
                                                                                                    
                                                                                                    
                                                                                                    
                                                                                                    
                                                                                                    
                                                                                                    
                                                                                                    
                                                                                                    
                                                                                                    
                                                                                                    
                                                                                                    
                                                                                                    
                                                                                                    
                                                                                                    
                                                                                                    
                                                                                                    
                                                                                                    
                                                                                                    
                                                                                                    
                           
<?xpacket end="w"?></metadata>
<defs>
    <style>
      .cls-1 {
        fill-rule: evenodd;
      }
    </style>
  </defs>
  <path id="形状_1" data-name="形状 1" class="cls-1" d="M9.965,5.141a1.881,1.881,0,0,1-.178.759l-0.162.086a2.14,2.14,0,0,0-.082.393,4.462,4.462,0,0,1-.761.652c-0.1,0,.067-0.124.089-0.172a1.388,1.388,0,0,1-.646.428l-0.013-.03c-1.043.525-2.492-.515-2.474-1.934a0.128,0.128,0,0,1-.055.1,1.813,1.813,0,0,1,.938-1.763,1.5,1.5,0,0,1,1.76.244A1.537,1.537,0,0,0,7.1,3.251a1.443,1.443,0,0,0-1.245.794,2.956,2.956,0,0,0-.44.836A2.432,2.432,0,0,0,6.536,7.416c0.127,0.092.036,0.105,0.053,0.176A2.215,2.215,0,0,1,5.87,7a2.017,2.017,0,0,0,.373.461,5.1,5.1,0,0,1-.692-0.681A2.366,2.366,0,0,0,8.029,7.94a2.74,2.74,0,0,1-1.1-.136A0.67,0.67,0,0,1,6.6,7.514a2.589,2.589,0,0,0,2.771-.42,5.854,5.854,0,0,1,.507-0.478,0.98,0.98,0,0,0-.06.22,2.556,2.556,0,0,1,.217-0.624l0.113,0.167a10.558,10.558,0,0,0,.309-1.14c0.09-.146.1,0.157,0.005,0.49a2,2,0,0,0,.069-0.736,2.977,2.977,0,0,1,.109.32A1.507,1.507,0,0,1,10.775,4.5c-0.042-.02-0.133.158-0.154-0.265,0-.184.047-0.1,0.066-0.142a0.843,0.843,0,0,1-.176-0.432,0.482,0.482,0,0,1,.158.173,4.38,4.38,0,0,1-.095-0.543c-0.155-.347-0.055.046-0.181-0.148-0.166-.551.137-0.128,0.158-0.378A4.6,4.6,0,0,1,11.009,4a5.347,5.347,0,0,0-.23-0.882c0.077,0.034-.122-0.624.1-0.188A3.878,3.878,0,0,0,9.153.727a0.343,0.343,0,0,1,.158.209A0.531,0.531,0,0,1,8.967.6a0.731,0.731,0,0,0-.5,0A5.742,5.742,0,0,0,7.316.127L7.339,0.242a2.753,2.753,0,0,0-.81,0A0.4,0.4,0,0,1,6.777.151,3.85,3.85,0,0,0,6.1.165,2.5,2.5,0,0,1,6.367.007C6.082,0.026,5.688.184,5.81,0.039a6.419,6.419,0,0,0-1.751,1l-0.014-.1a4.548,4.548,0,0,0-.981,1.164l-0.056.013c-0.11.2-.181,0.425-0.269,0.631C2.595,3,2.527,2.84,2.547,2.881A10.039,10.039,0,0,0,2,4.437a9.364,9.364,0,0,1,.035,1.391A6.2,6.2,0,0,0,5.97,11.865a3.993,3.993,0,0,0,1.172.127c-0.466-.142-0.526-0.076-0.981-0.245a2.358,2.358,0,0,1-.63-0.569l0.091,0.173c-0.454-.172-0.264-0.213-0.634-0.338l0.1-.136a0.855,0.855,0,0,1-.457-0.406l-0.162.007A1.066,1.066,0,0,1,4.178,9.9L4.126,10c-0.059-.108-0.712-0.959-0.373-0.76a0.79,0.79,0,0,1-.237-0.277l0.069-.084a1.449,1.449,0,0,1-.29-0.608,0.375,0.375,0,0,0,.208.172C3.09,7.345,3.067,8.379,2.755,7.326l0.065-.005A2.582,2.582,0,0,1,2.7,7.064l0.03-.307c-0.3-.366-0.083-1.559-0.04-2.214A6.552,6.552,0,0,1,3.1,3.551L3,3.532c0.193-.359,1.1-1.446,1.523-1.39,0.2-.274-0.041,0-0.081-0.07a1.1,1.1,0,0,1,.892-0.439c0.326-.207-0.28.081-0.126-0.078a3.74,3.74,0,0,1,1.135-.428C6.422,1.174,6.164,1.2,6.1,1.26A2.853,2.853,0,0,1,8.247,1.4a3.37,3.37,0,0,1,1.662,2.58L9.947,3.987A5.3,5.3,0,0,1,9.869,5.35Z"/>
</svg>
