<?xml version="1.0" standalone="no"?><!DOCTYPE svg PUBLIC "-//W3C//DTD SVG 1.1//EN" "http://www.w3.org/Graphics/SVG/1.1/DTD/svg11.dtd"><svg t="1531883572482" class="icon" style="" viewBox="0 0 1024 1024" version="1.1" xmlns="http://www.w3.org/2000/svg" p-id="7345" xmlns:xlink="http://www.w3.org/1999/xlink" width="200" height="200"><defs><style type="text/css"></style></defs><path d="M768 428.8c0 59.733333-46.933333 106.666667-106.666667 106.666667H362.666667c-59.733333 0-106.666667-46.933333-106.666667-106.666667s46.933333-106.666667 106.666667-106.666667c0-46.933333 38.4-85.333333 85.333333-85.333333 8.533333 0 17.066667 2.133333 23.466667 4.266667 21.333333-27.733333 55.466667-46.933333 93.866666-46.933334 64 0 117.333333 53.333333 117.333334 117.333334 0 4.266667 0 8.533333-2.133334 12.8 51.2 8.533333 87.466667 51.2 87.466667 104.533333z" fill="#E4ECFB" p-id="7346"></path><path d="M192 768h128v21.333333H192zM362.666667 768h42.666666v21.333333h-42.666666z" fill="#4B7DE1" p-id="7347"></path><path d="M938.666667 778.666667s-2.133333-19.2-4.266667-27.733334L810.666667 85.333333H213.333333L89.6 750.933333c-2.133333 8.533333-4.266667 27.733333-4.266667 27.733334v10.666666c0 83.2 66.133333 149.333333 149.333334 149.333334h554.666666c83.2 0 149.333333-66.133333 149.333334-149.333334v-10.666666zM230.4 106.666667h561.066667l106.666666 582.4c-25.6-29.866667-64-49.066667-108.8-49.066667H234.666667c-44.8 0-83.2 19.2-110.933334 49.066667l106.666667-582.4zM789.333333 917.333333H234.666667c-70.4 0-128-57.6-128-128s57.6-128 128-128h554.666666c70.4 0 128 57.6 128 128s-57.6 128-128 128z" fill="#4B7DE1" p-id="7348"></path><path d="M362.666667 535.466667h298.666666c59.733333 0 106.666667-46.933333 106.666667-106.666667 0-51.2-36.266667-96-87.466667-104.533333 0-4.266667 2.133333-8.533333 2.133334-12.8 0-64-53.333333-117.333333-117.333334-117.333334-38.4 0-72.533333 19.2-93.866666 46.933334-8.533333-2.133333-14.933333-4.266667-23.466667-4.266667-46.933333 0-85.333333 38.4-85.333333 85.333333-59.733333 0-106.666667 46.933333-106.666667 106.666667 0 57.6 46.933333 106.666667 106.666667 106.666667z m0-192h21.333333v-21.333334c0-36.266667 27.733333-64 64-64 6.4 0 10.666667 0 19.2 2.133334l14.933333 4.266666 8.533334-12.8c19.2-23.466667 46.933333-38.4 76.8-38.4 53.333333 0 96 42.666667 96 96v10.666667l-6.4 21.333333 19.2 4.266667c40.533333 8.533333 68.266667 42.666667 68.266666 83.2 0 46.933333-38.4 85.333333-85.333333 85.333333H362.666667c-46.933333 0-85.333333-38.4-85.333334-85.333333s38.4-85.333333 85.333334-85.333333z" fill="#4B7DE1" p-id="7349"></path></svg>