<?xml version="1.0" encoding="utf-8"?>
<!-- Generator: Adobe Illustrator 22.0.1, SVG Export Plug-In . SVG Version: 6.00 Build 0)  -->
<svg version="1.1" id="icon" xmlns="http://www.w3.org/2000/svg" xmlns:xlink="http://www.w3.org/1999/xlink" x="0px" y="0px"
	 viewBox="0 0 48 48" style="enable-background:new 0 0 48 48;" xml:space="preserve">
<style type="text/css">
	.st0{fill:#E4ECFB;}
	.st1{fill:#4B7DE1;}
</style>
<path class="st0" d="M48,33c0,5.5-4.5,10-10,10H11C4.9,43,0,38.1,0,32c0-3.4,1.6-6.5,4-8.5c0-0.2,0-0.3,0-0.5c0-4.4,3.6-8,8-8
	c1.1,0,2.1,0.2,3,0.6V38h18V10.4c5.2,1.3,9,6,9,11.6c0,0.6-0.1,1.2-0.1,1.8C45.5,25.3,48,28.8,48,33z"/>
<g>
	<path class="st1" d="M41.9,23.8C42,23.2,42,22.6,42,22c0-5.2-3.3-9.7-8-11.3V5H14v10.3c-0.6-0.2-1.3-0.3-2-0.3c-4.4,0-8,3.6-8,8
		c0,0.2,0,0.3,0,0.5c-2.5,2-4,5.1-4,8.5c0,6.1,4.9,11,11,11h27c5.5,0,10-4.5,10-10C48,28.8,45.5,25.3,41.9,23.8z M15,6h18v4.4v1V38
		H15V16.7v-1.1V6z M38,42H11C5.5,42,1,37.5,1,32c0-3.3,1.6-6.2,4.1-8C5,23.6,5,23.3,5,23c0-3.9,3.1-7,7-7c0.7,0,1.4,0.1,2,0.3V39h20
		V11.8c4.1,1.6,7,5.6,7,10.2c0,0.8-0.1,1.6-0.3,2.4C44.4,25.6,47,29,47,33C47,38,43,42,38,42z"/>
	<rect x="19" y="12" class="st1" width="10" height="1"/>
	<rect x="19" y="16" class="st1" width="10" height="1"/>
</g>
</svg>
