<?xml version="1.0" encoding="utf-8"?>
<!-- Generator: Adobe Illustrator 22.0.1, SVG Export Plug-In . SVG Version: 6.00 Build 0)  -->
<svg version="1.1" id="图层_1" xmlns="http://www.w3.org/2000/svg" xmlns:xlink="http://www.w3.org/1999/xlink" x="0px" y="0px"
	 viewBox="0 0 48 48" style="enable-background:new 0 0 48 48;" xml:space="preserve">
<style type="text/css">
	.st0{fill:#E4ECFB;}
	.st1{fill:#4B7DE1;}
</style>
<path class="st0" d="M6,19.1c0.3,22.1,16.6,25,17.2,25c0.3,0.1,0.5,0.1,0.7,0.1c0.3,0,0.5,0,0.7-0.1c0.7-0.1,17-3,17.4-25H6z"/>
<path class="st1" d="M23.9,5.2c0.6,0,1.1,0.2,1.6,0.4C25.7,5.7,26,6,26.4,6.3c1.3,1,3.4,2.6,5.3,3s4,0.5,5,0.5c0.6,0,1,0,1.1,0
	s0.1,0,0.2,0c0.7,0,1.5,0.3,2,0.7c0.6,0.5,0.9,1.2,0.9,2v5.8C40.9,40.2,25,43,24.4,43.1c-0.2,0-0.3,0-0.5,0s-0.3,0-0.5,0
	C22.8,43.1,7,40.2,7,18.4v-5.8c0-0.7,0.3-1.5,0.9-2c0.5-0.5,1.2-0.7,2-0.7c0.1,0,0.1,0,0.2,0c0.1,0,0.5,0,1.1,0
	c1.1,0,3.1-0.1,5.1-0.5c1-0.2,3-1,5.9-3.5c0.1-0.1,0.2-0.1,0.2-0.1C22.8,5.4,23.4,5.2,23.9,5.2 M23.9,4.2c-0.7,0-1.5,0.2-2.1,0.6
	c0,0-0.1,0.1-0.3,0.3c-2.7,2.4-4.6,3.1-5.5,3.3c-1.8,0.4-3.8,0.5-4.9,0.5c-0.6,0-0.9,0-1,0s-0.2,0-0.3,0c-1,0-1.9,0.3-2.6,1
	C6.5,10.5,6,11.5,6,12.5v5.8C6,41,22.6,44,23.3,44.1c0.2,0,0.4,0.1,0.7,0.1c0.2,0,0.4,0,0.7-0.1c0.6,0,17.3-3,17.3-25.7v-5.8
	c0-1-0.5-2-1.3-2.7c-0.7-0.7-1.7-1-2.6-1c-0.1,0-0.1,0-0.2,0c0,0-0.4,0-1,0c-1,0-3-0.1-4.8-0.5c-1.7-0.4-3.7-1.9-4.9-2.8
	c-0.4-0.3-0.8-0.6-1-0.7C25.4,4.4,24.7,4.2,23.9,4.2L23.9,4.2z"/>
<path class="st1" d="M42,20.1c0-0.3,0-0.7,0-1H6c0,0.3,0,0.7,0,1h4.8v5.1H6.6c0.1,0.3,0.1,0.7,0.2,1h4h1H18v5H8.3
	c0.1,0.3,0.3,0.7,0.4,1H24v5.1H12c0.3,0.4,0.6,0.7,0.9,1H18v3.8c0.3,0.2,0.7,0.4,1,0.5v-4.3h5h1h5v3.9c0.3-0.2,0.7-0.4,1-0.6v-3.3
	h4.1c0.3-0.3,0.6-0.6,0.9-1h-5h-1h-5v-5.1h14.3c0.2-0.3,0.3-0.7,0.4-1H31v-5h10.3c0.1-0.3,0.1-0.7,0.2-1h-4.5v-5.1H42z M11.8,25.2
	v-5.1H24v5.1H11.8z M30,31.2H19v-5h5h1h5V31.2z M35.9,25.2H25v-5.1h10.9V25.2z"/>
</svg>
