<?xml version="1.0" encoding="utf-8"?>
<!-- Generator: Adobe Illustrator 22.0.1, SVG Export Plug-In . SVG Version: 6.00 Build 0)  -->
<svg version="1.1" id="图层_1" xmlns="http://www.w3.org/2000/svg" xmlns:xlink="http://www.w3.org/1999/xlink" x="0px" y="0px"
	 viewBox="0 0 16 16" style="enable-background:new 0 0 16 16;" xml:space="preserve">
<style type="text/css">
	.st0{fill:#008CDB;}
</style>
<path class="st0" d="M14.9,1.5c0.7,0.7-1.3,4-1.7,4.3c-0.4,0.4-1.2,0-2-0.7s-1.1-1.6-0.7-2C10.9,2.8,14.1,0.7,14.9,1.5z M4.5,2.2
	C3.3,1.6,1.7,0.9,1.2,1.4s0.2,2.1,0.9,3.3C2.7,3.7,3.5,2.9,4.5,2.2L4.5,2.2z M13.7,5.6c0.1,0.4,0.1,0.7-0.1,0.8
	c-0.4,0.4-1.5,0-2.4-1c-0.1-0.1-0.1-0.1-0.2-0.2c-0.4-0.4-0.6-0.7-0.8-1.1c-0.4-0.6-0.4-1.1-0.2-1.4c0.1-0.1,0.4-0.2,0.7-0.1
	c0.2-0.1,0.4-0.2,0.6-0.4c-1-0.5-2-0.8-3.1-0.8c-3.7,0-6.7,3-6.7,6.7c0,3.7,3,6.7,6.7,6.7C12,15,15,12,15,8.3C15,7.1,14.7,6,14.1,5
	C14,5.2,13.8,5.4,13.7,5.6L13.7,5.6z"/>
</svg>
