<?xml version="1.0" standalone="no"?><!DOCTYPE svg PUBLIC "-//W3C//DTD SVG 1.1//EN" "http://www.w3.org/Graphics/SVG/1.1/DTD/svg11.dtd"><svg t="1532344758920" class="icon" style="" viewBox="0 0 1024 1024" version="1.1" xmlns="http://www.w3.org/2000/svg" p-id="7623" xmlns:xlink="http://www.w3.org/1999/xlink" width="200" height="200"><defs><style type="text/css"></style></defs><path d="M509.866667 942.933333c-4.266667 0-8.533333 0-14.933334-2.133333-12.8 0-366.933333-64-366.933333-548.266667v-123.733333c0-21.333333 10.666667-42.666667 27.733333-57.6s38.4-21.333333 61.866667-19.2h21.333333c21.333333 0 64-2.133333 104.533334-10.666667 19.2-4.266667 57.6-19.2 117.333333-70.4 4.266667-4.266667 6.4-4.266667 6.4-6.4 27.733333-17.066667 64-17.066667 91.733333 0 6.4 4.266667 12.8 8.533333 21.333334 14.933334 23.466667 19.2 66.133333 51.2 102.4 59.733333 38.4 8.533333 81.066667 10.666667 102.4 10.666667h21.333333c21.333333-2.133333 44.8 6.4 61.866667 19.2 17.066667 14.933333 27.733333 36.266667 27.733333 57.6v123.733333C896 874.666667 539.733333 938.666667 524.8 940.8c-4.266667 2.133333-8.533333 2.133333-14.933333 2.133333z" fill="#E4ECFB" p-id="7624"></path><path d="M509.866667 110.933333c12.8 0 23.466667 4.266667 34.133333 8.533334 4.266667 2.133333 10.666667 8.533333 19.2 14.933333 27.733333 21.333333 72.533333 55.466667 113.066667 64s85.333333 10.666667 106.666666 10.666667H810.666667c14.933333 0 32 6.4 42.666666 14.933333 12.8 10.666667 19.2 25.6 19.2 42.666667v123.733333C872.533333 857.6 533.333333 917.333333 520.533333 919.466667h-21.333333C486.4 919.466667 149.333333 857.6 149.333333 392.533333v-123.733333c0-14.933333 6.4-32 19.2-42.666667 10.666667-10.666667 25.6-14.933333 42.666667-14.933333h27.733333c23.466667 0 66.133333-2.133333 108.8-10.666667 21.333333-4.266667 64-21.333333 125.866667-74.666666 2.133333-2.133333 4.266667-2.133333 4.266667-2.133334 8.533333-8.533333 21.333333-12.8 32-12.8m0-21.333333c-14.933333 0-32 4.266667-44.8 12.8l-6.4 6.4c-57.6 51.2-98.133333 66.133333-117.333334 70.4-38.4 8.533333-81.066667 10.666667-104.533333 10.666667H209.066667c-21.333333 0-40.533333 6.4-55.466667 21.333333-14.933333 12.8-25.6 34.133333-25.6 55.466667v123.733333C128 874.666667 482.133333 938.666667 497.066667 940.8c4.266667 0 8.533333 2.133333 14.933333 2.133333 4.266667 0 8.533333 0 14.933333-2.133333 12.8 0 369.066667-64 369.066667-548.266667v-123.733333c0-21.333333-10.666667-42.666667-27.733333-57.6-14.933333-14.933333-36.266667-21.333333-55.466667-21.333333h-4.266667-21.333333c-21.333333 0-64-2.133333-102.4-10.666667-36.266667-8.533333-78.933333-40.533333-104.533333-59.733333-8.533333-6.4-17.066667-12.8-21.333334-14.933334-17.066667-10.666667-32-14.933333-49.066666-14.933333z" fill="#4B7DE1" p-id="7625"></path><path d="M405.333333 405.333333h277.333334v21.333334H405.333333zM341.333333 405.333333h21.333334v21.333334h-21.333334zM405.333333 490.666667h277.333334v21.333333H405.333333zM341.333333 490.666667h21.333334v21.333333h-21.333334zM405.333333 576h277.333334v21.333333H405.333333zM341.333333 576h21.333334v21.333333h-21.333334z" fill="#4B7DE1" p-id="7626"></path></svg>