<?xml version="1.0" encoding="utf-8"?>
<!-- Generator: Adobe Illustrator 22.0.1, SVG Export Plug-In . SVG Version: 6.00 Build 0)  -->
<svg version="1.1" id="图层_1" xmlns="http://www.w3.org/2000/svg" xmlns:xlink="http://www.w3.org/1999/xlink" x="0px" y="0px"
	 viewBox="0 0 16 16" style="enable-background:new 0 0 16 16;" xml:space="preserve">
<style type="text/css">
	.st0{fill:#008CDB;}
</style>
<path class="st0" d="M15,11.5c-0.3-0.1-0.6-0.1-0.9-0.1c-0.6,0-1.1,0.1-1.4,0.3c0,0-0.1,0.1-0.1,0.1c0,0,0,0,0,0.1
	c0,0.1,0,0.3-0.4,0.3c-0.5,0.1-0.9,0.7-1.1,0.9c-0.2,0.2-0.9,0.3-0.8,0.2c0.1-0.1,0.4-0.4,0.5-0.8c0.2-0.3,0.3-0.4,0.5-0.7
	c0.1-0.1,0.3-0.4,0.3-0.6c0.1-0.2,0-0.5,0.1-0.6c0-0.2,0.2-0.5,0.2-0.8c0-0.1-0.5,0.2-0.7,0.2c-0.2,0-0.5-0.1-0.7-0.2
	c-0.3,0-0.4,0.2-0.7,0.2c-0.1,0-0.3-0.1-0.5-0.2c-0.3,0-0.8,0.2-1.5,0.2c-0.8,0-1.5-1-1.6-1.1c-0.1-0.2-0.3-0.2-0.4,0
	c-0.2,0.1-0.3,0-0.4-0.1C5.4,8.5,5.2,8,4.8,7.9C4.2,7.8,3.9,8.2,3.9,8.6C4,9,4.2,9.1,4.3,9.3c0.1,0.2,0.2,0.3,0.4,0.4
	C4.9,9.8,4.9,9.9,4.9,10c0,0.1-0.2,0.1-0.3,0.1c-0.2,0-0.4,0-0.5-0.1C4,9.9,3.9,9.8,3.7,9.6C3.6,9.4,3.4,9.3,3.2,9.3
	c-0.1,0-0.2,0-0.3,0.1C2.5,9.6,2,9.7,1.5,9.7L1,9.7C2,12.8,5,15,8.4,15C11.2,15,13.6,13.6,15,11.5"/>
<path class="st0" d="M12.8,5.1c-0.1,0.3-0.2,0.6-0.7,0.8c-0.1,0-0.1,0-0.1-0.1c0.2-0.3,0.2-0.4,0.3-0.5c0.1-0.2,0.1-0.4,0-1
	C12,3.3,11.4,1.9,11,1.4C10.6,1,9.8,0.9,9.1,1.1C8.8,1.1,8.3,1.4,7.4,1.2C5.7,0.8,5.5,1.6,5.4,2C5.3,2.3,5.1,3.3,5.1,3.3
	C5,3.8,4.9,4.5,7.4,5c1.2,0.2,1.2,0.5,1.3,0.7C8.8,6.1,9,6.3,9.1,6.4c0.2,0.1,0,0.2-0.2,0.2C8.4,6.7,6.6,6.2,5.5,5.6
	C4.6,5,4.6,4.5,4.8,4.1C3.4,3.9,2.4,4.2,2.2,4.9C1.9,6,4.6,7.9,7.8,8.8c3.3,1,6.7,0.3,7-1.8C15,6.1,14.2,5.4,12.8,5.1z M8.8,1.6
	C8.8,1.6,8.8,1.6,8.8,1.6C8.7,1.6,8.7,1.6,8.8,1.6C8.7,1.6,8.7,1.6,8.8,1.6c0.2-0.1,0.4-0.2,0.7-0.2c0.1,0,0.2,0,0.3,0c0,0,0,0,0,0
	c0.5,0,0.9,0.2,0.9,0.4c0,0.2-0.4,0.4-0.9,0.4c-0.2,0-0.3,0-0.4-0.1c0,0,0,0,0,0c0,0,0,0,0,0C9.6,2,9.9,1.9,9.8,1.8
	c0-0.1-0.4-0.2-0.9-0.2C8.9,1.6,8.8,1.6,8.8,1.6z M7.8,3.1c-0.9,0.1-1,0.2-1.2,0.3C6.4,3.7,6.1,3.1,6.1,3.1c-0.2,0-0.4-0.3-0.3-0.6
	c0.1-0.3,0.3-0.2,0.4-0.1c0.1,0.1,0.3,0.3,0.5,0.3c0.2,0,0.5-0.1,0.9-0.1c0.4,0,0.6,0.1,0.7,0.3C8.3,3,8.2,3.1,7.8,3.1"/>
</svg>
