<?xml version="1.0" encoding="utf-8"?>
<!-- Generator: Adobe Illustrator 22.0.1, SVG Export Plug-In . SVG Version: 6.00 Build 0)  -->
<svg version="1.1" id="图层_1" xmlns="http://www.w3.org/2000/svg" xmlns:xlink="http://www.w3.org/1999/xlink" x="0px" y="0px"
	 viewBox="0 0 48 48" style="enable-background:new 0 0 48 48;" xml:space="preserve">
<style type="text/css">
	.st0{fill:#E4ECFB;}
	.st1{fill:#4B7DE1;}
</style>
<g>
	<circle class="st0" cx="21" cy="25" r="8"/>
</g>
<path class="st1" d="M36,29v-1h10v1H36z M33,24h8v1h-8V24z M39,13H28h-1V9H15v4h-1H3v26h36v-3h1v4H2V12h12V8h14v4h12v10h-1V13z
	 M42,33h-8v-1h8V33z M13,25c0-4.4,3.6-8,8-8s8,3.6,8,8s-3.6,8-8,8S13,29.4,13,25z M28,25c0-3.9-3.1-7-7-7s-7,3.1-7,7s3.1,7,7,7
	S28,28.9,28,25z M34,37H8v-1h26V37z"/>
</svg>
