<?xml version="1.0" encoding="utf-8"?>
<!-- Generator: Adobe Illustrator 22.0.1, SVG Export Plug-In . SVG Version: 6.00 Build 0)  -->
<svg version="1.1" id="图层_1" xmlns="http://www.w3.org/2000/svg" xmlns:xlink="http://www.w3.org/1999/xlink" x="0px" y="0px"
	 viewBox="0 0 16 15.5" style="enable-background:new 0 0 16 15.5;" xml:space="preserve">
<g>
	<path d="M15.6,7.1C15.7,7.1,15.7,7.1,15.6,7.1L15.6,7.1c0-0.3-0.3-1.4-0.5-1.6c0-0.1-0.1-0.1-0.2-0.2c-0.1,0-0.2-0.1-0.2-0.1
		c-0.1,0.1-0.1,0.3-0.2,0.4c-0.2,0.2-0.4,0.3-0.7,0.3c-0.5,0-0.9-0.4-0.9-0.9c0-0.1,0-0.2,0.1-0.2c-0.6-0.1-1.1-0.2-1.2-0.2v0.5
		c-0.2-0.1-1.8-0.6-3.3-0.6c-1.3,0-3-0.1-5.5,1.4l-0.1,0c-1.2,0.7-2,1.6-2.4,2.6c-0.1,0.3-0.3,1-0.1,1.7c0,0.3,0.2,0.6,0.4,0.9
		c0.4,0.6,1.1,1,1.9,1.1c1.1,0.1,1.9-0.4,2.2-1.3c0.2-0.6,0-1.6-0.8-2c-0.6-0.4-1.3-0.3-1.7,0C2,8.8,1.9,9.1,1.9,9.5
		c0,0.7,0.6,1,1,1c0.1,0,0.3,0,0.4-0.1c0,0,0.1,0,0.1-0.1c0.1-0.1,0.2-0.2,0.2-0.3V10c0-0.2-0.2-0.3-0.4-0.3H3.1c-0.1,0-0.2,0-0.2,0
		c0,0-0.3-0.1-0.3-0.3c0-0.1,0-0.2,0-0.2C2.7,9.1,2.9,9,3.2,9C3.6,9,3.9,9.2,4,9.6c0.1,0.3,0.1,0.7-0.1,1c-0.2,0.3-0.7,0.4-1.2,0.3
		c-0.5,0-1-0.4-1.3-0.9c-0.3-0.5-0.3-1,0-1.5C2,7.5,3,7.6,3.6,7.7c0.8,0.2,1.6,0.8,2,1.7c0,0.1,0,0.3,0.1,0.3l0,0.2l1,0.5v0
		c0,0,0,0,0-0.3c0-0.3-0.1-0.9,0.3-1.2C7,8.7,7.2,8.6,7.4,8.6C8,8.4,8.8,8.5,9.5,9.3C9.8,9.7,10,9.9,10.1,10l0,0l0,0
		c0,0,1.2,0.6,1.3,0.6v0c0,0-0.7-0.9-0.6-1.7c0.1-0.6,0.6-0.6,1.3-0.5c0.2,0,0.5,0,0.7,0c0.7,0,1.5-0.1,2-0.3
		c0.3-0.1,0.5-0.2,0.7-0.3c0,0,0-0.1,0.1-0.2v0c0,0,0-0.2,0-0.2V7.2v0h-0.1c-0.2,0.1-0.7,0.4-1.2,0.6c-0.6,0-1.9-0.6-2-0.7
		c0-0.1-0.2-0.5-0.3-0.6c0.9,0.6,1.6,0.9,2.2,0.9C15,7.6,15.4,7.2,15.6,7.1z"/>
	<path d="M13.8,5.5c0.2,0,0.3,0,0.5-0.2c0.1-0.1,0.2-0.3,0.2-0.5c0-0.4-0.3-0.7-0.7-0.7c-0.2,0-0.3,0.1-0.5,0.2
		c-0.1,0.1-0.2,0.3-0.2,0.5C13.2,5.2,13.5,5.5,13.8,5.5z M14,4.5c0.2,0,0.3,0.1,0.3,0.2c0,0.1-0.1,0.2-0.3,0.2
		c-0.2,0-0.3-0.1-0.3-0.2C13.7,4.6,13.8,4.5,14,4.5z"/>
</g>
</svg>
