<?xml version="1.0" encoding="utf-8"?>
<!-- Generator: Adobe Illustrator 22.0.1, SVG Export Plug-In . SVG Version: 6.00 Build 0)  -->
<svg version="1.1" id="图层_1" xmlns="http://www.w3.org/2000/svg" xmlns:xlink="http://www.w3.org/1999/xlink" x="0px" y="0px"
	 viewBox="0 0 16 15.5" style="enable-background:new 0 0 16 15.5;" xml:space="preserve">
<style type="text/css">
	.st0{fill:#81C242;}
	.st1{fill:#FFFFFF;}
</style>
<path class="st0" d="M15.6,7.2L15.6,7.2c0,0.1,0,0.3,0,0.3v0c0,0,0,0.1-0.1,0.2c-0.1,0.1-0.3,0.2-0.7,0.3c-0.5,0.2-1.3,0.3-2,0.3
	c-0.3,0-0.5,0-0.7,0c-0.7-0.1-1.2-0.1-1.3,0.5c-0.1,0.8,0.6,1.7,0.6,1.7v0c0,0-1.2-0.5-1.3-0.6l0,0l0,0C10,9.9,9.8,9.7,9.5,9.3
	C8.8,8.5,8,8.4,7.4,8.6C7.2,8.6,7,8.7,6.9,8.8C6.5,9.1,6.6,9.8,6.6,10c0,0.3,0,0.3,0,0.3v0l-1-0.5l0-0.2c0-0.1,0-0.2-0.1-0.3
	c-0.3-0.9-1.1-1.6-2-1.7C3,7.6,2,7.5,1.4,8.6c-0.2,0.4-0.2,1,0,1.5c0.3,0.5,0.7,0.8,1.3,0.9c0.5,0,1-0.1,1.2-0.3
	c0.2-0.3,0.3-0.7,0.1-1C3.9,9.2,3.6,9,3.2,9C2.9,9,2.7,9.1,2.6,9.2c0,0,0,0.1,0,0.2c0,0.3,0.3,0.3,0.3,0.3c0,0,0.1,0,0.2,0h0.1
	c0.2,0,0.4,0.1,0.4,0.3v0.1c0,0.1,0,0.2-0.2,0.3c0,0-0.1,0-0.1,0.1c-0.1,0-0.3,0.1-0.4,0.1c-0.4,0-1-0.3-1-1c0-0.4,0.2-0.7,0.5-0.9
	c0.4-0.3,1.1-0.3,1.7,0c0.8,0.5,1,1.4,0.8,2c-0.3,0.9-1.1,1.4-2.2,1.3c-0.8-0.1-1.5-0.5-1.9-1.1c-0.2-0.3-0.3-0.6-0.4-0.9
	c-0.2-0.7,0-1.4,0.1-1.7c0.4-1,1.2-1.9,2.4-2.6l0.1,0c2.5-1.5,4.2-1.4,5.5-1.4c1.5,0,3.1,0.6,3.3,0.6V4.4c0.1,0,2.3,0.3,3.2,0.9
	c0.1,0.1,0.2,0.1,0.2,0.2c0.3,0.3,0.6,1.3,0.6,1.6v0c0,0,0,0-0.1,0c-0.2,0.1-0.7,0.5-1.3,0.4c-0.6,0-1.3-0.4-2.2-0.9
	c0,0.1,0.2,0.5,0.3,0.6c0.1,0.1,1.4,0.7,2,0.7C14.8,7.6,15.3,7.4,15.6,7.2L15.6,7.2L15.6,7.2z"/>
<path class="st1" d="M14.7,4.9c0-0.5-0.4-0.9-0.9-0.9c-0.3,0-0.5,0.1-0.7,0.3c-0.2,0.2-0.3,0.4-0.3,0.6c0,0.5,0.4,0.9,0.9,0.9
	c0.3,0,0.5-0.1,0.7-0.3C14.6,5.4,14.7,5.1,14.7,4.9z"/>
<path class="st0" d="M13.9,4.2c0.3,0,0.7,0.3,0.7,0.7c0,0.2-0.1,0.3-0.2,0.5c-0.1,0.1-0.3,0.2-0.5,0.2c-0.3,0-0.7-0.3-0.7-0.7
	c0-0.2,0.1-0.3,0.2-0.5C13.5,4.3,13.7,4.2,13.9,4.2z"/>
<path class="st1" d="M14.3,4.7c0-0.1-0.1-0.2-0.3-0.2c-0.2,0-0.3,0.1-0.3,0.2s0.1,0.2,0.3,0.2C14.1,4.9,14.3,4.8,14.3,4.7z"/>
</svg>
