<?xml version="1.0" encoding="utf-8"?>
<!-- Generator: Adobe Illustrator 22.0.1, SVG Export Plug-In . SVG Version: 6.00 Build 0)  -->
<svg version="1.1" id="图层_1" xmlns="http://www.w3.org/2000/svg" xmlns:xlink="http://www.w3.org/1999/xlink" x="0px" y="0px"
	 viewBox="0 0 48.1 48" style="enable-background:new 0 0 48.1 48;" xml:space="preserve">
<style type="text/css">
	.st0{fill:#9CBBE0;}
	.st1{fill:#D9A78C;}
	.st2{fill:#F2D7BC;}
	.st3{fill:#6F94B2;}
	.st4{fill:#FFFFFF;}
	.st5{fill:#2F343A;}
</style>
<g>
	<path class="st0" d="M0.2,24.1C0.2,37.3,10.9,48,24.1,48S48,37.3,48,24.1s-10.7-24-23.9-24S0.2,10.8,0.2,24.1z"/>
	<path class="st1" d="M20.7,30.1h7v7.7h-7V30.1z"/>
	<path class="st2" d="M24.2,8.1c3.4,0,8.8,1.9,8.8,11c0,5.2-1.7,8.7-2.5,9.6c-0.7,0.9-4.5,2.7-6.3,2.7V8.1z"/>
	<path class="st2" d="M34.7,21.3c0.2-1.4-0.5-2.7-1.5-2.9c-1-0.1-1.9,0.9-2.1,2.4c-0.2,1.4,0.5,2.7,1.5,2.9
		C33.6,23.8,34.5,22.7,34.7,21.3z"/>
	<path class="st2" d="M24.2,8.1c-3.4,0-8.8,1.9-8.8,11c0,5.2,1.7,8.7,2.5,9.6c0.7,0.9,4.5,2.7,6.3,2.7V8.1z"/>
	<path class="st2" d="M13.7,21.3c-0.2-1.4,0.5-2.7,1.5-2.9c1-0.1,1.9,0.9,2.1,2.4c0.1,1.4-0.5,2.7-1.5,2.9
		C14.8,23.8,13.8,22.7,13.7,21.3z"/>
	<path class="st3" d="M12.2,36.7c-0.5,0.5-1.4,3.8-2,6.8c3.9,2.8,8.8,4.5,14,4.5h0.1l0,0V35l-4.4-0.4C19.8,34.7,13.1,35.6,12.2,36.7
		z"/>
	<path class="st3" d="M24.2,48c5.2,0,10.1-1.7,14-4.6c-0.7-2.9-1.5-6.2-2-6.7c-1-1-7.7-2-7.7-2L24.2,35V48z"/>
	<path class="st4" d="M24.2,35l-3.6-1.4l-0.9,0.9l1.8,3.9L24.2,35z"/>
	<path class="st4" d="M24.2,35l3.6-1.4l0.9,0.9l-1.8,3.9L24.2,35z"/>
	<path class="st5" d="M33.2,18.6c0,0,2.9-13.1-9-13.1c-12,0-9,12.8-9,12.8s1.6-0.9,1.6,3.3h0.3c0,0,0.6-2.8,0.8-5.3
		c4.2,0,7.9-0.5,11.1-3.1c1.8,0,2,2.2,2,3.9l-0.8,0.3c0,0,0.8,1.5,0.8,4.2h0.5C31.5,21.5,31.4,16.9,33.2,18.6z"/>
	<path class="st4" d="M24.2,28c1.6,0,2.9-0.5,2.9-1.2h-5.7C21.3,27.5,22.6,28,24.2,28z"/>
</g>
</svg>
