<?xml version="1.0" encoding="utf-8"?>
<!-- Generator: Adobe Illustrator 22.0.1, SVG Export Plug-In . SVG Version: 6.00 Build 0)  -->
<svg version="1.1" id="图层_1" xmlns="http://www.w3.org/2000/svg" xmlns:xlink="http://www.w3.org/1999/xlink" x="0px" y="0px"
	 viewBox="0 0 16 16" style="enable-background:new 0 0 16 16;" xml:space="preserve">
<style type="text/css">
	.st0{fill:#E0620D;}
</style>
<path class="st0" d="M8,1c3.9,0,7,3.2,7,7s-3.1,7-7,7s-7-3.1-7-7S4.2,1,8,1z M9.9,11.3c-0.4,0.3-0.6,0.8-0.4,1.3
	c0.3,0.5,0.8,0.6,1.3,0.4c0.4-0.3,0.6-0.8,0.4-1.3C11,11.1,10.4,11.1,9.9,11.3z M8,10.7c-0.4,0-0.8-0.1-1.1-0.3l-0.6,1.1
	c0.9,0.4,1.9,0.5,2.9,0.3c0.1-0.7,0.8-1.2,1.5-1.1c0.1,0,0.2,0,0.3,0.1c0.7-0.7,1.1-1.7,1.2-2.6h-1.3C10.6,9.7,9.4,10.7,8,10.7z
	 M5.3,8c0-1,0.4-1.8,1.1-2.3L5.7,4.6C4.9,5.1,4.3,6,4.1,6.9C4.3,7.2,4.6,7.6,4.6,8S4.4,8.8,4.1,9.1c0.3,1,0.9,1.8,1.7,2.4l0.7-1.1
	C5.7,9.8,5.3,8.9,5.3,8z M3.3,7c-0.5,0-1,0.4-1,1s0.4,1,1,1s1-0.4,1-1C4.2,7.5,3.7,7,3.3,7z M8,5.3c1.4,0,2.6,1.1,2.7,2.5H12
	c-0.1-1-0.5-1.9-1.2-2.6C10.1,5.4,9.4,5,9.1,4.3c0-0.1-0.1-0.2-0.1-0.3C8.7,4,8.4,3.9,8,3.9c-0.6,0-1.2,0.2-1.8,0.4l0.6,1.1
	C7.2,5.4,7.6,5.3,8,5.3z M9.9,4.7c0.4,0.3,1.1,0.1,1.3-0.4s0.1-1-0.4-1.2c-0.4-0.3-1-0.1-1.2,0.4S9.5,4.4,9.9,4.7z"/>
</svg>
