<?xml version="1.0" encoding="utf-8"?>
<!-- Generator: Adobe Illustrator 22.0.1, SVG Export Plug-In . SVG Version: 6.00 Build 0)  -->
<svg version="1.1" id="图层_1" xmlns="http://www.w3.org/2000/svg" xmlns:xlink="http://www.w3.org/1999/xlink" x="0px" y="0px"
	 viewBox="0 0 48 48" style="enable-background:new 0 0 48 48;" xml:space="preserve">
<style type="text/css">
	.st0{fill:#E4ECFB;}
	.st1{fill:#4B7DE1;}
	.st2{fill:none;stroke:#4B7DE1;stroke-miterlimit:10;}
</style>
<circle class="st0" cx="23.9" cy="23.9" r="14.7"/>
<g>
	<path class="st1" d="M27.1,3c-0.3-1.4-1.6-2.5-3.1-2.5c-1.7,0-3.1,1.4-3.1,3.1c0,1.7,1.4,3.1,3.1,3.1c1.6,0,2.9-1.2,3.1-2.8
		c9.7,1.5,17.2,9.9,17.2,20c0,5.8-2.4,11-6.3,14.7l0.6,0.8c4.1-3.9,6.7-9.4,6.7-15.5C45.3,13.3,37.3,4.5,27.1,3z M24,5.8
		c-1.2,0-2.1-1-2.1-2.1s1-2.1,2.1-2.1c1.2,0,2.1,1,2.1,2.1S25.2,5.8,24,5.8z"/>
	<path class="st1" d="M24,41.2c-1.6,0-2.9,1.2-3.1,2.8c-9.7-1.5-17.2-9.9-17.2-20c0-5.5,2.2-10.6,5.9-14.2L9,8.9
		C5.1,12.8,2.7,18.1,2.7,24c0,10.7,7.9,19.5,18.2,21c0.3,1.4,1.6,2.5,3.1,2.5c1.7,0,3.1-1.4,3.1-3.1C27.1,42.6,25.7,41.2,24,41.2z
		 M24,46.5c-1.2,0-2.1-1-2.1-2.1c0-1.2,1-2.1,2.1-2.1c1.2,0,2.1,1,2.1,2.1C26.1,45.5,25.2,46.5,24,46.5z"/>
</g>
<g>
	<circle class="st2" cx="23.9" cy="24" r="14.3"/>
	<g>
		<g>
			<path class="st1" d="M34.5,13.9c-0.2-0.2-0.5-0.5-0.7-0.7c-2.6,1.9-6.1,3.1-9.9,3.1c-3.8,0-7.3-1.2-9.9-3.1
				c-0.2,0.2-0.5,0.5-0.7,0.7c2.8,2.1,6.5,3.4,10.6,3.4C28,17.4,31.7,16,34.5,13.9z"/>
			<path class="st1" d="M23.9,30.5c-4.2,0-7.9,1.3-10.7,3.5c0.2,0.2,0.5,0.5,0.7,0.7c2.6-2,6.1-3.2,10-3.2c3.9,0,7.4,1.2,10,3.2
				c0.2-0.2,0.5-0.5,0.7-0.7C31.8,31.8,28,30.5,23.9,30.5z"/>
			<rect x="9.6" y="23.4" class="st1" width="28.5" height="1"/>
		</g>
		<g>
			<path class="st1" d="M23.2,9.4c3.1,3.3,5.1,8.6,5.1,14.5c0,6.1-2.1,11.4-5.2,14.7c0.3,0,0.5,0,0.8,0c0.2,0,0.4,0,0.5,0
				c3-3.5,4.9-8.8,4.9-14.7c0-5.8-1.8-11-4.7-14.5c-0.2,0-0.4,0-0.7,0C23.7,9.3,23.5,9.4,23.2,9.4z"/>
			<path class="st1" d="M19.7,23.9c0-6,2-11.2,5-14.5c-0.3,0-0.6,0-0.9,0c-0.1,0-0.3,0-0.4,0c-2.9,3.5-4.7,8.7-4.7,14.6
				c0,5.9,1.9,11.2,4.9,14.7c0.1,0,0.2,0,0.3,0c0.3,0,0.7,0,1-0.1C21.8,35.3,19.7,30,19.7,23.9z"/>
		</g>
	</g>
</g>
</svg>
