<?xml version="1.0" encoding="utf-8"?>
<!-- Generator: Adobe Illustrator 22.0.1, SVG Export Plug-In . SVG Version: 6.00 Build 0)  -->
<svg version="1.1" id="图层_1" xmlns="http://www.w3.org/2000/svg" xmlns:xlink="http://www.w3.org/1999/xlink" x="0px" y="0px"
	 viewBox="0 0 48 48" style="enable-background:new 0 0 48 48;" xml:space="preserve">
<style type="text/css">
	.st0{fill:#E4ECFB;}
	.st1{fill:#4B7DE1;}
</style>
<g>
	<path class="st0" d="M23.9,44.2c-0.2,0-0.4,0-0.7-0.1c-0.6,0-17.2-3-17.2-25.7v-5.8c0-1,0.5-2,1.3-2.7s1.8-1,2.9-0.9
		c0.1,0,0.4,0,1,0c1,0,3-0.1,4.9-0.5c0.9-0.2,2.7-0.9,5.5-3.3C21.8,5,21.9,5,21.9,4.9c1.3-0.8,3-0.8,4.3,0c0.3,0.2,0.6,0.4,1,0.7
		C28.3,6.5,30.3,8,32,8.4c1.8,0.4,3.8,0.5,4.8,0.5c0.6,0,1,0,1,0c1-0.1,2.1,0.3,2.9,0.9c0.8,0.7,1.3,1.7,1.3,2.7v5.8
		C42,41,25.3,44,24.6,44.1C24.4,44.2,24.2,44.2,23.9,44.2z"/>
</g>
<path class="st1" d="M23.9,5.2c0.6,0,1.1,0.2,1.6,0.4C25.7,5.7,26,6,26.4,6.3c1.3,1,3.4,2.6,5.3,3s4,0.5,5,0.5c0.6,0,1,0,1.1,0
	s0.1,0,0.2,0c0.7,0,1.5,0.3,2,0.7c0.6,0.5,0.9,1.2,0.9,2v5.8C40.9,40.2,25,43,24.4,43.1c-0.2,0-0.3,0-0.5,0s-0.3,0-0.5,0
	C22.8,43.1,7,40.2,7,18.4v-5.8c0-0.7,0.3-1.5,0.9-2c0.5-0.5,1.2-0.7,2-0.7c0.1,0,0.1,0,0.2,0c0.1,0,0.5,0,1.1,0
	c1.1,0,3.1-0.1,5.1-0.5c1-0.2,3-1,5.9-3.5c0.1-0.1,0.2-0.1,0.2-0.1C22.8,5.4,23.4,5.2,23.9,5.2 M23.9,4.2c-0.7,0-1.5,0.2-2.1,0.6
	c0,0-0.1,0.1-0.3,0.3c-2.7,2.4-4.6,3.1-5.5,3.3c-1.8,0.4-3.8,0.5-4.9,0.5c-0.6,0-0.9,0-1,0s-0.2,0-0.3,0c-1,0-1.9,0.3-2.6,1
	C6.5,10.5,6,11.5,6,12.5v5.8C6,41,22.6,44,23.3,44.1c0.2,0,0.4,0.1,0.7,0.1c0.2,0,0.4,0,0.7-0.1c0.6,0,17.3-3,17.3-25.7v-5.8
	c0-1-0.5-2-1.3-2.7c-0.7-0.7-1.7-1-2.6-1c-0.1,0-0.1,0-0.2,0c0,0-0.4,0-1,0c-1,0-3-0.1-4.8-0.5c-1.7-0.4-3.7-1.9-4.9-2.8
	c-0.4-0.3-0.8-0.6-1-0.7C25.4,4.4,24.7,4.2,23.9,4.2L23.9,4.2z"/>
<g>
	<g>
		<rect x="19" y="19" class="st1" width="13" height="1"/>
	</g>
	<g>
		<rect x="16" y="19" class="st1" width="1" height="1"/>
	</g>
	<g>
		<rect x="19" y="23" class="st1" width="13" height="1"/>
	</g>
	<g>
		<rect x="16" y="23" class="st1" width="1" height="1"/>
	</g>
	<g>
		<rect x="19" y="27" class="st1" width="13" height="1"/>
	</g>
	<g>
		<rect x="16" y="27" class="st1" width="1" height="1"/>
	</g>
</g>
</svg>
