<svg xmlns="http://www.w3.org/2000/svg" width="230" height="44" viewBox="0 0 230 44">
  <metadata><?xpacket begin="﻿" id="W5M0MpCehiHzreSzNTczkc9d"?>
<x:xmpmeta xmlns:x="adobe:ns:meta/" x:xmptk="Adobe XMP Core 5.6-c142 79.160924, 2017/07/13-01:06:39        ">
   <rdf:RDF xmlns:rdf="http://www.w3.org/1999/02/22-rdf-syntax-ns#">
      <rdf:Description rdf:about=""/>
   </rdf:RDF>
</x:xmpmeta>
                                                                                                    
                                                                                                    
                                                                                                    
                                                                                                    
                                                                                                    
                                                                                                    
                                                                                                    
                                                                                                    
                                                                                                    
                                                                                                    
                                                                                                    
                                                                                                    
                                                                                                    
                                                                                                    
                                                                                                    
                                                                                                    
                                                                                                    
                                                                                                    
                                                                                                    
                                                                                                    
                           
<?xpacket end="w"?></metadata>
<defs>
    <style>
      .cls-1 {
        fill: #fff;
        fill-rule: evenodd;
      }
    </style>
  </defs>
  <path id="LOGO" class="cls-1" d="M43.091,28.219a4.242,4.242,0,0,1-2.849,1.308c-2.324.071-4.651,0.023-6.977,0.022a2.807,2.807,0,0,1-.293-0.04,6.286,6.286,0,0,0,4.343-5.939,6.594,6.594,0,0,0-3.085-5.965c-0.075.063-.137,0.131-0.215,0.194a7.213,7.213,0,0,1-4.353,1.626c-3.512.088-7.027,0.031-10.541,0.028A7.379,7.379,0,0,0,13.8,26.02a7.348,7.348,0,0,0,5.8,7.369c-0.132.008-.263,0.022-0.4,0.022-2.908-.006-5.816,0-8.723-0.027a10.3,10.3,0,0,1-1.761-.165A7.058,7.058,0,0,1,5.775,20.694a6.512,6.512,0,0,1,3.96-1.5c3.177-.08,6.357-0.029,9.536-0.026a8.038,8.038,0,0,0,5.92-7.149,7.99,7.99,0,0,0-6.381-8C18.955,4.015,19.1,4,19.244,4c3.2,0.006,6.393,0,9.589.029a11.463,11.463,0,0,1,1.936.179,7.589,7.589,0,0,1,6.086,5.825,7.426,7.426,0,0,1-2.093,7.092c1.646,0,3.291,0,4.937.019a6.157,6.157,0,0,1,1.267.144,5.586,5.586,0,0,1,3.983,4.685A6.806,6.806,0,0,1,43.091,28.219ZM15.2,26.978a12.672,12.672,0,0,1,.467-2.21,6.871,6.871,0,0,1,5.281-4.48,7.174,7.174,0,0,1,7.377,2.994q1.649,2.514,3.3,5.026,3.148,4.779,6.3,9.556c0.229,0.347.452,0.7,0.709,1.095a1.958,1.958,0,0,1-.214.035Q32.749,39,27.073,39a0.646,0.646,0,0,1-.624-0.329c-1.6-2.553-3.224-5.095-4.826-7.649a7.117,7.117,0,0,0-6.088-3.649A0.29,0.29,0,0,1,15.2,26.978Z"/>
  <path id="人民日报媒体云" class="cls-1" d="M70,10.9l-1.353,5.67h2.439L79.71,33.526,75.1,33.55,67.755,18.905Q63.962,28.749,56.91,33.671L56.934,28.6A31.733,31.733,0,0,0,65.6,10.9H70Zm30.988,0q2.9,0,2.9,3.233l-0.024,6.225H98.526l0.99,2.847h4.927v3.185h-3.695l3.381,7.286H99.612l-3.237-7.286h-10.7v3.523a0.523,0.523,0,0,0,.6.579h4.589v3.185h-6.3q-2.923,0-2.922-2.992V14.08q0-3.185,3.55-3.185h15.8ZM95.168,23.2l-1.159-2.847H85.676V23.2h9.492Zm2.2-9.12H85.676v3.04H99.854V15.672q0-1.592-2.488-1.592h0ZM128.6,33.6H106.52V14.345q0.024-2.991,3.116-2.992h16.158q2.778,0,2.754,3.137V31.355Zm-6.5-9.651H110.723v6.321h13.622V25.781q0-1.833-2.246-1.834h0Zm2.246-3.354v-3.86q0-2.027-2.246-2.027H110.723v5.887h13.622Zm12.608,12.281a2.271,2.271,0,0,1-1.739.8h-3.188V30.824h0.966a0.725,0.725,0,0,0,.869-0.724V25.057l-2.608.7V22.066l2.608-.724V18.23a1.533,1.533,0,0,0-1.594-1.858h-0.918V13.235h2.512V10.9h3.72v2.34h1.546v3.137h-1.546V20.16l1.546-.507v3.691l-1.546.531V31.33a2.7,2.7,0,0,1-.628,1.544h0Zm6.183-21.5h7.2q2.946,0,2.946,2.775v2.437q0,1.472-1.787,1.472h-2.126V15.551a0.8,0.8,0,0,0-.917-0.893h-4.783v4.246h8.6q1.98,0.29,1.546,2.775l-3.237,6.394,3.478,5.6h-4.106l-1.449-2.2-0.821,1.665a2.64,2.64,0,0,1-1.594.531H139.9V14.562q0.1-3.185,3.237-3.185h0Zm0.531,10.664v1.206h3.189a1.283,1.283,0,0,1,1.111.7l0.386,0.579,1.159-2.485h-5.845Zm1.449,3.909a1.161,1.161,0,0,0-1.449-.627v7.793l2.8-5.139Zm10.918-8.83V14.007h0.676V11.136h3.43v2.871h1.3V11.136h3.478v2.871h0.628V17.12h-0.628v8.444l-1.884,2.968,3.285,5.091h-4.154l-1.788-2.533a8.317,8.317,0,0,1-4.4,2.582L156.034,30A5.684,5.684,0,0,0,158.5,28.29l-1.787-2.726V17.12h-0.676Zm5.41,0h-1.3v7.141l0.628,1.158,0.676-1.158V17.12Zm11.98,1.3h-3.14v1.23l3.84-.024v-0.6a0.58,0.58,0,0,0-.7-0.6h0Zm0.7-2.413v-0.6a0.58,0.58,0,0,0-.7-0.6h-3.14V16.01h3.84ZM169.2,33.55l-3,.024,0.531-6.273H169.7Zm9.444-7.19h-4.517L174.1,33.647l-3.478-.048v-5.38a1.6,1.6,0,0,0-1.715-1.858h-2.85V23.586h4.613q0-1.351-2-1.351-2.03,0-2.029-2.582V14.8h-0.773V12.029h0.773V10.8h3.647v1.23h3.84V10.8H177.8v1.23h0.652V14.8H177.8v5.043q0,2.389-1.957,2.389h-1.787l-0.024,1.351h4.613V26.36Zm-1.788.917a1.383,1.383,0,0,1,1.208.965l0.483,5.26h-3l-0.507-6.225h1.811Zm6.884-7.528,2.391,0.024V31.548q0,2.123-2.608,2.123h-1.305V21.125l-1.473.579L180.718,17.1q2.2-1.448,3.067-6.008h3.623q-0.894,5.791-3.671,8.662h0Zm8.671-4.27L191.3,26.819h1.932V15.72h-5.483V12.584h5.483V10.9h3.913v1.689h5.821V15.72h-5.821v11.1h2l-1.136-11.436,3.841,0.121,1.666,17.516h-3.743l-0.363-3.064h-2.27v3.74l-3.913-.024V31.813q0-1.858-1.28-1.858h-0.99l-0.411,3.088-3.719-.024,1.859-17.54h3.72ZM227.14,11.16V14.49H206.393V11.16H227.14Zm0.845,9.868H216.658l-6.015,9.506h11.546a0.612,0.612,0,0,0,.676-0.917l-2.9-5.766h4.444l3.236,6.8q0.653,2.75-1.884,3.016H209.508q-3.719.048-3.236-3.957l5.6-8.686h-6.424V17.651h22.534v3.378Z"/>
</svg>
