<svg xmlns="http://www.w3.org/2000/svg" width="84" height="30" viewBox="0 0 84 30">
  <metadata><?xpacket begin="﻿" id="W5M0MpCehiHzreSzNTczkc9d"?>
<x:xmpmeta xmlns:x="adobe:ns:meta/" x:xmptk="Adobe XMP Core 5.6-c140 79.160451, 2017/05/06-01:08:21        ">
   <rdf:RDF xmlns:rdf="http://www.w3.org/1999/02/22-rdf-syntax-ns#">
      <rdf:Description rdf:about=""/>
   </rdf:RDF>
</x:xmpmeta>
                                                                                                    
                                                                                                    
                                                                                                    
                                                                                                    
                                                                                                    
                                                                                                    
                                                                                                    
                                                                                                    
                                                                                                    
                                                                                                    
                                                                                                    
                                                                                                    
                                                                                                    
                                                                                                    
                                                                                                    
                                                                                                    
                                                                                                    
                                                                                                    
                                                                                                    
                                                                                                    
                           
<?xpacket end="w"?></metadata>
<defs>
    <style>
      .cls-1 {
        fill: #fff;
        fill-rule: evenodd;
      }
    </style>
  </defs>
  <path id="形状_1" data-name="形状 1" class="cls-1" d="M75.228,15.162L71.48,21.573H81.766l-2.043-3.5h1.32l2.7,4.624H69.518L69.5,22.694l4.4-7.532H68.969V14.033H84v1.129H75.228ZM70.812,9.3H82.243v1.129H70.812V9.3ZM60.778,22.781a8.485,8.485,0,0,1-4.519-.894,3.278,3.278,0,0,0-1.521-.606,4.023,4.023,0,0,0-2.212,1.527l-0.074.078-0.721-.874,0.055-.06A6.661,6.661,0,0,1,54.166,20.2V14.26H51.76V13.131h3.549v7.106L55.452,20.3a9.856,9.856,0,0,1,1.149.609,7.981,7.981,0,0,0,4.193.77c1.8,0,4.192-.116,5.95-0.288l0.135-.013v1.2l-0.41.035C65.377,22.7,62.5,22.781,60.778,22.781Zm2.455-1.92V19.878h1.709V18.286H62v2.575H61V18.286H58.061v2.575h-1V12.593h4.5l-2.485-1.144,0.421-.892,2.193,1.01,2.357-1.344H57.064V9.239h8.874v1.038l-3.15,1.8,1.129,0.52h2.021v8.268h-2.7ZM61,13.578H58.061V15.17H61V13.578Zm0,2.575H58.061V17.3H61V16.153Zm3.939-2.575H62V15.17h2.942V13.578Zm0,2.575H62V17.3h2.942V16.153ZM52.475,9.239h1.364L55.661,12H54.3ZM39.5,21.573H41V13.333h1.143v8.239h2.4v-11.2H40.112V9.239h9.332v1.129H45.682v4.8h3.763V16.3H45.682v5.274h4.138V22.7H39.5V21.573Zm-3.36.239,0.7-.539V14.26H34.43V13.131h3.549v7.26l1.873-1.445v1.433L36.842,22.7ZM35.422,9.239h1.364L38.608,12H37.244Zm-8.854,15.04h0c-0.126.041-.345,0.125-0.719,0.22a21.879,21.879,0,0,1-4.462.465c-0.09,0-.157.008-0.25,0.011-0.372.01-.818,0.012-1.244,0.016-0.245,0-.451.009-0.715,0.009H14.692c-0.914-.01-1.508-0.022-1.558-0.022a0.3,0.3,0,0,1-.3-0.3,0.293,0.293,0,0,1,.142-0.246,0.3,0.3,0,0,1,.16-0.052h0c4.661-.02,9.209-3.749,9.209-8.348a8.014,8.014,0,0,0-7.993-8.349,8.475,8.475,0,0,0-7.5,4.483c-0.119-.006-0.238-0.01-0.359-0.01a6.5,6.5,0,0,1,5.867,3.67,0.346,0.346,0,0,1-.142.461,0.414,0.414,0,0,1-.539-0.073,5.029,5.029,0,1,0-3.9,8.167H7.926a0.213,0.213,0,0,1,.226.224,0.31,0.31,0,0,1-.226.224,4.571,4.571,0,0,1-1.434.149,6.406,6.406,0,0,1-.807-12.771A10.1,10.1,0,0,1,15.4,5a9.672,9.672,0,0,1,9.662,9.989c0,4.182-3.036,7.761-6.938,9.25a25.763,25.763,0,0,0,6.1-1.213l0.006,0c0.046-.017.086-0.038,0.132-0.056,0.228-.089.452-0.18,0.658-0.281a7.084,7.084,0,0,0,.763-0.436c0.046-.033.076-0.074,0.12-0.108a4.017,4.017,0,0,0,1.651-3.31A4.192,4.192,0,0,0,26.1,15.661a0.764,0.764,0,0,1,.566-1.344,1.046,1.046,0,0,1,.318.063L27.061,14.4a5.481,5.481,0,0,1,3.125,4.917c0,0.031.006,0.06,0.006,0.091h0A4.948,4.948,0,0,1,26.568,24.279Z"/>
</svg>
